<?xml version="1.0" standalone="no"?>
<!DOCTYPE svg PUBLIC "-//W3C//DTD SVG 20010904//EN"
 "http://www.w3.org/TR/2001/REC-SVG-20010904/DTD/svg10.dtd">
<svg version="1.0" xmlns="http://www.w3.org/2000/svg"
 width="426.000000pt" height="240.000000pt" viewBox="0 0 426.000000 240.000000"
 preserveAspectRatio="xMidYMid meet">
<metadata>
Created by potrace 1.16, written by Peter Selinger 2001-2019
</metadata>
<g transform="translate(0.000000,240.000000) scale(0.100000,-0.100000)"
fill="#000000" stroke="none">
<path d="M3932 1917 c-14 -6 -38 -43 -65 -95 -74 -149 -128 -184 -197 -126
l-31 26 -60 -26 c-63 -29 -116 -31 -130 -6 -4 8 -10 31 -14 51 -4 25 -13 39
-30 47 -27 12 -33 40 -13 60 29 29 -14 7 -92 -48 -115 -81 -181 -120 -205
-120 -31 -1 -207 -48 -214 -57 -3 -5 -36 -21 -74 -37 -91 -38 -128 -67 -227
-174 -45 -50 -110 -111 -144 -134 -55 -40 -98 -78 -336 -305 -47 -45 -96 -91
-109 -102 -17 -15 -20 -22 -10 -25 8 -2 29 -9 48 -15 19 -6 89 -11 156 -11
l122 0 -5 -28 c-2 -18 4 -36 17 -52 20 -24 21 -24 36 -6 8 10 16 24 19 30 3 7
8 6 15 -4 10 -13 14 -12 31 9 11 13 20 29 20 37 0 11 21 14 96 14 l97 0 -7
-52 c-3 -29 -6 -65 -6 -81 0 -16 -5 -26 -12 -25 -7 2 -14 -7 -16 -19 -3 -22 0
-23 55 -24 32 -1 68 0 81 1 18 1 22 -4 22 -29 0 -28 3 -31 30 -31 23 0 30 5
30 19 0 11 4 22 8 25 4 2 8 -7 7 -20 0 -24 3 -25 67 -27 61 -3 68 -1 71 17 4
21 4 21 6 0 1 -18 7 -21 40 -21 35 0 40 3 43 27 5 31 -11 59 -29 53 -6 -2 -14
1 -18 7 -5 8 -11 8 -21 -1 -12 -9 -14 -5 -14 23 0 19 -3 63 -6 97 l-7 61 42 0
c43 0 45 -2 41 -54 -1 -23 2 -28 14 -23 11 5 16 1 16 -13 0 -26 46 -28 53 -2
4 16 5 16 6 0 1 -15 11 -18 55 -18 34 0 56 5 59 13 4 10 6 9 6 0 1 -8 15 -13
36 -13 26 0 33 3 29 15 -4 9 0 15 9 15 9 0 16 12 19 30 3 16 1 30 -4 30 -5 0
-6 5 -3 10 3 5 17 10 30 10 22 0 24 -3 19 -30 -4 -19 -1 -38 10 -55 16 -24 46
-35 46 -16 0 5 12 16 26 26 24 16 27 16 46 -2 19 -17 21 -17 44 10 13 16 24
37 24 48 0 17 7 19 69 19 66 0 70 -1 112 -40 l44 -40 -38 0 c-23 0 -36 -4 -32
-10 8 -13 62 -13 70 0 4 6 12 5 21 -4 23 -23 98 -13 131 18 15 14 31 26 34 26
3 0 19 11 35 25 27 23 37 25 132 25 l102 0 0 430 c0 380 -2 430 -15 430 -23 0
-90 -36 -127 -69 -45 -39 -84 -57 -141 -65 -47 -7 -48 -7 -62 27 -22 54 -5
141 42 204 17 24 23 45 23 86 0 60 -10 71 -48 54z m-752 -639 c0 -50 -3 -88
-7 -84 -14 14 -31 140 -22 159 20 37 29 14 29 -75z m-85 35 c-16 -14 -54 -48
-84 -74 -87 -80 -79 -46 13 51 34 36 55 50 74 50 l27 -1 -30 -26z m-479 -86
c35 -68 26 -77 -19 -18 -22 31 -37 61 -37 78 1 27 1 27 16 8 9 -11 27 -42 40
-68z m184 -6 c46 -16 86 -34 88 -41 3 -8 0 -10 -8 -5 -7 4 -16 2 -20 -4 -8
-14 -161 -32 -174 -20 -5 4 9 11 30 14 22 4 53 10 69 14 l30 8 -35 7 c-61 13
-70 17 -80 37 -14 25 -5 24 100 -10z m1021 -32 c11 -5 17 -14 14 -20 -4 -5 3
-9 13 -9 11 0 25 -7 32 -15 10 -13 9 -19 -6 -38 -19 -22 -19 -22 2 -4 26 22
37 22 58 -2 16 -18 15 -20 -14 -45 -36 -29 -62 -33 -80 -11 -10 12 -10 18 1
33 13 15 12 16 -4 3 -15 -12 -22 -12 -42 -1 -13 7 -21 18 -18 26 3 8 -2 11
-14 8 -11 -3 -25 2 -33 11 -13 15 -11 21 18 46 36 32 44 34 73 18z m-672 -36
c-1 -18 -121 -104 -136 -99 -19 8 -20 7 58 61 65 44 80 51 78 38z m128 -15
c67 -25 83 -35 83 -54 0 -10 -24 -2 -80 26 -44 22 -80 42 -80 45 0 9 18 5 77
-17z m-298 -80 c23 -68 25 -109 5 -115 -9 -3 -44 146 -44 187 0 27 18 -5 39
-72z m749 59 c10 -8 9 -14 -5 -30 -18 -20 -18 -20 8 -3 24 15 27 15 44 -4 18
-20 18 -21 -6 -47 l-24 -26 31 22 c26 19 35 21 53 12 31 -17 26 -38 -18 -67
-34 -22 -42 -24 -60 -12 -13 7 -20 20 -18 30 3 10 0 15 -8 11 -21 -7 -57 16
-51 33 4 9 2 12 -5 8 -12 -7 -59 15 -59 28 0 4 19 21 41 38 40 28 48 29 77 7z
m-1078 -1 c0 -14 -67 -143 -79 -153 -27 -20 -31 -4 -8 30 12 18 33 54 47 80
21 39 40 60 40 43z m985 -95 c-3 -8 0 -11 9 -8 8 3 25 -2 37 -12 l22 -18 -35
-26 c-42 -32 -63 -34 -80 -7 -7 11 -20 20 -29 20 -9 0 -22 6 -28 13 -8 10 -4
20 17 39 15 14 34 28 42 30 21 7 51 -14 45 -31z m395 14 c6 -8 9 -19 5 -24 -3
-6 0 -8 9 -5 8 3 24 1 35 -6 18 -9 19 -14 11 -31 -10 -18 -9 -19 9 -8 15 10
23 10 35 0 24 -20 20 -37 -14 -61 -37 -26 -80 -21 -80 10 0 13 -5 18 -15 14
-18 -7 -48 15 -41 31 2 6 -5 11 -16 11 -11 -1 -25 7 -32 17 -9 15 -6 22 19 43
34 27 57 30 75 9z m-67 -95 c8 0 20 -7 28 -16 11 -14 7 -20 -27 -49 -31 -26
-43 -31 -58 -23 -10 5 -21 18 -23 28 -3 11 -11 16 -19 13 -17 -6 -44 14 -44
33 0 7 19 24 43 39 l42 25 22 -25 c12 -14 28 -25 36 -25z m-243 -31 c-38 -32
-52 -35 -69 -15 -16 19 -6 37 32 63 32 21 32 21 52 1 20 -19 20 -19 -15 -49z
m60 -4 c-7 -8 -17 -15 -22 -15 -6 0 -5 7 2 15 7 8 17 15 22 15 6 0 5 -7 -2
-15z m55 -23 c5 -12 14 -21 20 -20 17 2 45 -14 45 -26 -1 -6 -18 -23 -39 -38
-36 -24 -41 -25 -60 -11 -12 8 -19 18 -16 22 2 5 -9 11 -25 15 -41 8 -38 30 7
61 43 28 54 28 68 -3z m208 0 c16 -17 16 -20 -6 -39 -12 -11 -33 -26 -46 -33
-20 -10 -26 -9 -43 8 l-21 20 43 31 c50 36 52 37 73 13z m-1150 -114 c-2 -29
-6 -77 -9 -105 l-5 -53 -24 28 c-20 23 -31 27 -79 28 -31 0 -56 -4 -56 -9 0
-4 -6 -2 -13 5 -8 7 -17 46 -21 86 l-7 72 109 0 109 0 -4 -52z m187 42 c0 -5
-2 -10 -4 -10 -3 0 -8 5 -11 10 -3 6 -1 10 4 10 6 0 11 -4 11 -10z m40 6 c0
-2 -7 -6 -15 -10 -8 -3 -15 -1 -15 4 0 6 7 10 15 10 8 0 15 -2 15 -4z m144 -3
c-5 -5 -12 -12 -16 -18 -4 -6 -8 -2 -8 8 0 9 7 17 17 17 9 0 12 -3 7 -7z m53
1 c-3 -3 -12 -4 -19 -1 -8 3 -5 6 6 6 11 1 17 -2 13 -5z m624 -4 c27 -15 24
-24 -15 -54 -30 -23 -38 -25 -60 -14 -33 15 -33 21 5 52 34 29 42 31 70 16z
m-676 -40 c-4 -12 -9 -19 -12 -17 -3 3 -2 15 2 27 4 12 9 19 12 17 3 -3 2 -15
-2 -27z m-149 0 c0 -12 -4 -16 -9 -11 -5 5 -6 14 -3 20 10 15 12 14 12 -9z"/>
<path d="M1140 1451 c-16 -30 -12 -66 9 -85 18 -16 20 -16 35 6 l16 22 16 -22
c20 -29 30 -28 48 6 8 15 15 22 16 16 0 -5 6 -19 14 -30 14 -19 15 -18 35 5
27 31 27 63 0 87 -21 19 -21 18 -39 -4 -19 -23 -19 -23 -30 -2 -14 26 -37 26
-46 -2 l-7 -22 -17 22 c-22 27 -36 28 -50 3z"/>
<path d="M86 1388 c-21 -30 -20 -51 4 -79 l20 -24 19 22 19 23 15 -23 15 -22
22 20 c21 19 23 19 35 2 16 -22 32 -22 45 2 16 31 12 66 -10 86 -20 18 -21 18
-36 -3 l-15 -22 -20 22 -19 23 -19 -23 c-20 -23 -20 -23 -31 -2 -14 26 -25 25
-44 -2z"/>
<path d="M1113 1303 c-19 -10 -33 -25 -36 -40 -4 -23 -3 -24 31 -18 29 5 34 4
28 -10 -10 -26 27 -14 39 13 11 26 21 28 29 7 6 -17 42 -20 51 -5 10 16 28 11
21 -6 -5 -13 -2 -15 16 -11 12 4 27 2 33 -3 8 -6 21 -5 38 3 20 9 25 17 20 32
-7 24 -33 45 -53 44 -8 -1 -17 0 -20 1 -17 6 -58 6 -77 -1 -13 -5 -23 -5 -23
-1 0 14 -65 11 -97 -5z"/>
<path d="M120 1228 c-25 -4 -53 -5 -62 -2 -10 3 -18 1 -18 -5 0 -6 -9 -11 -20
-11 -26 0 -26 -31 0 -48 17 -10 26 -10 50 3 37 19 46 19 30 0 -17 -21 8 -20
38 1 12 8 22 10 22 5 0 -6 9 -11 21 -11 13 0 18 -4 13 -11 -5 -9 1 -10 22 -5
16 4 44 9 63 11 37 4 46 10 56 42 5 18 1 25 -17 32 -13 5 -37 7 -53 5 -68 -10
-94 -11 -97 -5 -2 4 -23 3 -48 -1z"/>
<path d="M382 1033 c4 -24 38 -26 38 -2 0 13 -7 19 -21 19 -14 0 -19 -5 -17
-17z"/>
<path d="M434 1041 c-10 -10 -3 -31 11 -31 8 0 15 6 15 13 0 7 3 8 8 2 4 -5
19 -11 35 -12 20 -2 27 3 27 15 0 14 -9 17 -46 17 -25 0 -48 -2 -50 -4z"/>
<path d="M550 1031 c0 -20 36 -25 43 -6 4 8 -4 15 -19 18 -17 3 -24 0 -24 -12z"/>
<path d="M648 1043 c-10 -2 -18 -11 -18 -18 0 -20 38 -14 43 7 5 18 4 19 -25
11z"/>
<path d="M703 1043 c-7 -3 -13 -10 -13 -17 0 -20 107 -19 115 1 3 9 3 18 0 21
-2 3 -7 -3 -11 -12 -3 -9 -10 -16 -15 -16 -4 0 -6 7 -3 15 5 11 0 13 -25 5
-16 -4 -31 -5 -33 -1 -2 5 -9 6 -15 4z"/>
<path d="M842 1040 c-44 -10 -27 -25 31 -27 31 0 57 3 57 8 0 5 5 9 11 9 5 0
7 -4 4 -10 -3 -5 -1 -10 4 -10 6 0 11 7 11 16 0 12 -7 15 -30 12 -16 -3 -30
-2 -30 2 0 7 -28 8 -58 0z"/>
<path d="M606 1031 c-4 -7 -5 -15 -2 -18 9 -9 19 4 14 18 -4 11 -6 11 -12 0z"/>
<path d="M362 962 c-9 -6 -12 -26 -10 -62 l3 -53 155 2 155 2 93 -46 c101 -49
114 -53 106 -30 -7 17 4 19 25 6 9 -6 10 -11 2 -15 -15 -10 -14 -26 2 -26 6 0
22 -10 33 -23 12 -12 33 -23 47 -25 24 -2 83 -29 412 -187 410 -198 420 -201
665 -208 80 -3 112 -8 133 -21 15 -11 54 -20 90 -23 52 -4 69 -1 108 20 45 24
49 24 275 23 l229 -1 3 -47 c3 -43 5 -48 28 -48 23 0 29 -10 25 -51 -3 -34 42
-39 368 -39 228 -1 326 3 345 11 43 20 63 65 68 154 l4 80 -45 2 c-105 3 -298
5 -378 2 -21 0 -53 2 -71 6 -19 5 -44 2 -63 -5 -24 -10 -38 -10 -70 0 -32 11
-46 11 -77 1 -34 -11 -43 -11 -72 4 -26 13 -38 15 -57 6 -13 -6 -59 -11 -101
-10 -75 1 -76 1 -44 15 17 8 32 16 32 19 0 5 -55 35 -65 35 -3 0 -5 -7 -5 -16
0 -14 -2 -14 -22 0 -25 18 -53 21 -43 6 9 -14 -1 -12 -35 5 l-30 16 0 -36 c0
-39 2 -40 32 -24 15 8 22 8 28 -1 6 -10 15 -10 39 -2 25 9 31 8 31 -4 0 -11
-22 -14 -119 -14 l-118 0 5 50 c3 34 -1 65 -12 95 -24 62 -32 62 -28 0 3 -47
0 -57 -22 -80 -24 -24 -31 -25 -136 -25 -105 0 -112 1 -136 25 -23 23 -25 33
-22 85 1 33 2 60 1 60 -2 0 -12 -19 -24 -41 -21 -42 -23 -110 -4 -152 7 -16 2
-18 -49 -16 -61 3 -73 13 -26 22 36 8 37 16 4 41 -21 15 -28 16 -34 5 -7 -11
-12 -10 -28 4 -21 19 -42 22 -42 7 0 -6 -12 -3 -26 6 -22 15 -27 15 -35 3 -12
-18 -11 -49 0 -49 5 0 22 5 36 10 24 9 26 8 21 -6 -5 -14 -1 -16 29 -11 27 5
35 2 35 -10 0 -36 -226 20 -380 94 -52 26 -97 47 -100 48 -3 0 -32 14 -65 29
-33 16 -91 43 -130 61 -68 32 -252 119 -405 194 -74 35 -74 36 -40 39 30 2 40
10 64 48 16 25 27 46 25 48 -28 24 -53 26 -100 11 -48 -16 -53 -16 -88 0 -35
15 -42 15 -82 2 -44 -15 -94 -13 -105 4 -8 14 -38 11 -74 -8 -28 -13 -38 -14
-64 -4 -49 20 -60 22 -74 13z m378 -42 c0 -5 -5 -10 -11 -10 -5 0 -7 5 -4 10
3 6 8 10 11 10 2 0 4 -4 4 -10z m163 -16 c-3 -8 -9 -14 -13 -14 -13 0 -22 19
-15 30 9 14 34 0 28 -16z m-393 -9 c0 -18 -27 -26 -39 -11 -7 9 -7 16 0 23 14
14 39 6 39 -12z m-95 -14 c3 -5 1 -12 -5 -16 -5 -3 -10 1 -10 9 0 18 6 21 15
7z m255 -6 c0 -8 -7 -15 -15 -15 -8 0 -15 7 -15 15 0 8 7 15 15 15 8 0 15 -7
15 -15z m144 -16 c-8 -14 -34 -11 -34 4 0 8 3 17 7 20 9 9 34 -13 27 -24z
m-69 -9 c3 -5 -1 -10 -10 -10 -9 0 -13 5 -10 10 3 6 8 10 10 10 2 0 7 -4 10
-10z m335 -150 c0 -5 -2 -10 -4 -10 -3 0 -8 5 -11 10 -3 6 -1 10 4 10 6 0 11
-4 11 -10z m195 -90 c3 -6 -1 -13 -10 -16 -19 -8 -30 0 -20 15 8 14 22 14 30
1z m235 -110 c0 -5 -7 -10 -16 -10 -8 0 -12 5 -9 10 3 6 10 10 16 10 5 0 9 -4
9 -10z m218 -118 c2 -7 -6 -12 -17 -12 -21 0 -27 11 -14 24 9 9 26 2 31 -12z
m202 -32 c0 -5 -2 -10 -4 -10 -3 0 -8 5 -11 10 -3 6 -1 10 4 10 6 0 11 -4 11
-10z m214 -21 c-3 -5 -10 -7 -15 -3 -5 3 -7 10 -3 15 3 5 10 7 15 3 5 -3 7
-10 3 -15z m206 17 c0 -3 -4 -8 -10 -11 -5 -3 -10 -1 -10 4 0 6 5 11 10 11 6
0 10 -2 10 -4z m90 -6 c0 -5 -7 -10 -16 -10 -8 0 -12 5 -9 10 3 6 10 10 16 10
5 0 9 -4 9 -10z m130 0 c0 -5 -5 -10 -11 -10 -5 0 -7 5 -4 10 3 6 8 10 11 10
2 0 4 -4 4 -10z m465 0 c-3 -5 -10 -10 -16 -10 -5 0 -9 5 -9 10 0 6 7 10 16
10 8 0 12 -4 9 -10z m-180 -9 c3 -5 1 -12 -5 -16 -5 -3 -10 1 -10 9 0 18 6 21
15 7z m825 -5 c0 -8 -5 -18 -10 -21 -13 -8 -42 14 -34 26 9 15 44 10 44 -5z
m-1430 -6 c0 -5 -4 -10 -10 -10 -5 0 -10 5 -10 10 0 6 5 10 10 10 6 0 10 -4
10 -10z m485 0 c3 -5 1 -10 -4 -10 -6 0 -11 5 -11 10 0 6 2 10 4 10 3 0 8 -4
11 -10z m210 -10 c3 -5 1 -10 -4 -10 -6 0 -11 5 -11 10 0 6 2 10 4 10 3 0 8
-4 11 -10z m309 -15 c3 -9 -1 -18 -10 -22 -19 -7 -39 11 -30 26 10 16 33 13
40 -4z m166 5 c0 -5 -4 -10 -10 -10 -5 0 -10 5 -10 10 0 6 5 10 10 10 6 0 10
-4 10 -10z m-1090 -20 c0 -5 -5 -10 -11 -10 -5 0 -7 5 -4 10 3 6 8 10 11 10 2
0 4 -4 4 -10z m780 0 c0 -5 -7 -10 -15 -10 -8 0 -15 5 -15 10 0 6 7 10 15 10
8 0 15 -4 15 -10z m67 -34 c-4 -9 -13 -13 -22 -10 -18 7 -20 31 -2 37 17 6 31
-9 24 -27z m318 14 c0 -7 -6 -15 -12 -17 -8 -3 -13 4 -13 17 0 13 5 20 13 18
6 -3 12 -11 12 -18z m-135 -10 c0 -21 -24 -28 -35 -10 -8 14 3 30 21 30 8 0
14 -9 14 -20z m64 -21 c-3 -5 -10 -7 -15 -3 -5 3 -7 10 -3 15 3 5 10 7 15 3 5
-3 7 -10 3 -15z m226 12 c0 -6 -4 -13 -10 -16 -5 -3 -10 1 -10 9 0 9 5 16 10
16 6 0 10 -4 10 -9z m-83 -47 c-9 -9 -28 6 -21 18 4 6 10 6 17 -1 6 -6 8 -13
4 -17z m-209 -2 c2 -7 -3 -12 -12 -12 -9 0 -16 7 -16 16 0 17 22 14 28 -4z
m140 -5 c2 -12 -3 -17 -17 -17 -12 0 -21 6 -21 13 0 31 32 34 38 4z m-432 -24
c-10 -10 -19 5 -10 18 6 11 8 11 12 0 2 -7 1 -15 -2 -18z m124 7 c0 -5 -4 -10
-10 -10 -5 0 -10 5 -10 10 0 6 5 10 10 10 6 0 10 -4 10 -10z m90 -28 c0 -13
-12 -22 -22 -16 -10 6 -1 24 13 24 5 0 9 -4 9 -8z"/>
<path d="M1112 765 c-16 -35 -16 -35 23 -35 26 0 33 -3 29 -15 -5 -12 2 -15
31 -15 32 0 36 -2 25 -15 -11 -13 -7 -15 29 -15 l42 0 -18 30 c-19 32 -28 37
-36 18 -6 -13 -12 -7 -37 32 -8 13 -11 13 -19 1 -7 -11 -12 -8 -26 13 -22 32
-29 33 -43 1z"/>
<path d="M1774 745 c-11 -28 3 -43 40 -42 20 1 36 5 36 10 0 4 6 5 13 0 6 -4
42 -8 79 -9 37 0 71 -3 74 -7 3 -3 16 -2 29 3 13 5 25 7 28 4 2 -3 7 4 10 16
6 23 11 23 -147 20 -60 -1 -119 -6 -132 -11 -15 -5 -24 -5 -24 1 0 6 7 10 15
10 8 0 15 5 15 10 0 16 -30 12 -36 -5z"/>
<path d="M32 731 c-18 -11 -11 -51 10 -65 14 -8 22 -7 35 7 15 15 16 19 3 27
-8 5 -18 6 -23 3 -5 -3 -3 -9 4 -14 11 -7 10 -9 -3 -9 -12 0 -18 8 -18 21 0
17 5 20 21 16 13 -3 19 -1 16 6 -5 15 -28 19 -45 8z"/>
<path d="M368 729 c-2 -7 -18 -13 -34 -14 -24 0 -29 -4 -29 -25 0 -35 41 -41
54 -8 l10 23 1 -25 2 -25 8 25 c7 23 8 23 9 3 1 -27 41 -28 41 -1 0 26 18 22
23 -4 3 -16 5 -13 6 11 1 30 -1 33 -24 29 -17 -4 -25 -1 -25 8 0 8 -4 14 -10
14 -5 0 -10 -6 -10 -12 0 -10 -3 -9 -9 1 -7 11 -9 11 -13 0z m-28 -39 c0 -5
-4 -10 -10 -10 -5 0 -10 5 -10 10 0 6 5 10 10 10 6 0 10 -4 10 -10z"/>
<path d="M566 724 c-3 -9 -6 -28 -5 -42 0 -24 1 -25 9 -7 8 19 8 19 16 1 7
-18 8 -18 21 0 12 16 13 16 13 1 0 -9 5 -17 10 -17 6 0 10 5 10 11 0 8 5 8 15
-1 12 -10 18 -10 30 0 12 10 19 10 27 2 15 -15 48 -15 48 -1 0 8 5 8 15 -1 21
-18 47 -5 43 22 -3 26 -36 37 -49 16 -6 -9 -9 -7 -9 10 0 12 -4 22 -10 22 -5
0 -10 -4 -10 -10 0 -5 -6 -10 -14 -10 -8 0 -17 -6 -20 -12 -5 -10 -7 -10 -12
0 -8 18 -41 15 -53 -5 -9 -15 -10 -14 -11 10 0 33 -13 35 -28 5 l-11 -23 0 23
c-1 25 -16 29 -25 6z m114 -34 c0 -5 -4 -10 -10 -10 -5 0 -10 5 -10 10 0 6 5
10 10 10 6 0 10 -4 10 -10z m60 0 c0 -5 -4 -10 -10 -10 -5 0 -10 5 -10 10 0 6
5 10 10 10 6 0 10 -4 10 -10z"/>
<path d="M104 705 c-8 -21 2 -45 20 -45 14 0 29 37 20 52 -8 13 -34 9 -40 -7z"/>
<path d="M161 688 c1 -24 3 -27 6 -10 5 27 23 29 23 2 0 -22 15 -27 23 -7 4
10 6 10 6 0 1 -19 28 -16 40 5 10 16 10 16 11 -1 0 -25 17 -12 22 18 4 17 1
25 -8 25 -8 0 -14 -5 -14 -10 0 -6 -8 -5 -20 2 -17 11 -22 10 -31 -2 -8 -11
-12 -12 -16 -2 -2 6 -13 12 -24 12 -15 0 -19 -7 -18 -32z"/>
<path d="M476 712 c-10 -16 1 -67 16 -70 21 -4 40 23 36 50 -3 23 -41 38 -52
20z m34 -22 c0 -5 -4 -10 -10 -10 -5 0 -10 5 -10 10 0 6 5 10 10 10 6 0 10 -4
10 -10z"/>
<path d="M3877 686 c-6 -15 -10 -16 -22 -6 -13 10 -19 10 -33 -4 -24 -21 -36
-21 -28 0 5 14 4 15 -9 4 -9 -7 -18 -10 -22 -6 -7 6 -39 -35 -36 -46 1 -3 -5
-5 -15 -3 -9 1 -16 8 -14 14 2 9 -3 9 -17 2 -14 -8 -21 -8 -24 2 -2 6 -6 -9
-8 -35 l-4 -48 32 0 c25 0 33 5 36 23 l4 22 2 -22 c1 -21 6 -23 60 -23 36 0
61 -5 63 -12 3 -7 43 -12 122 -13 104 -1 118 1 127 17 5 10 21 18 34 18 22 0
25 4 25 38 0 25 -3 33 -9 23 -5 -7 -14 -11 -20 -7 -6 4 -20 2 -32 -5 -20 -10
-21 -9 -15 7 6 15 5 17 -5 7 -21 -21 -29 -15 -19 13 7 16 7 23 0 19 -6 -3 -10
1 -10 11 0 13 -3 14 -14 5 -11 -10 -17 -8 -25 6 -11 17 -11 17 -10 -2 4 -63
-1 -80 -24 -80 -22 0 -23 3 -19 50 5 50 5 50 -16 32 -15 -14 -21 -15 -25 -5
-3 8 -6 5 -7 -7 -2 -17 -3 -16 -9 5 -6 22 -8 23 -14 6z"/>
<path d="M990 666 c0 -17 104 -180 107 -169 3 7 -15 42 -38 80 -44 71 -69 103
-69 89z"/>
<path d="M1866 655 c-11 -9 -24 -11 -29 -6 -9 9 -73 -1 -69 -12 1 -4 2 -11 2
-16 0 -5 27 -9 59 -9 57 1 59 2 63 29 5 33 1 35 -26 14z"/>
<path d="M1910 644 c0 -27 3 -29 35 -30 27 0 35 4 35 18 0 12 -7 18 -23 18
-13 0 -28 5 -35 12 -9 9 -12 5 -12 -18z"/>
<path d="M1988 665 c-3 -3 -3 -16 -1 -29 4 -22 10 -23 69 -23 35 0 64 4 64 9
0 4 1 11 3 16 1 4 -13 8 -31 9 -18 1 -39 6 -46 13 -11 8 -15 8 -18 -2 -4 -10
-8 -11 -20 -1 -8 7 -17 11 -20 8z"/>
<path d="M21 615 c1 -22 15 -40 32 -41 9 -1 17 4 17 11 0 7 2 19 5 27 4 9 -4
13 -25 13 -16 1 -30 -4 -29 -10z"/>
<path d="M120 621 c0 -5 -8 -8 -17 -7 -12 1 -18 -6 -18 -19 0 -17 7 -20 58
-21 53 -1 57 0 57 21 0 19 -5 22 -30 19 -16 -2 -30 1 -30 6 0 6 -4 10 -10 10
-5 0 -10 -4 -10 -9z"/>
<path d="M220 602 c0 -24 4 -28 28 -28 15 1 33 5 40 9 7 5 12 4 12 -2 0 -12
32 -2 42 13 5 7 8 4 8 -7 0 -10 5 -17 11 -15 6 2 10 7 10 11 -1 4 -1 13 -1 20
0 9 -17 12 -60 10 -33 -1 -60 2 -60 7 0 6 -7 10 -15 10 -10 0 -15 -10 -15 -28z"/>
<path d="M392 603 c3 -30 28 -45 28 -17 0 16 1 16 13 2 14 -18 77 -14 78 6 0
6 5 2 10 -9 8 -18 8 -18 6 5 -2 22 -6 24 -54 25 -28 0 -55 3 -59 8 -15 15 -25
6 -22 -20z"/>
<path d="M2195 620 c-13 -6 15 -9 80 -9 65 0 93 3 80 9 -11 5 -47 9 -80 9 -33
0 -69 -4 -80 -9z"/>
<path d="M577 612 c-20 -2 -27 -8 -25 -20 2 -9 11 -16 21 -16 9 1 17 -2 17 -7
0 -6 8 -5 19 1 14 7 20 7 23 -2 3 -8 9 -8 24 0 11 6 32 9 47 8 18 -2 27 2 27
10 0 8 1 17 3 21 3 10 -43 11 -49 1 -3 -4 -11 -5 -17 -1 -13 9 -48 10 -90 5z"/>
<path d="M1480 593 c-8 -15 -16 -31 -18 -35 -2 -5 12 -8 32 -8 27 0 34 -3 30
-15 -5 -12 2 -15 30 -15 27 0 34 -3 30 -15 -5 -12 2 -15 30 -15 41 0 44 8 15
41 -14 17 -22 20 -26 11 -3 -9 -13 -3 -28 18 -21 29 -24 30 -34 13 -6 -10 -11
-13 -11 -8 0 6 -8 20 -18 33 l-18 23 -14 -28z"/>
<path d="M2270 585 c-7 -8 -21 -15 -32 -15 -55 0 -88 -52 -63 -101 9 -16 23
-29 33 -29 15 0 18 9 18 60 l-1 60 63 0 62 0 0 -60 c0 -64 1 -63 -61 -60 -21
1 -40 -4 -44 -9 -3 -6 -11 -9 -16 -6 -5 4 -9 1 -9 -4 0 -6 7 -11 15 -11 8 0
15 5 15 10 0 6 16 10 35 10 19 0 35 -4 35 -10 0 -5 9 -10 21 -10 11 0 17 4 14
10 -4 6 5 20 19 31 45 36 22 119 -33 119 -10 0 -21 7 -25 15 -3 8 -12 15 -19
15 -8 0 -20 -7 -27 -15z"/>
<path d="M2091 567 c-13 -21 -12 -21 5 -5 10 10 16 20 13 22 -3 3 -11 -5 -18
-17z"/>
<path d="M250 531 c0 -4 -28 -7 -62 -6 -35 1 -69 -3 -75 -8 -7 -5 -13 -6 -13
-1 0 5 -18 10 -40 10 -35 1 -40 -1 -39 -20 0 -11 3 -15 6 -8 4 10 8 9 18 -5
13 -17 14 -17 29 2 12 16 15 17 16 5 0 -15 12 -17 68 -11 7 0 10 6 7 11 -3 6
-1 10 4 10 6 0 11 -5 11 -11 0 -6 6 -9 14 -6 8 3 17 3 21 -1 4 -4 19 -7 35 -7
21 0 30 5 33 22 3 15 -2 23 -15 26 -10 3 -18 2 -18 -2z"/>
<path d="M305 528 c-10 -25 -2 -41 20 -44 28 -4 48 15 34 32 -6 8 -16 11 -21
8 -6 -4 -14 0 -19 7 -6 11 -9 10 -14 -3z"/>
<path d="M380 512 c0 -27 2 -28 43 -27 24 1 49 5 55 9 6 3 13 2 17 -4 10 -16
50 -5 53 16 3 18 -4 19 -73 19 -41 -1 -75 3 -75 7 0 4 -4 8 -10 8 -5 0 -10
-13 -10 -28z"/>
<path d="M800 531 c0 -4 -28 -6 -62 -5 -35 1 -69 -3 -77 -10 -10 -8 -13 -8 -8
0 4 7 -7 10 -36 9 -33 -1 -43 -6 -45 -21 -2 -16 3 -20 23 -19 14 0 30 7 35 15
9 13 10 13 10 0 0 -18 41 -22 52 -6 5 7 8 6 8 -2 0 -7 5 -10 10 -7 6 4 8 11 5
16 -4 5 -1 9 4 9 6 0 11 -5 11 -11 0 -6 7 -9 15 -6 8 4 17 2 20 -4 8 -12 56
-3 67 13 12 20 10 25 -12 31 -11 3 -20 2 -20 -2z"/>
<path d="M3850 491 c0 -6 4 -13 10 -16 6 -3 7 1 4 9 -7 18 -14 21 -14 7z"/>
<path d="M4002 490 c2 -11 -10 -17 -42 -21 -43 -6 -42 -6 20 -8 49 -2 59 -5
40 -11 -21 -7 -19 -8 18 -9 31 -1 42 3 42 14 0 10 -10 15 -26 15 -15 0 -33 8
-41 18 -10 13 -13 13 -11 2z"/>
<path d="M4035 490 c-3 -5 -1 -10 4 -10 6 0 11 5 11 10 0 6 -2 10 -4 10 -3 0
-8 -4 -11 -10z"/>
<path d="M2942 479 c5 -4 -2 -9 -17 -13 -14 -4 -30 -4 -35 -1 -6 3 -7 -1 -4
-9 4 -9 -1 -18 -10 -22 -9 -3 -16 -10 -16 -16 0 -5 11 -1 25 10 50 39 95 43
442 40 183 -2 329 0 324 5 -4 4 -168 9 -363 10 -196 1 -352 -1 -346 -4z"/>
<path d="M1016 457 c9 -30 14 -34 23 -18 6 9 11 10 15 2 10 -15 56 -14 56 2 0
8 4 7 10 -3 8 -12 11 -13 19 -1 7 11 9 11 13 0 6 -17 38 -4 38 15 0 9 -11 14
-36 14 -19 0 -38 2 -40 5 -3 3 -19 1 -35 -3 -16 -5 -29 -5 -29 -1 0 4 -9 7
-20 8 -17 2 -20 -2 -14 -20z"/>
<path d="M1233 472 c-15 -2 -23 -10 -23 -22 0 -16 9 -18 80 -17 50 0 80 5 80
11 0 6 4 5 9 -3 11 -17 32 -6 25 13 -4 10 -24 13 -75 12 -38 0 -70 1 -71 4 -2
3 -13 4 -25 2z m17 -22 c0 -5 -4 -10 -10 -10 -5 0 -10 5 -10 10 0 6 5 10 10
10 6 0 10 -4 10 -10z"/>
<path d="M3678 465 c-3 -4 10 -22 30 -40 32 -29 39 -32 52 -20 8 8 29 19 45
26 23 9 26 13 13 16 -10 3 -32 -5 -49 -17 -16 -12 -33 -20 -36 -17 -9 10 6 38
19 36 7 -1 24 3 38 9 24 11 23 11 -10 9 -20 -1 -43 -10 -53 -22 -18 -20 -18
-20 -11 5 6 22 5 23 -9 12 -10 -9 -16 -9 -19 -2 -2 6 -6 8 -10 5z"/>
<path d="M3840 455 c0 -8 4 -15 10 -15 5 0 7 7 4 15 -4 8 -8 15 -10 15 -2 0
-4 -7 -4 -15z"/>
<path d="M4145 460 c19 -8 103 -14 94 -6 -2 2 -29 6 -59 9 -34 3 -47 2 -35 -3z"/>
<path d="M3878 453 c6 -2 18 -2 25 0 6 3 1 5 -13 5 -14 0 -19 -2 -12 -5z"/>
<path d="M27 444 c-4 -4 -7 -15 -7 -25 0 -19 40 -33 54 -19 13 13 -2 43 -18
37 -8 -3 -16 -1 -18 4 -2 6 -7 7 -11 3z"/>
<path d="M326 443 c-4 -5 -56 -8 -114 -8 l-107 -1 -3 -27 c-3 -22 1 -27 17
-27 12 0 21 4 21 8 0 5 25 8 55 8 30 -1 55 2 55 5 0 3 10 5 23 3 12 -1 22 -3
22 -4 0 -2 10 -4 23 -5 12 -1 22 2 22 8 0 5 7 4 16 -4 13 -10 17 -10 25 2 16
25 7 36 -25 30 -5 -1 -12 3 -16 9 -3 5 -10 7 -14 3z"/>
<path d="M446 441 c-4 -6 -11 -9 -16 -6 -9 6 -35 -23 -27 -31 9 -9 87 -10 87
-1 0 5 5 5 11 1 22 -13 152 -10 166 4 11 11 13 9 13 -10 1 -22 1 -22 15 -4 17
22 20 50 5 41 -5 -3 -16 -3 -22 2 -24 14 -38 11 -38 -8 0 -12 -7 -19 -17 -18
-11 0 -13 3 -5 6 6 2 12 9 12 15 0 6 -6 8 -14 5 -8 -3 -17 -1 -19 6 -3 9 -8 9
-19 -1 -13 -10 -17 -10 -21 0 -4 9 -8 10 -14 3 -10 -13 -76 -14 -84 -2 -4 5
-10 4 -13 -2z"/>
<path d="M1010 344 c0 -27 3 -29 35 -30 25 0 35 4 36 15 0 13 2 12 8 -2 4 -10
11 -18 16 -18 5 0 12 8 16 18 6 13 8 14 8 3 1 -19 51 -26 51 -7 0 8 4 7 10 -3
7 -11 10 -6 10 20 0 24 -3 31 -9 21 -5 -7 -13 -11 -19 -7 -6 3 -14 1 -18 -5
-5 -8 -9 -7 -14 2 -7 10 -11 10 -24 0 -10 -9 -16 -10 -16 -2 0 6 -11 8 -30 5
-18 -4 -36 -1 -45 6 -13 11 -15 8 -15 -16z"/>
<path d="M1220 342 c0 -24 4 -28 27 -27 18 0 29 6 31 18 3 15 -8 22 -30 18 -5
0 -8 4 -8 9 0 6 -4 10 -10 10 -5 0 -10 -13 -10 -28z"/>
<path d="M1304 351 c-2 -2 -4 -15 -4 -28 0 -16 4 -22 12 -17 17 11 128 12 128
2 0 -5 9 -4 21 2 11 6 19 19 17 28 -3 14 -17 16 -86 17 -46 0 -86 -2 -88 -4z"/>
<path d="M3044 82 c-16 -2 -20 -8 -17 -22 4 -16 15 -19 77 -18 61 0 72 3 73
18 1 12 -5 16 -23 14 -13 -1 -24 2 -24 7 0 6 -6 7 -12 2 -15 -9 -41 -10 -48
-3 -3 3 -15 4 -26 2z"/>
<path d="M3199 90 c0 -3 -2 -13 -4 -23 -3 -18 27 -41 39 -30 11 11 45 13 51 3
11 -17 35 2 35 27 0 21 -2 23 -14 13 -17 -14 -88 -11 -98 5 -4 5 -8 8 -9 5z"/>
<path d="M3334 65 c-1 -15 3 -25 12 -25 8 0 14 6 14 13 0 8 3 9 8 1 4 -6 50
-11 115 -12 96 0 108 1 105 16 -4 18 -35 23 -55 8 -7 -5 -13 -5 -13 0 0 5 -38
9 -85 9 -47 0 -85 3 -85 8 0 20 -15 4 -16 -18z"/>
</g>
</svg>
