<?xml version="1.0" standalone="no"?>
<!DOCTYPE svg PUBLIC "-//W3C//DTD SVG 20010904//EN"
 "http://www.w3.org/TR/2001/REC-SVG-20010904/DTD/svg10.dtd">
<svg version="1.0" xmlns="http://www.w3.org/2000/svg"
 width="250.000000pt" height="200.000000pt" viewBox="0 0 250.000000 200.000000"
 preserveAspectRatio="xMidYMid meet">
<metadata>
Created by potrace 1.16, written by Peter Selinger 2001-2019
</metadata>
<g transform="translate(0.000000,200.000000) scale(0.100000,-0.100000)"
fill="#000000" stroke="none">
<path d="M1155 1940 c-215 -24 -456 -148 -586 -301 -127 -150 -190 -289 -218
-476 -15 -99 -14 -163 5 -273 36 -208 135 -386 290 -520 29 -25 53 -48 53 -52
1 -5 -65 -8 -146 -8 l-148 -1 44 -40 44 -40 -43 -44 -44 -45 237 0 237 0 0
-40 0 -40 375 0 375 0 0 40 0 40 230 0 c129 0 230 4 230 9 0 5 -17 24 -38 42
l-39 33 41 41 41 40 -142 3 c-79 1 -143 5 -143 8 0 2 29 32 65 66 191 178 288
402 287 663 -1 166 -44 323 -131 469 -46 78 -170 208 -253 266 -173 121 -415
184 -623 160z m105 -42 c0 -17 -3 -19 -9 -9 -14 21 -20 -2 -12 -42 9 -39 6
-47 -18 -47 -13 0 -15 10 -13 52 3 41 1 50 -8 41 -7 -6 -19 -9 -28 -6 -10 4
-13 2 -8 -5 25 -41 10 -82 -29 -82 -20 0 -25 8 -33 47 -8 35 -7 50 1 55 8 5
15 -8 21 -43 11 -62 32 -60 29 4 -3 50 1 53 75 56 27 1 32 -2 32 -21z m79 13
c19 -12 -4 -72 -25 -64 -9 3 -14 -1 -14 -12 0 -13 6 -16 25 -11 19 5 23 3 19
-9 -4 -9 -19 -15 -38 -15 l-31 0 2 58 c1 31 2 58 3 60 1 6 47 1 59 -7z m-259
-26 c0 -9 -6 -12 -15 -9 -13 5 -13 0 -1 -39 8 -25 11 -48 8 -51 -9 -10 -34 -7
-28 3 3 5 0 26 -7 47 -9 24 -16 33 -21 26 -4 -7 -12 -10 -17 -7 -12 8 -12 5 6
-44 8 -22 10 -41 5 -41 -6 0 -13 0 -17 0 -5 0 -8 3 -9 8 -6 36 -18 72 -26 72
-5 0 -6 -5 -2 -11 4 -8 0 -9 -15 -4 -20 6 -20 5 -9 -22 6 -15 16 -33 21 -40
11 -15 1 -33 -19 -33 -8 0 -13 4 -9 10 3 5 -2 26 -11 47 -12 28 -18 33 -21 20
-5 -19 -23 -14 -23 7 0 7 28 21 63 31 34 11 64 22 67 26 5 6 34 14 68 18 6 0
12 -6 12 -14z m380 0 c16 -20 16 -61 0 -80 -20 -25 -63 -15 -74 17 -18 52 41
102 74 63z m91 -22 c11 -13 11 -17 2 -20 -7 -3 -13 -13 -13 -24 0 -10 -4 -19
-10 -19 -5 0 -10 5 -10 11 0 5 -4 7 -10 4 -5 -3 -10 -15 -10 -26 0 -21 -1 -22
-23 -13 -13 5 -13 9 -1 32 8 15 14 37 14 50 0 17 6 22 24 22 13 0 30 -7 37
-17z m124 -50 c48 -24 71 -41 68 -50 -3 -7 -10 -13 -15 -13 -6 0 -17 -8 -24
-17 -12 -16 -13 -16 -14 -2 0 9 7 19 15 23 8 3 15 10 15 16 0 5 -7 10 -15 10
-8 0 -15 -6 -15 -14 0 -7 -7 -19 -15 -26 -22 -19 -18 -30 11 -30 22 0 24 -2
14 -15 -11 -13 -15 -13 -41 1 -34 17 -34 18 -11 52 34 50 37 56 19 49 -10 -3
-17 -2 -17 3 0 6 -4 10 -9 10 -9 0 -37 -60 -33 -72 2 -9 -22 -11 -30 -2 -3 3
6 26 20 51 24 44 25 45 3 38 -20 -6 -28 4 -14 18 9 10 8 10 88 -30z m-807 -11
c2 -7 -2 -10 -12 -6 -9 3 -16 1 -16 -5 0 -6 11 -11 25 -11 18 0 26 -7 31 -26
8 -29 -7 -49 -30 -41 -24 9 -20 30 4 22 11 -3 20 -2 20 4 0 5 -14 12 -31 16
-32 7 -45 25 -35 51 7 18 37 15 44 -4z m-22 -109 c-2 -3 -18 3 -35 11 -41 22
-46 20 -27 -9 18 -27 20 -35 9 -35 -5 0 -18 16 -31 35 -21 33 -42 46 -42 25 0
-5 14 -25 30 -44 25 -28 28 -35 14 -40 -22 -8 -24 -8 -24 8 0 8 -13 26 -30 39
-16 14 -30 27 -30 29 0 3 13 14 30 26 28 21 32 22 66 7 45 -19 50 -15 23 14
-17 18 -19 25 -9 31 10 6 20 -6 37 -42 13 -28 21 -53 19 -55z m603 58 c248
-65 443 -256 523 -511 19 -63 23 -95 22 -205 -1 -112 -4 -141 -27 -210 -75
-227 -241 -395 -477 -482 -70 -26 -85 -28 -235 -28 -178 0 -212 7 -339 73
-129 67 -225 157 -299 279 -173 285 -128 653 109 886 128 127 246 186 444 221
49 9 206 -4 279 -23z m356 -14 c10 -8 15 -19 11 -25 -10 -17 -26 -15 -26 3 0
23 -28 18 -46 -10 -17 -27 -12 -45 14 -45 11 0 13 -3 5 -11 -14 -14 -53 5 -53
27 0 19 19 56 34 66 17 12 40 9 61 -5z m39 -33 c20 -8 21 -24 1 -24 -8 0 -15
-6 -15 -14 0 -25 18 -28 30 -5 12 21 12 20 40 -12 17 -19 27 -42 24 -51 -2
-10 -7 -28 -10 -40 l-6 -23 24 23 c13 12 28 19 31 15 11 -10 8 -23 -4 -23 -6
0 -25 -11 -41 -25 -34 -29 -51 -25 -38 9 14 37 22 106 12 106 -4 0 -21 -13
-37 -30 -31 -33 -27 -54 5 -25 11 10 22 16 25 13 3 -3 -1 -11 -10 -18 -8 -7
-15 -19 -15 -26 0 -21 -12 -17 -38 13 -20 24 -21 29 -8 39 9 6 16 16 16 23 0
16 -28 14 -37 -4 -5 -8 -13 -11 -21 -6 -10 6 -6 16 17 42 17 18 31 37 31 41 0
10 4 10 24 2z m-1163 -73 c43 -24 48 -30 34 -41 -13 -11 -18 -10 -30 6 -13 17
-14 17 -15 2 0 -9 6 -18 13 -21 9 -4 9 -7 0 -18 -7 -7 -14 -11 -15 -8 -19 29
-48 90 -48 98 0 16 5 14 61 -18z m-38 -83 c17 -13 19 -20 11 -28 -9 -9 -17 -7
-33 9 -12 12 -34 21 -51 21 -32 0 -38 11 -17 29 10 8 17 7 25 -1 16 -16 28 -2
13 16 -7 8 -9 20 -5 27 4 7 12 -1 21 -22 8 -19 24 -42 36 -51z m-56 -30 c33
-31 29 -52 -22 -136 -1 -1 -20 8 -43 20 -55 30 -66 15 -19 -28 20 -19 37 -38
37 -42 0 -4 -25 -7 -55 -7 -30 0 -55 3 -55 7 0 19 13 37 24 31 6 -4 20 -9 30
-10 19 -3 19 -3 1 17 -10 11 -22 17 -26 14 -16 -10 -9 16 18 69 47 93 68 105
110 65z m1424 -9 c25 -47 -57 -102 -95 -64 -21 21 -20 27 5 59 26 33 73 36 90
5z m36 -75 c1 -5 -15 -18 -37 -28 -64 -31 -52 -52 27 -47 33 3 53 -19 53 -57
0 -41 -56 -61 -91 -33 -21 17 -23 23 -13 49 10 26 9 29 -6 25 -11 -3 -19 2
-22 14 -3 10 -9 27 -14 37 -4 11 -4 17 2 14 5 -3 25 5 44 18 35 23 51 25 57 8z
m-1613 -163 c4 -5 24 -12 47 -16 30 -5 39 -11 35 -22 -3 -8 -6 -25 -6 -38 0
-16 -7 -25 -20 -27 -23 -3 -27 -24 -5 -22 18 2 17 -82 -2 -98 -19 -15 -29 -2
-13 17 7 9 10 19 6 22 -4 4 -18 -6 -31 -22 -20 -25 -27 -28 -42 -19 -25 15
-24 58 2 62 16 3 18 1 8 -9 -15 -15 -17 -29 -5 -29 5 0 14 12 20 26 9 19 17
24 32 19 33 -11 22 3 -25 31 -25 14 -43 29 -40 34 3 4 25 11 50 14 71 11 67
37 -6 40 -23 1 -29 6 -29 24 0 22 14 30 24 13z m1668 -38 c22 -20 23 -46 3
-63 -13 -11 -14 -8 -9 19 6 29 5 31 -23 31 -29 0 -53 -15 -53 -33 0 -5 11 -6
25 -3 20 5 25 3 25 -14 0 -27 -45 -28 -60 -1 -15 28 -13 38 12 61 26 24 55 26
80 3z m28 -104 c0 -10 -6 -19 -14 -19 -21 0 -31 -21 -15 -30 7 -5 17 -6 21 -4
4 3 8 -4 8 -15 l0 -20 -35 20 c-21 13 -42 18 -55 14 -16 -5 -20 -2 -20 14 0
15 6 21 23 21 13 0 35 10 48 23 27 26 39 25 39 -4z m-1655 -163 c15 6 16 4 6
-14 -6 -11 -8 -28 -5 -36 7 -18 -11 -22 -21 -5 -5 7 -14 4 -26 -7 -18 -16 -19
-16 -19 4 0 11 -4 23 -9 26 -5 4 0 17 12 31 19 21 24 22 33 10 7 -9 18 -13 29
-9z m1631 -16 c8 0 14 -4 14 -10 0 -5 -4 -10 -10 -10 -5 0 -10 -9 -10 -20 0
-24 -15 -27 -24 -5 -4 12 -10 13 -24 6 -16 -8 -18 -5 -18 25 0 23 4 33 12 30
7 -3 18 2 26 11 12 15 13 14 16 -5 2 -12 10 -22 18 -22z m-1029 -667 c3 -7 -4
-9 -16 -6 -12 3 -18 9 -15 15 7 11 26 6 31 -9z m73 -3 c0 -4 11 -27 25 -51
l24 -43 17 39 c10 22 17 48 16 58 0 9 6 17 14 17 8 0 14 -2 14 -5 0 -10 -65
-134 -70 -134 -8 0 -78 127 -73 133 7 7 33 -4 33 -14z m182 -50 l3 -70 -30 1
c-16 0 -24 3 -17 6 8 3 12 27 12 69 0 49 3 64 14 64 11 0 15 -18 18 -70z m188
44 c0 -12 -4 -12 -21 -4 -35 19 -49 6 -49 -49 0 -30 5 -51 13 -54 6 -3 -4 -5
-23 -5 -19 0 -29 2 -22 5 7 3 12 24 12 53 0 52 -16 68 -51 50 -20 -11 -22 -10
-14 12 8 20 155 12 155 -8z m-506 2 c-4 -10 8 -22 35 -36 42 -21 52 -45 29
-68 -7 -7 -19 -12 -27 -12 -11 0 -10 3 4 14 16 12 17 16 6 30 -7 9 -19 16 -26
16 -19 0 -48 38 -42 55 4 8 11 15 16 15 6 0 8 -6 5 -14z m15 -113 c2 -2 -5 -3
-17 -3 -14 0 -22 6 -22 16 0 14 3 15 18 3 9 -7 19 -15 21 -16z m1 -58 c0 -14
-4 -25 -10 -25 -11 0 -14 33 -3 43 11 11 13 8 13 -18z m322 0 c-2 -14 -9 -25
-14 -25 -6 0 -7 7 -4 16 3 9 6 20 6 25 0 5 4 9 9 9 4 0 6 -11 3 -25z m123 -4
c-7 -24 -35 -28 -35 -5 0 8 4 13 9 10 5 -3 12 1 15 10 9 24 19 10 11 -15z
m-365 2 c0 14 20 27 20 13 0 -30 -33 -48 -43 -23 -4 9 -8 8 -16 -3 -5 -8 -14
-11 -18 -6 -4 4 1 14 11 22 17 12 21 11 32 -4 13 -16 13 -16 14 1z m44 -7 c-6
-16 -24 -23 -24 -8 0 10 22 33 27 28 2 -2 1 -11 -3 -20z m56 10 c0 -7 -9 -16
-20 -19 -19 -5 -28 12 -13 26 11 12 33 7 33 -7z m41 -13 c-8 -15 -10 -15 -11
-2 0 17 10 32 18 25 2 -3 -1 -13 -7 -23z m47 10 c-3 -16 -38 -28 -38 -13 0 8
28 29 38 30 2 0 2 -7 0 -17z m92 10 c0 -5 -4 -15 -10 -23 -11 -18 -25 -7 -17
15 6 15 27 21 27 8z m40 -13 c0 -11 -7 -20 -15 -20 -8 0 -15 8 -15 18 0 14 2
15 10 2 8 -13 10 -12 10 3 0 9 2 17 5 17 3 0 5 -9 5 -20z"/>
<path d="M1305 1889 c-4 -6 -5 -13 -2 -16 7 -7 27 6 27 18 0 12 -17 12 -25 -2z"/>
<path d="M1417 1873 c-11 -10 -8 -73 3 -73 13 0 30 34 30 59 0 20 -19 28 -33
14z"/>
<path d="M1516 1844 c-4 -10 -1 -14 6 -12 15 5 23 28 10 28 -5 0 -13 -7 -16
-16z"/>
<path d="M1165 1750 c-75 -9 -204 -52 -270 -90 -163 -94 -286 -253 -336 -435
-18 -67 -21 -97 -17 -209 4 -108 9 -144 30 -204 52 -145 158 -283 281 -363
235 -154 548 -159 782 -14 69 43 177 143 216 201 146 214 163 494 46 729 -59
120 -161 224 -289 298 -119 69 -303 105 -443 87z m308 -43 c477 -154 645 -722
329 -1112 -48 -59 -132 -127 -215 -174 -65 -36 -143 -60 -244 -72 -472 -60
-869 360 -779 823 27 138 82 243 181 346 78 83 176 146 281 183 94 33 132 38
254 35 89 -3 133 -10 193 -29z"/>
<path d="M1191 1467 c-6 -6 -11 -15 -11 -20 0 -14 24 -32 43 -33 40 -3 42 -4
27 -17 -9 -7 -15 -23 -13 -37 1 -14 -9 -49 -23 -78 -13 -29 -24 -66 -24 -82
l0 -30 -109 0 c-104 0 -109 -1 -115 -22 -12 -45 -7 -55 29 -61 19 -3 56 -17
83 -30 l48 -24 18 43 c18 43 42 72 52 61 3 -3 -7 -28 -21 -57 -61 -120 -62
-235 -4 -338 96 -170 101 -191 70 -289 -12 -37 -25 -75 -28 -83 -12 -28 26 10
61 63 l33 49 172 -1 c129 0 171 3 171 12 -1 7 -7 44 -14 82 -8 39 -11 73 -8
77 4 3 27 10 52 15 38 7 46 13 53 40 9 29 2 45 -84 193 l-94 161 -58 -5 c-32
-3 -70 -13 -85 -21 l-27 -16 40 7 c22 5 58 8 80 8 l39 1 53 -124 c53 -125 55
-140 15 -141 -25 0 -151 -70 -216 -120 -37 -27 -69 -50 -70 -50 -2 0 -6 10 -9
22 -4 13 4 38 19 64 14 24 32 67 40 96 28 108 14 177 -61 289 -25 37 -49 84
-53 105 -9 45 0 110 24 160 20 41 38 52 59 34 12 -10 18 -10 30 0 19 16 1 54
-21 46 -9 -3 -12 -1 -9 4 9 14 -8 12 -24 -2 -9 -8 -11 -8 -8 -2 10 17 -23 27
-40 12 -8 -6 -13 -7 -12 -2 1 5 1 20 0 34 -1 20 -3 22 -11 10 -7 -12 -13 -13
-28 -3 -15 9 -22 9 -31 0z m79 -102 c-7 -8 -18 -15 -24 -15 -6 0 -2 7 8 15 25
19 32 19 16 0z m-1 -391 c57 -113 73 -193 51 -258 -6 -20 -15 -36 -18 -36 -8
0 -75 138 -97 199 -22 64 -18 229 5 204 5 -4 31 -53 59 -109z"/>
<path d="M1163 1433 c4 -5 -5 -16 -18 -23 -13 -7 -22 -17 -19 -22 3 -5 -2 -8
-12 -6 -11 2 -20 -4 -22 -14 -2 -13 3 -18 17 -18 12 0 21 5 21 10 0 6 11 15
25 20 26 10 34 43 13 56 -6 4 -8 3 -5 -3z"/>
<path d="M1315 1360 c-3 -5 -1 -10 4 -10 6 0 11 5 11 10 0 6 -2 10 -4 10 -3 0
-8 -4 -11 -10z"/>
<path d="M1290 1159 c0 -7 20 -35 44 -64 l45 -52 83 28 c86 30 92 36 73 87 -6
16 -245 17 -245 1z"/>
<path d="M871 925 c-44 -75 -81 -141 -81 -146 0 -5 -4 -9 -10 -9 -13 0 -13
-56 0 -81 6 -10 21 -19 33 -19 51 0 69 -11 64 -39 -3 -14 -9 -54 -13 -89 l-7
-62 187 0 c102 1 186 5 186 10 0 5 -21 37 -48 72 -58 78 -146 145 -237 183
-39 16 -73 31 -78 35 -8 6 90 241 105 251 8 5 81 -3 138 -16 15 -3 9 3 -15 14
-22 11 -63 23 -91 26 l-52 7 -81 -137z"/>
<path d="M520 1501 c0 -13 60 -45 68 -36 3 3 1 14 -4 23 -12 19 -64 29 -64 13z"/>
<path d="M495 1460 c-5 -9 50 -50 68 -50 18 0 4 27 -22 43 -34 20 -38 20 -46
7z"/>
<path d="M1940 1490 c-22 -22 -19 -40 6 -40 19 0 56 38 49 50 -10 16 -34 11
-55 -10z"/>
<path d="M2022 1324 c-12 -8 -22 -22 -22 -30 0 -19 30 -18 58 2 18 13 21 19
11 30 -15 18 -19 18 -47 -2z"/>
</g>
</svg>
