<?xml version="1.0" standalone="no"?>
<!DOCTYPE svg PUBLIC "-//W3C//DTD SVG 20010904//EN"
 "http://www.w3.org/TR/2001/REC-SVG-20010904/DTD/svg10.dtd">
<svg version="1.0" xmlns="http://www.w3.org/2000/svg"
 width="735.000000pt" height="791.000000pt" viewBox="0 0 735.000000 791.000000"
 preserveAspectRatio="xMidYMid meet">
<metadata>
Created by potrace 1.16, written by Peter Selinger 2001-2019
</metadata>
<g transform="translate(0.000000,791.000000) scale(0.100000,-0.100000)"
fill="#000000" stroke="none">
<path d="M0 3955 l0 -3955 3675 0 3675 0 0 3955 0 3955 -3675 0 -3675 0 0
-3955z m4378 3392 c6 -5 12 -7 12 -3 0 13 75 -26 127 -65 53 -40 53 -40 85
-23 61 31 218 7 328 -51 14 -7 77 -38 140 -69 63 -31 126 -65 140 -76 l25 -20
-35 14 c-19 8 -53 24 -75 34 -22 11 -56 23 -75 26 -27 6 -23 2 21 -17 30 -13
73 -36 95 -53 23 -16 59 -42 82 -59 23 -16 39 -35 37 -42 -2 -7 2 -10 10 -7
31 12 156 -141 305 -375 49 -77 90 -147 90 -154 0 -7 4 -17 9 -22 17 -18 86
-239 72 -230 -5 2 -21 41 -37 85 -15 44 -31 80 -35 80 -5 0 -5 7 -2 17 5 12 3
14 -7 8 -10 -6 -12 -4 -7 8 3 10 2 17 -4 17 -6 0 -7 5 -4 10 3 6 1 10 -6 10
-7 0 -9 -8 -4 -22 4 -13 9 -40 12 -60 3 -21 9 -36 13 -33 5 3 11 1 14 -4 4 -5
-1 -8 -10 -7 -11 2 -27 34 -48 97 -18 52 -38 105 -45 117 -7 13 -11 25 -9 28
2 2 17 -21 34 -51 16 -30 32 -55 36 -55 10 0 -56 124 -90 169 -15 20 -36 52
-46 71 -10 19 -29 46 -41 60 -12 14 -31 39 -41 55 -10 17 -21 32 -24 35 -3 3
-20 25 -38 49 -42 59 -41 44 3 -31 20 -33 34 -62 32 -64 -2 -2 -22 18 -45 45
-45 53 -160 146 -170 137 -3 -3 0 -6 6 -6 7 0 12 -5 12 -10 0 -6 -13 -4 -30 5
-61 32 -49 13 25 -36 42 -28 112 -86 154 -129 69 -68 86 -93 147 -215 38 -77
70 -130 72 -121 4 17 44 -89 103 -272 17 -52 28 -96 26 -99 -3 -2 -14 24 -25
59 -24 73 -118 294 -151 353 -12 22 -19 31 -16 20 27 -80 69 -194 100 -270 83
-204 135 -384 155 -538 12 -86 7 -133 -7 -67 -5 28 -8 31 -13 15 -4 -12 -10
14 -14 65 -7 75 -62 310 -101 425 -11 32 -14 35 -14 15 -1 -16 -20 20 -53 95
-28 66 -58 129 -66 140 l-14 20 7 -20 c4 -11 30 -77 56 -147 27 -70 52 -145
55 -168 4 -22 10 -40 14 -40 9 0 46 -127 60 -210 7 -36 18 -92 25 -125 10 -40
15 -142 17 -305 3 -270 0 -294 -64 -430 -38 -82 -66 -119 -120 -161 -45 -35
-44 -33 14 41 19 25 45 65 58 90 12 25 27 53 32 64 6 12 6 16 -1 12 -6 -4 -18
-22 -26 -40 -18 -37 -108 -141 -134 -156 -14 -7 -18 -5 -18 8 0 9 3 19 7 22 8
5 132 185 145 210 13 24 -7 1 -59 -67 -25 -34 -52 -65 -58 -69 -14 -9 -6 5 49
83 83 119 93 148 123 376 15 115 12 331 -5 433 -16 87 -61 240 -77 258 -4 5
-3 -6 2 -25 6 -18 10 -46 10 -61 0 -16 4 -28 8 -28 5 0 7 -15 6 -32 l-3 -33 8
30 c6 27 8 23 20 -40 37 -204 35 -441 -5 -615 -41 -175 -167 -342 -308 -409
-37 -18 -69 -31 -72 -29 -2 3 24 18 59 33 112 52 209 163 251 286 56 169 80
327 69 454 -9 100 -19 65 -23 -75 l-3 -95 -8 128 c-4 71 -10 131 -13 135 -3 3
-6 -6 -6 -19 0 -74 -32 -335 -50 -404 -40 -157 -84 -232 -177 -296 -61 -43
-65 -35 -8 15 28 24 58 59 69 77 l18 34 -32 -38 c-29 -34 -106 -84 -116 -74
-2 2 5 13 16 25 11 12 20 26 20 32 0 6 4 9 9 6 9 -6 40 25 67 69 l18 30 -25
-21 c-46 -40 -50 -36 -17 23 l33 58 -60 -60 c-58 -57 -65 -75 -43 -102 21 -26
-11 -13 -37 14 -25 28 -34 18 -15 -17 16 -31 -13 -15 -39 21 -12 17 -28 28
-34 26 -7 -2 -21 0 -32 6 -11 5 -3 -9 19 -31 31 -33 35 -40 17 -35 -11 3 -21
9 -21 14 0 14 -51 35 -117 49 -59 12 -113 10 -158 -5 -14 -5 -13 -2 4 8 23 14
22 15 -30 21 -52 6 -118 -9 -194 -45 -20 -10 -20 -10 0 7 11 9 38 25 60 35 22
10 33 19 25 19 -29 0 -120 -37 -143 -58 -39 -37 -54 -25 -17 13 19 19 57 44
85 55 41 15 45 19 23 19 -15 1 -48 -10 -73 -24 -54 -31 -58 -24 -9 19 l37 33
-37 -3 c-43 -4 -96 -38 -97 -62 0 -11 -2 -13 -6 -4 -3 9 -9 10 -17 3 -8 -7
-12 -3 -11 16 0 24 -4 26 -47 29 -38 2 -50 -1 -58 -16 -8 -15 -19 -18 -72 -14
l-63 4 53 -14 c29 -7 55 -16 58 -19 12 -12 -8 -27 -37 -27 -29 0 -29 0 -9 -20
14 -14 18 -28 14 -48 -5 -23 -1 -30 20 -41 23 -13 24 -15 9 -26 -10 -8 -12
-14 -5 -18 16 -11 2 -46 -21 -53 l-22 -7 23 -8 c30 -11 28 -25 -5 -43 -24 -12
-26 -15 -10 -21 25 -10 21 -30 -10 -45 l-28 -12 25 -11 c14 -6 26 -12 28 -13
2 -1 -4 -23 -12 -48 -20 -58 -22 -96 -4 -78 16 16 28 15 28 -3 0 -18 37 -20
42 -3 5 13 48 -25 48 -41 0 -10 -30 -25 -43 -22 -5 1 -6 -2 -3 -7 5 -8 0 -20
-46 -102 -14 -25 -28 -62 -32 -82 -26 -145 -60 -181 -171 -179 -55 1 -68 -3
-94 -25 -26 -22 -29 -28 -20 -51 18 -47 -16 -8 -44 50 -30 64 -89 120 -161
151 -44 20 -55 30 -61 55 -13 60 34 138 106 178 27 14 49 30 49 35 0 19 -146
-5 -230 -37 -47 -18 -102 -38 -123 -45 -21 -6 -50 -22 -65 -34 -15 -13 -49
-36 -75 -52 -81 -49 -175 -111 -187 -124 -3 -3 -19 -16 -36 -27 -25 -18 -31
-29 -32 -63 -1 -22 5 -57 13 -77 8 -19 15 -44 15 -55 0 -11 7 -27 16 -35 12
-13 15 -31 12 -80 -4 -66 -21 -100 -38 -73 -5 8 -6 18 -4 22 3 4 2 14 -3 21
-5 8 -9 2 -13 -17 -5 -30 -30 -49 -30 -23 0 28 -43 117 -56 117 -8 0 -14 5
-14 10 0 6 -5 10 -11 10 -7 0 -9 -11 -6 -29 4 -16 2 -43 -3 -60 -5 -19 -5 -31
1 -31 5 0 9 -47 9 -105 0 -63 -4 -105 -10 -105 -5 0 -10 4 -10 10 0 5 -4 9 -9
7 -14 -3 -71 36 -71 48 0 6 -13 22 -28 37 -16 15 -35 39 -43 55 -8 15 -31 54
-52 85 -20 31 -37 60 -37 63 0 7 -15 22 -44 45 -18 14 -19 13 -13 -3 9 -23 -9
-67 -27 -67 -7 0 -19 -6 -25 -14 -10 -12 -8 -16 11 -22 22 -7 21 -8 -12 -20
-31 -11 -32 -13 -10 -14 23 -1 23 -2 5 -10 -11 -5 -36 -9 -56 -9 -58 -1 -80
-40 -104 -182 -3 -20 -6 -73 -6 -116 -1 -73 2 -84 35 -139 19 -33 45 -85 56
-115 12 -30 31 -69 42 -87 11 -18 32 -61 47 -95 14 -34 56 -118 92 -187 37
-69 69 -136 72 -150 4 -14 19 -40 34 -59 35 -41 84 -129 163 -291 83 -170 113
-223 183 -324 50 -73 163 -242 170 -256 4 -8 16 -28 27 -45 16 -26 51 -85 87
-150 29 -52 65 -156 66 -191 0 -22 4 -45 10 -51 5 -7 7 -19 4 -27 -7 -19 -66
-31 -80 -17 -6 6 -21 11 -34 11 -13 0 -31 9 -40 20 -10 11 -24 20 -32 20 -7 0
-41 26 -75 59 -137 131 -159 151 -170 151 -6 0 -17 9 -24 20 -16 27 -32 25
-33 -2 0 -18 -5 -13 -20 20 -11 23 -24 42 -29 42 -4 0 -14 -13 -22 -30 -11
-26 -18 -30 -50 -30 -36 0 -38 -1 -38 -33 0 -19 -3 -37 -7 -41 -9 -8 -10 -20
-18 -106 -7 -83 -10 -97 -26 -116 -8 -9 -13 -19 -12 -20 7 -11 -13 -36 -48
-59 -33 -24 -46 -27 -91 -23 -56 5 -149 44 -184 77 -12 10 -39 28 -62 40 -22
11 -60 40 -85 63 -25 24 -60 54 -77 68 -18 14 -49 40 -69 58 -20 19 -46 40
-58 49 -13 8 -23 21 -23 28 0 17 -21 24 -54 18 -22 -5 -28 -1 -33 16 -3 11
-12 21 -21 21 -9 0 -31 14 -48 31 -22 21 -38 29 -50 25 -15 -6 -16 -17 -10
-92 5 -68 3 -96 -11 -137 -10 -29 -22 -54 -26 -56 -5 -1 -19 -15 -33 -30 -55
-59 -68 -70 -76 -65 -5 3 -29 49 -54 102 -69 147 -88 183 -96 188 -11 7 -10
-6 5 -57 10 -31 11 -53 4 -70 l-9 -24 -11 23 c-5 12 -14 22 -19 22 -4 0 -8 7
-8 15 0 9 -7 18 -15 22 -9 3 -15 13 -14 22 3 33 -1 41 -21 41 -11 0 -23 6 -26
14 -6 16 -30 -5 -83 -75 -19 -24 -52 -61 -73 -81 -21 -21 -35 -38 -31 -38 4 0
-17 -12 -46 -27 -30 -16 -56 -35 -58 -43 -2 -8 -9 -23 -14 -32 -5 -10 -9 -27
-9 -38 0 -11 -4 -20 -8 -20 -17 0 -44 -63 -46 -107 -2 -26 -8 -49 -14 -51 -7
-2 -12 -26 -12 -61 0 -31 -6 -65 -14 -76 -7 -11 -16 -32 -20 -47 -3 -16 -11
-28 -16 -28 -6 0 -10 -6 -10 -13 0 -7 -20 -17 -44 -23 -49 -11 -82 -2 -91 26
-3 10 -19 24 -36 31 -18 7 -38 26 -47 46 -9 18 -19 33 -24 33 -4 0 -16 17 -27
38 -11 21 -27 44 -36 52 -12 10 -13 15 -3 21 8 5 4 11 -14 19 -14 7 -35 29
-47 50 -12 21 -26 40 -32 42 -5 2 -14 19 -19 38 -5 19 -19 69 -31 110 -12 41
-24 95 -27 119 -2 25 -12 58 -22 75 -9 17 -23 49 -30 71 -8 22 -15 42 -16 45
-1 3 -5 15 -9 27 -4 13 -14 23 -21 23 -8 0 -14 5 -14 10 0 6 4 10 9 10 13 0
-5 61 -21 72 -10 6 -10 8 0 8 17 0 15 20 -3 34 -11 8 -17 40 -22 111 -7 85 -9
93 -14 55 l-6 -45 -1 51 c-1 28 -16 100 -32 160 -24 86 -37 114 -59 134 -15
14 -33 35 -40 47 -18 35 -1 110 47 208 l44 90 -13 70 c-8 38 -13 76 -13 83 1
7 -3 11 -10 9 -6 -2 -10 -13 -9 -23 1 -10 0 -13 -3 -6 -10 22 -20 13 -60 -58
-39 -70 -62 -93 -44 -44 6 14 8 30 4 35 -3 5 0 9 5 9 6 0 11 9 11 19 0 11 6
22 13 24 7 3 5 6 -5 6 -9 1 -24 -9 -32 -21 -13 -18 -16 -19 -16 -5 0 9 4 17 8
17 5 0 35 23 66 50 31 28 61 50 65 50 4 0 28 28 53 63 84 113 156 184 260 254
124 83 155 100 233 123 70 20 355 131 714 277 140 57 260 103 266 103 7 0 18
6 25 14 6 8 18 12 25 10 7 -3 23 4 34 15 12 12 31 21 44 21 23 1 87 52 87 70
0 6 4 9 8 6 5 -3 15 6 23 20 7 15 24 30 36 35 13 5 22 14 21 21 -2 7 3 12 10
10 15 -3 9 11 -16 41 -22 25 -3 40 47 35 38 -3 39 -3 23 15 -12 14 -17 41 -19
100 -2 45 -6 132 -9 192 -5 101 -4 108 10 91 9 -11 16 -24 16 -29 0 -4 4 -6 9
-3 4 3 11 -24 15 -60 4 -35 9 -79 11 -97 l5 -32 -14 35 c-8 19 -15 53 -17 75
-1 25 -3 31 -6 17 -8 -40 16 -157 46 -227 l28 -67 0 41 c0 22 -3 38 -7 36 -4
-3 -8 1 -7 8 0 6 -1 21 -2 32 -1 16 -3 17 -10 6 -7 -10 -9 -7 -8 12 1 15 5 27
8 27 3 0 29 -34 58 -75 28 -41 54 -75 57 -75 2 0 -7 20 -21 45 -26 47 -65 155
-65 177 1 7 7 2 14 -11 13 -23 13 -23 11 17 -1 23 -10 53 -20 68 l-18 27 39
-23 c36 -23 81 -28 125 -14 11 3 18 -3 22 -16 4 -17 1 -19 -21 -14 l-27 5 25
-15 c14 -8 47 -15 74 -16 46 0 48 -1 30 -15 -17 -13 -16 -14 15 -5 46 13 52 4
10 -14 -19 -9 -29 -15 -22 -16 20 0 83 33 83 44 0 6 3 28 7 50 l6 38 -24 -15
c-36 -22 -114 -30 -129 -12 -7 8 -17 15 -23 15 -5 0 -27 16 -49 36 -23 20 -46
33 -54 30 -8 -3 -13 -2 -10 2 2 4 -14 15 -36 24 -41 18 -41 18 -23 -2 20 -22
8 -28 -15 -7 -12 10 -12 9 -1 -5 7 -9 34 -25 59 -34 52 -19 74 -34 51 -34 -12
0 -12 -2 1 -11 11 -8 6 -9 -22 -6 -44 6 -111 51 -156 102 -18 20 -32 33 -32
29 0 -4 -14 13 -32 37 -17 24 -39 49 -48 56 -10 7 -27 34 -38 61 -19 44 -21
65 -18 188 4 168 20 226 102 364 31 52 70 122 86 155 17 33 37 64 44 70 18 13
97 166 90 173 -4 3 -6 -1 -6 -8 0 -7 -2 -11 -6 -8 -3 3 10 39 29 79 43 95 50
116 82 226 14 50 39 118 54 150 16 32 32 69 36 83 7 23 115 246 136 280 5 8
18 33 30 55 26 48 69 107 86 118 7 4 13 13 13 20 0 16 77 124 115 162 40 40
85 97 85 107 0 19 123 150 136 146 12 -4 144 94 144 107 0 6 9 16 20 23 12 7
18 17 15 22 -3 5 0 7 8 4 8 -3 18 0 23 7 5 8 3 10 -6 4 -9 -6 -11 -4 -6 4 5 7
14 10 22 7 18 -7 45 4 38 15 -3 5 3 6 12 2 12 -5 15 -3 9 6 -5 10 -2 11 14 6
13 -4 21 -2 21 5 0 6 5 8 10 5 6 -3 10 -1 10 5 0 6 6 10 13 9 20 -4 67 12 67
23 0 5 5 6 10 3 6 -3 10 1 10 9 0 9 8 16 18 17 44 1 77 9 80 18 2 5 10 7 18 4
8 -3 14 0 14 6 0 6 6 8 14 5 8 -3 25 0 38 8 13 7 30 13 38 14 8 1 43 9 78 18
35 9 90 16 122 16 32 0 62 5 65 11 9 13 204 10 223 -4z m1359 -1199 c-3 -7 -5
-2 -5 12 0 14 2 19 5 13 2 -7 2 -19 0 -25z m78 -157 l5 -36 -14 40 c-7 22 -16
58 -19 80 l-6 40 14 -44 c8 -25 17 -61 20 -80z m-88 17 c-3 -8 -6 -5 -6 6 -1
11 2 17 5 13 3 -3 4 -12 1 -19z m182 -583 c23 -93 44 -176 46 -184 3 -8 0 -11
-8 -8 -10 4 -12 -8 -11 -47 2 -28 6 -114 9 -191 3 -77 8 -156 12 -175 3 -19 3
-32 -1 -29 -18 17 -44 264 -47 448 -1 67 -5 138 -10 159 -17 79 -40 178 -46
197 -3 13 -2 17 5 10 5 -5 29 -86 51 -180z m-130 -67 c1 -64 -3 -119 -8 -122
-5 -3 -11 2 -13 12 -8 34 -9 213 -2 279 l8 68 7 -60 c4 -33 7 -113 8 -177z
m18 140 c-3 -7 -5 -2 -5 12 0 14 2 19 5 13 2 -7 2 -19 0 -25z m176 -423 c2
-72 0 -114 -4 -95 -10 50 -16 241 -7 232 4 -4 9 -66 11 -137z m-219 -32 c-18
-84 -34 -142 -49 -177 -19 -44 -30 -44 -15 0 5 16 22 68 36 117 25 83 41 118
28 60z m-808 -138 c51 -15 122 -64 94 -65 -8 0 -28 7 -43 15 -40 21 -125 45
-161 46 -27 0 -28 2 -11 9 30 13 66 12 121 -5z m-146 -55 c0 -5 -4 -10 -9 -10
-6 0 -13 5 -16 10 -3 6 1 10 9 10 9 0 16 -4 16 -10z m53 3 c-7 -2 -19 -2 -25
0 -7 3 -2 5 12 5 14 0 19 -2 13 -5z m1004 -35 c-3 -7 -5 -2 -5 12 0 14 2 19 5
13 2 -7 2 -19 0 -25z m-194 -30 c-10 -18 -21 -35 -24 -38 -3 -3 -18 -24 -32
-47 -24 -38 -80 -86 -159 -136 -51 -32 -40 -17 18 27 74 54 118 99 168 170 44
63 56 72 29 24z m-888 3 c22 -5 85 -12 140 -16 66 -5 93 -10 80 -16 -48 -19
-240 0 -290 29 -19 11 -19 11 5 11 14 0 43 -3 65 -8z m660 -27 c-33 -28 -65
-47 -65 -40 0 6 82 65 90 65 3 0 -8 -11 -25 -25z m413 -18 c-2 -25 -6 -42 -9
-38 -7 7 0 82 7 82 3 0 3 -20 2 -44z m-1245 7 c-7 -2 -21 -2 -30 0 -10 3 -4 5
12 5 17 0 24 -2 18 -5z m1234 -175 c-3 -7 -5 -2 -5 12 0 14 2 19 5 13 2 -7 2
-19 0 -25z m-1152 -2 c23 -20 145 -65 180 -66 16 0 17 -2 6 -9 -22 -14 -5 -41
27 -41 32 0 75 -28 55 -36 -21 -9 -15 -21 18 -34 40 -17 58 -46 68 -111 16
-95 -8 -145 -72 -156 -31 -5 -42 -1 -63 18 -14 13 -29 23 -32 22 -9 -3 -52 6
-78 17 -11 4 -41 25 -66 46 -58 50 -132 104 -177 129 -47 26 -51 50 -11 59 26
5 30 9 24 29 -5 24 17 44 36 32 5 -3 20 -1 35 5 l26 10 -29 42 c-16 24 -32 48
-35 55 -12 20 64 10 88 -11z m1444 -161 c9 -36 9 -38 -4 -21 -8 11 -15 31 -15
45 0 32 5 25 19 -24z m-1647 -92 c19 -23 30 -53 19 -53 -5 0 -12 -12 -15 -26
-9 -36 -114 -82 -130 -56 -7 12 29 110 49 132 22 25 57 26 77 3z m-728 -37
c16 -38 48 -63 110 -86 56 -21 92 -83 72 -122 -14 -27 -17 -59 -9 -116 3 -26
12 -36 45 -53 22 -11 50 -30 62 -40 11 -11 26 -17 34 -14 7 2 10 1 7 -4 -3 -5
3 -12 12 -14 12 -3 8 -5 -9 -6 -14 0 -46 8 -71 18 -141 61 -457 115 -469 81
-2 -6 -17 -8 -36 -4 -22 5 -31 11 -28 20 6 16 -10 19 -19 4 -12 -20 -25 -9
-50 43 -30 65 -30 66 -3 130 32 75 63 97 223 163 102 42 111 42 129 0z m-1539
-366 c3 -5 1 -10 -4 -10 -6 0 -11 5 -11 10 0 6 2 10 4 10 3 0 8 -4 11 -10z
m1520 -71 c28 -6 73 -19 100 -28 28 -10 75 -26 105 -35 31 -8 65 -22 75 -30
19 -14 19 -16 3 -45 l-16 -29 51 -14 c29 -7 64 -11 78 -10 14 2 38 -2 52 -7
21 -8 27 -8 27 4 0 18 68 15 75 -4 9 -22 -5 -29 -80 -41 -79 -13 -87 -17 -53
-25 22 -6 64 -1 168 20 14 3 41 7 60 11 31 5 33 4 15 -8 -32 -20 -87 -38 -121
-38 -18 0 -47 -7 -65 -15 l-34 -14 33 -1 c36 0 39 -7 16 -36 -11 -13 -17 -15
-20 -6 -9 21 -40 13 -53 -14 -6 -15 -15 -24 -18 -20 -3 3 -12 1 -20 -6 -11 -9
-15 -7 -20 11 -5 21 -6 21 -25 4 -14 -12 -21 -14 -26 -6 -11 17 -58 33 -100
33 -21 0 -52 4 -70 10 -29 8 -32 7 -22 -5 10 -12 9 -15 -4 -15 -10 0 -26 5
-36 10 -13 7 -21 7 -25 0 -4 -6 -11 -8 -16 -5 -5 4 -9 2 -9 -3 0 -15 -71 -22
-94 -10 -12 6 -31 20 -43 31 -41 37 -36 10 6 -36 30 -32 41 -53 41 -75 0 -38
12 -45 103 -62 45 -8 79 -21 102 -40 27 -21 51 -30 98 -35 84 -9 178 -26 199
-36 10 -5 33 -3 58 6 53 19 50 19 50 -4 0 -11 -10 -27 -22 -35 -12 -9 -18 -16
-13 -16 30 -2 -92 -51 -138 -56 -82 -10 -107 -1 -107 38 l0 31 -47 -6 c-27 -3
-64 -14 -83 -23 -50 -25 -183 -25 -230 0 -83 45 -220 164 -220 192 0 10 -9 34
-20 52 -11 18 -20 39 -20 47 0 8 -4 15 -10 15 -27 0 2 99 34 117 15 8 56 148
56 189 0 13 4 25 9 29 5 3 8 17 5 30 -2 14 -2 25 1 25 3 0 29 -25 59 -55 29
-30 58 -55 65 -55 7 0 9 5 6 10 -10 16 5 12 38 -12 17 -13 36 -23 42 -23 28
-2 94 -27 105 -40 7 -8 18 -15 24 -15 6 1 -2 12 -19 25 -23 19 -26 25 -12 25
9 0 25 -8 35 -18 14 -14 22 -16 35 -8 11 7 26 5 52 -7 33 -16 38 -16 58 -2 20
14 21 15 2 15 -42 0 -95 21 -95 37 0 13 -3 14 -12 5 -16 -16 -57 -15 -92 3
-21 11 -32 12 -42 4 -17 -14 -51 -3 -64 22 -6 10 -17 19 -25 19 -16 0 -55 47
-55 67 0 15 55 12 155 -8z m591 -17 c7 -4 -19 -8 -57 -8 -38 -1 -66 2 -63 7 6
11 104 12 120 1z m1697 -17 c-3 -13 -12 -30 -21 -37 -14 -11 -15 -10 -8 7 5
11 11 28 13 38 8 26 21 20 16 -8z m-3257 -32 c7 -10 14 -24 14 -32 0 -8 -9 -2
-20 12 -11 14 -20 28 -20 31 0 12 13 6 26 -11z m1372 -49 c33 -4 52 -11 52
-20 0 -22 -37 -35 -78 -29 -66 12 -72 15 -72 42 0 21 3 24 23 19 12 -3 46 -9
75 -12z m1746 -99 c-8 -13 -12 -30 -8 -36 4 -7 3 -9 -3 -6 -6 4 -35 -15 -64
-43 -30 -27 -74 -59 -99 -71 -52 -25 -162 -51 -170 -40 -3 4 -14 8 -25 8 -11
0 -36 3 -55 7 l-35 6 30 -11 c17 -6 80 -29 140 -51 61 -22 119 -44 130 -49 11
-4 103 -40 204 -79 200 -76 328 -151 426 -247 54 -53 235 -294 235 -312 0 -6
4 -11 9 -11 18 0 80 -285 95 -440 13 -130 19 -177 29 -200 6 -14 10 -28 9 -32
-1 -5 5 -8 14 -8 9 0 24 -10 35 -22 20 -25 25 -43 9 -33 -6 3 -7 -1 -4 -9 3
-9 10 -16 16 -16 5 0 6 -5 2 -12 -4 -6 -3 -8 4 -4 6 3 13 2 17 -4 4 -6 11 -8
16 -5 5 4 9 1 9 -4 0 -6 -4 -11 -10 -11 -5 0 -10 -5 -10 -11 0 -5 4 -8 9 -4 5
3 12 -3 16 -14 3 -11 12 -22 20 -25 9 -3 15 -18 15 -35 0 -20 6 -32 19 -36 13
-4 17 -12 13 -27 -3 -13 -1 -19 5 -15 6 4 13 -1 17 -11 3 -9 15 -32 26 -49 13
-22 15 -33 7 -33 -8 0 -7 -3 2 -9 17 -11 25 -51 10 -51 -5 0 -8 -4 -4 -10 3
-5 12 -7 21 -3 12 4 14 0 8 -22 -5 -21 -2 -32 12 -43 14 -10 16 -16 6 -19 -10
-4 -9 -9 4 -24 10 -11 15 -28 12 -44 -3 -14 -1 -25 3 -25 5 0 9 -17 9 -38 0
-21 5 -43 11 -49 14 -14 19 -63 5 -60 -6 1 -12 -8 -14 -20 -2 -13 0 -23 5 -23
5 0 10 -13 11 -30 1 -17 -3 -30 -9 -30 -7 0 -8 -4 -2 -12 5 -7 8 -28 8 -45 -1
-18 2 -33 6 -33 4 0 4 -14 -1 -31 -7 -23 -6 -31 6 -36 13 -5 13 -7 2 -15 -10
-7 -10 -11 5 -22 19 -15 24 -52 5 -40 -7 4 -8 3 -4 -4 11 -18 -4 -37 -16 -21
-7 10 -8 7 -4 -10 3 -14 0 -31 -6 -38 -8 -9 -7 -13 2 -13 8 0 10 -8 7 -21 -5
-20 8 -78 51 -219 48 -158 121 -429 127 -470 3 -25 8 -57 11 -73 l6 -27 -338
0 c-386 0 -365 -10 -194 95 95 58 200 107 258 120 27 5 31 10 29 36 -2 30 -17
42 -17 13 0 -11 -8 -14 -27 -12 -24 2 -28 8 -28 33 0 35 31 47 51 20 12 -16
13 -16 19 6 3 13 9 132 13 264 6 177 5 248 -4 270 -7 17 -16 40 -20 53 -7 18
-9 14 -10 -22 0 -25 3 -43 8 -40 4 3 8 -2 8 -11 0 -9 -5 -13 -11 -9 -6 3 -10
-1 -9 -12 1 -11 2 -37 1 -59 -1 -31 -4 -37 -12 -25 -9 12 -10 11 -6 -6 2 -12
1 -39 -3 -60 -6 -32 -8 -34 -9 -11 -1 38 -17 26 -26 -20 -4 -21 -18 -62 -32
-91 -14 -29 -22 -59 -19 -67 3 -8 1 -17 -5 -20 -5 -4 -7 -10 -4 -15 3 -5 1
-20 -5 -35 -8 -21 -15 -26 -31 -22 -15 4 -19 2 -15 -9 20 -49 21 -47 -10 -41
l-29 6 28 -12 c17 -7 27 -18 27 -32 0 -13 6 -22 15 -22 8 0 15 8 15 17 0 10 7
23 15 30 16 13 45 7 45 -9 0 -6 -7 -8 -15 -5 -9 4 -15 0 -15 -10 0 -9 7 -16
15 -16 8 0 15 -4 15 -10 0 -10 -16 -15 -35 -10 -11 3 -85 3 -100 0 -28 -6 -45
2 -45 20 0 17 4 18 25 10 34 -13 31 -4 -5 15 -17 9 -30 11 -30 5 0 -5 -15 -11
-32 -11 -28 -2 -29 -2 -8 -6 37 -7 45 -20 20 -33 -17 -9 -29 -9 -51 0 -16 7
-29 17 -29 22 0 5 -5 6 -10 3 -7 -4 -9 3 -5 22 l7 28 -14 -25 c-15 -27 -11
-35 27 -59 20 -12 20 -12 -1 -6 -14 4 -24 0 -28 -10 -4 -10 -19 -15 -53 -15
-46 0 -50 -12 -8 -24 11 -3 2 -3 -20 0 -22 2 -47 0 -55 -6 -11 -8 -9 -9 11 -4
15 3 30 1 33 -5 5 -7 -3 -11 -19 -11 -15 0 -24 -4 -20 -10 3 -5 -3 -10 -15
-10 -12 0 -33 -14 -47 -31 -18 -21 -28 -27 -33 -18 -6 8 -12 6 -21 -10 -16
-25 -32 -27 -49 -6 -7 8 -27 15 -44 15 -48 0 -75 10 -81 31 -4 10 -15 19 -26
19 -10 0 -19 5 -19 12 0 6 -10 22 -22 35 -19 20 -20 26 -8 33 10 6 7 10 -16
15 -63 13 -78 36 -28 46 l29 5 -32 5 c-26 4 -33 1 -42 -18 -17 -37 -91 -45
-91 -8 0 10 11 16 33 17 l32 1 -32 4 c-25 3 -34 10 -39 30 -9 34 6 56 42 64
24 6 25 7 6 8 -13 0 -31 -3 -41 -8 -20 -11 -31 -5 -54 31 -10 16 -26 28 -37
28 -13 0 -20 7 -20 20 0 15 -7 20 -27 20 -16 0 -35 5 -43 10 -13 8 -12 10 3
10 10 0 15 5 12 11 -4 6 -13 8 -21 5 -8 -3 -17 1 -20 9 -4 8 -19 15 -34 15
-19 0 -29 6 -33 19 -3 12 -18 22 -38 26 -19 4 -43 12 -54 18 -19 10 -19 10 0
18 12 5 3 6 -22 2 -36 -5 -43 -3 -43 11 0 13 -5 16 -21 11 -21 -7 -59 22 -59
45 0 5 -17 10 -39 10 -28 0 -40 5 -45 18 -3 9 -13 28 -21 42 -17 28 -20 100
-5 100 12 0 13 70 1 88 -7 12 -12 12 -30 1 -11 -8 -21 -21 -21 -30 0 -11 -16
-21 -46 -29 -33 -9 -52 -22 -63 -41 -16 -28 -46 -39 -102 -39 -26 0 -29 3 -29
35 0 19 -4 35 -9 35 -4 0 -27 27 -50 59 -44 63 -52 108 -32 175 33 108 74 234
83 253 6 12 11 33 11 47 0 13 6 27 13 30 8 3 14 17 14 31 0 14 4 25 9 25 5 0
12 17 16 38 3 20 13 47 21 60 8 13 12 32 9 42 -4 11 -2 20 3 20 16 0 92 183
92 222 0 9 6 21 14 25 8 4 19 31 25 58 5 28 15 72 21 99 8 38 7 52 -2 59 -10
7 -10 10 0 14 7 3 12 23 12 48 0 26 6 47 15 55 11 9 12 16 5 25 -8 9 -7 17 3
26 24 25 26 46 10 96 -8 26 -16 59 -18 73 -10 81 -30 180 -37 180 -4 0 -8 14
-8 30 0 17 -4 30 -9 30 -5 0 -12 23 -16 51 -4 29 -13 53 -21 56 -8 3 -14 16
-14 29 0 13 -4 24 -9 24 -4 0 -21 27 -37 60 -15 33 -34 60 -41 60 -7 0 -13 8
-13 19 0 10 -9 21 -20 24 -11 3 -24 16 -29 30 -14 37 -113 135 -119 117 -2 -8
-10 -29 -18 -47 -8 -17 -14 -54 -14 -82 0 -28 -7 -79 -16 -114 -57 -225 -92
-290 -160 -303 -56 -10 -58 4 -10 56 33 35 49 64 61 106 9 33 32 106 51 162
23 66 34 115 31 135 -5 39 10 97 26 97 8 0 7 4 -3 10 -12 7 -12 12 4 29 11 12
24 21 31 21 7 0 20 9 30 20 21 24 37 26 29 5 -7 -17 14 -48 26 -40 4 3 11 21
14 40 4 20 11 33 17 29 5 -3 16 -1 23 5 9 8 22 8 40 1 42 -16 59 -3 51 39 -3
20 -8 45 -10 56 -2 11 -6 32 -10 46 -4 18 -1 31 11 43 16 17 18 15 41 -46 13
-34 28 -67 34 -73 6 -5 3 7 -5 27 -9 21 -16 55 -16 76 0 36 3 40 40 57 l40 18
75 -35 c103 -49 187 -51 308 -9 123 42 153 58 200 107 48 50 54 54 31 19z
m-631 -30 c-3 -9 -8 -14 -10 -11 -3 3 -2 9 2 15 9 16 15 13 8 -4z m-200 -245
c-3 -12 -8 -19 -11 -16 -5 6 5 36 12 36 2 0 2 -9 -1 -20z m-386 -496 c10 -28
-26 -147 -63 -202 -28 -43 -47 -59 -100 -84 -54 -26 -72 -41 -105 -89 -21 -32
-47 -62 -56 -67 -21 -12 -57 -2 -132 38 -59 32 -60 33 -66 84 -9 69 -3 110 15
114 8 1 38 -13 67 -32 l52 -34 50 31 c58 38 148 109 245 194 39 34 75 62 79
62 4 1 10 -6 14 -15z m-4422 -98 c0 -13 -2 -27 -5 -30 -5 -4 -6 43 -1 52 4 8
7 -1 6 -22z m-25 -55 c0 -6 -4 -12 -8 -15 -5 -3 -9 1 -9 9 0 8 4 15 9 15 4 0
8 -4 8 -9z m-30 -31 c0 -5 -5 -10 -11 -10 -5 0 -7 5 -4 10 3 6 8 10 11 10 2 0
4 -4 4 -10z m-113 -142 c-3 -8 -6 -5 -6 6 -1 11 2 17 5 13 3 -3 4 -12 1 -19z
m4459 -31 c16 -18 20 -41 22 -138 l4 -116 -24 1 c-20 1 -24 8 -31 61 -5 33
-16 83 -25 112 -25 82 8 133 54 80z m-4466 -182 c11 -13 10 -14 -4 -9 -9 3
-16 10 -16 15 0 13 6 11 20 -6z m-7 -36 c3 -13 1 -19 -6 -16 -15 5 -22 37 -9
37 5 0 12 -9 15 -21z m4638 -31 c6 -11 8 -22 5 -26 -3 -3 1 -16 10 -30 9 -13
11 -21 5 -18 -6 4 -11 1 -11 -8 0 -8 5 -18 10 -21 34 -21 -13 -137 -58 -143
-13 -2 -20 -8 -15 -15 3 -6 -10 2 -30 17 -20 16 -37 25 -37 22 0 -15 53 -76
66 -76 16 0 45 -40 37 -53 -3 -5 -5 -55 -5 -110 0 -76 -6 -125 -24 -192 -13
-49 -24 -103 -25 -120 -1 -33 -36 -119 -39 -95 -1 8 -4 49 -6 91 -2 42 -6 89
-9 105 -7 36 -22 213 -35 404 -5 80 -11 168 -15 195 l-5 50 14 -35 13 -35 13
43 c8 24 26 54 42 67 24 21 32 22 58 13 17 -5 35 -19 41 -30z m-432 -190 c5
-13 20 -34 34 -47 14 -13 23 -29 21 -36 -4 -9 8 -14 40 -17 36 -2 46 0 47 12
1 8 5 -4 11 -27 5 -24 13 -43 18 -43 29 0 61 -140 58 -255 -2 -67 -2 -67 -5
-15 -2 30 -9 60 -15 65 -8 7 -9 5 -5 -8 7 -20 -8 -40 -52 -69 -27 -18 -101
-25 -101 -9 0 5 -19 11 -42 15 -51 8 -64 16 -47 27 10 6 4 9 -18 9 -22 0 -33
5 -33 15 0 8 -15 28 -34 45 -44 41 -50 79 -20 139 13 25 24 51 24 58 0 7 7 10
15 7 18 -7 20 12 3 20 -9 3 -8 8 5 16 9 6 17 16 17 22 0 24 42 98 56 98 8 0
18 -10 23 -22z m249 -658 c0 -14 -6 7 -14 45 -7 39 -12 84 -12 100 0 17 6 -4
14 -45 7 -41 13 -86 12 -100z m-3478 -1013 c0 -59 -86 -112 -149 -92 -67 21
38 116 137 124 7 1 12 -12 12 -32z m-409 -98 c48 -56 56 -69 41 -69 -20 0
-102 90 -102 112 0 19 20 5 61 -43z m128 11 c80 -71 125 -81 275 -66 41 5 46
3 36 -9 -19 -23 -117 -55 -169 -55 -27 0 -66 7 -87 16 -76 32 -184 119 -184
149 0 3 19 5 43 5 35 -1 50 -7 86 -40z m1971 -12 c0 7 13 12 30 12 17 0 30 -5
30 -12 0 -10 2 -10 8 0 11 17 71 -7 65 -25 -3 -9 10 -13 46 -13 37 0 51 -4 51
-14 0 -7 8 -16 18 -20 9 -3 31 -15 47 -26 17 -11 38 -23 48 -26 9 -4 17 -13
17 -20 0 -8 8 -18 18 -21 9 -4 27 -17 39 -30 12 -13 29 -23 38 -23 8 0 15 -8
15 -18 0 -9 12 -25 28 -34 26 -17 18 -17 -188 -16 -118 0 -203 3 -187 5 34 5
35 21 3 29 -14 3 -27 12 -30 20 -3 8 -17 19 -31 24 -14 5 -25 16 -25 23 0 8
-11 20 -25 27 -13 7 -22 16 -20 20 3 5 -3 28 -12 52 -17 47 -11 117 8 87 6 -9
9 -10 9 -1z m3330 -47 c0 -5 12 -12 28 -14 l27 -4 -26 -2 c-15 0 -32 6 -39 14
-9 10 -9 15 -1 15 6 0 11 -4 11 -9z m-25 -11 c3 -5 1 -10 -4 -10 -6 0 -11 5
-11 10 0 6 2 10 4 10 3 0 8 -4 11 -10z m263 -227 c-60 -2 -156 -2 -215 0 -60
1 -11 3 107 3 118 0 167 -2 108 -3z"/>
<path d="M4980 7066 c0 -5 119 -76 128 -76 4 0 -6 9 -23 21 -37 25 -105 61
-105 55z"/>
<path d="M4975 7001 c17 -10 41 -22 55 -25 23 -6 24 -6 5 5 -11 7 -22 12 -25
12 -3 0 -14 6 -25 13 -11 8 -24 14 -30 14 -5 0 4 -9 20 -19z"/>
<path d="M5191 6987 c16 -12 79 -45 79 -42 0 7 -63 45 -74 45 -5 0 -7 -1 -5
-3z"/>
<path d="M4070 6930 c-8 -5 -47 -21 -87 -36 -39 -16 -69 -32 -67 -36 3 -5 15
-3 27 4 12 7 27 13 32 13 6 1 27 9 47 18 21 9 41 17 45 17 4 0 17 7 27 15 22
17 3 20 -24 5z"/>
<path d="M5247 6919 c7 -7 15 -10 18 -7 3 3 -2 9 -12 12 -14 6 -15 5 -6 -5z"/>
<path d="M3941 6849 c-14 -5 -31 -7 -38 -4 -8 2 -12 1 -9 -4 3 -4 -11 -15 -32
-23 -133 -52 -291 -205 -429 -413 -48 -71 -114 -170 -147 -220 -33 -49 -52
-84 -43 -76 31 25 20 3 -87 -169 -49 -78 -60 -108 -25 -69 16 19 14 11 -9 -36
-55 -112 -66 -140 -48 -126 21 17 21 0 2 -38 -10 -19 -13 -44 -10 -77 7 -60
14 -71 13 -18 -3 79 70 287 145 414 8 14 38 68 67 120 124 225 237 394 328
491 89 94 143 134 299 221 64 36 74 48 23 27z"/>
<path d="M4270 6840 c-64 -6 -56 -7 64 -8 77 -1 137 0 135 2 -9 8 -127 12
-199 6z"/>
<path d="M5302 6766 c83 -82 152 -179 164 -231 7 -28 74 -176 69 -150 -4 17
-12 42 -19 56 -9 19 -10 32 -3 44 8 14 5 22 -12 36 -12 10 -21 21 -20 26 3 14
-14 47 -32 63 -9 9 -19 25 -21 35 -1 11 -11 27 -20 36 -10 9 -18 22 -18 29 0
7 -2 11 -5 9 -2 -3 -30 19 -62 48 -74 70 -92 69 -21 -1z"/>
<path d="M3715 6790 c-8 -13 5 -13 25 0 13 8 13 10 -2 10 -9 0 -20 -4 -23 -10z"/>
<path d="M3605 6712 c-60 -50 -200 -231 -245 -317 -9 -16 -35 -66 -59 -110
-23 -44 -36 -72 -28 -63 8 10 17 16 20 13 4 -3 5 -2 2 1 -2 4 7 20 21 37 14
16 34 47 45 68 10 21 46 79 79 128 33 50 60 93 60 96 0 12 91 124 112 139 12
9 20 18 17 20 -2 2 -13 -3 -24 -12z"/>
<path d="M3937 6674 c-16 -9 -27 -18 -24 -20 3 -3 20 4 38 15 39 24 28 28 -14
5z"/>
<path d="M3874 6634 c-18 -14 -18 -15 4 -4 12 6 22 13 22 15 0 8 -5 6 -26 -11z"/>
<path d="M3805 6595 c-39 -32 -29 -32 15 0 19 14 30 25 24 25 -5 -1 -22 -12
-39 -25z"/>
<path d="M3688 6558 c-105 -104 -208 -233 -248 -313 -46 -91 -26 -72 57 55 81
122 115 166 190 243 37 37 64 67 61 67 -3 0 -30 -24 -60 -52z"/>
<path d="M3714 6518 l-19 -23 23 19 c21 18 27 26 19 26 -2 0 -12 -10 -23 -22z"/>
<path d="M3510 6439 c0 -5 5 -7 10 -4 6 3 10 8 10 11 0 2 -4 4 -10 4 -5 0 -10
-5 -10 -11z"/>
<path d="M3456 6363 c-30 -58 -32 -64 -10 -38 27 32 58 94 51 102 -3 2 -21
-26 -41 -64z"/>
<path d="M3659 6403 l-24 -28 28 24 c25 23 32 31 24 31 -2 0 -14 -12 -28 -27z"/>
<path d="M3884 6386 c-73 -32 -151 -149 -174 -262 -18 -85 -9 -219 18 -278 12
-27 25 -46 29 -42 4 4 6 59 5 122 -2 63 1 114 6 114 5 0 22 28 37 63 15 34 37
72 49 85 24 27 115 81 154 91 l27 8 -30 15 c-16 8 -51 19 -78 22 -26 4 -45 11
-42 16 11 18 210 -6 323 -39 45 -13 31 6 -22 29 -52 23 -18 27 44 5 54 -19 62
-14 13 9 -118 52 -289 72 -359 42z"/>
<path d="M3646 6343 c-6 -14 -5 -15 5 -6 7 7 10 15 7 18 -3 3 -9 -2 -12 -12z"/>
<path d="M3560 6237 c-42 -56 -47 -67 -30 -67 6 0 10 7 10 15 0 8 5 15 10 15
6 0 10 5 10 11 0 6 12 26 26 45 15 19 24 34 21 34 -4 0 -24 -24 -47 -53z"/>
<path d="M5451 6287 c-1 -5 12 -41 28 -80 16 -40 37 -105 47 -144 9 -40 19
-71 23 -69 3 2 5 -15 3 -37 -1 -23 1 -69 6 -102 l10 -60 1 48 c2 76 18 54 25
-35 4 -46 11 -99 16 -118 l8 -35 1 40 c1 60 -25 227 -50 320 -18 70 -116 295
-118 272z m123 -377 c-5 -5 -10 3 -11 18 -1 22 0 24 9 8 6 -10 6 -22 2 -26z"/>
<path d="M3377 6231 c-4 -17 -3 -21 5 -13 5 5 8 16 6 23 -3 8 -7 3 -11 -10z"/>
<path d="M2969 6173 c-25 -38 -64 -117 -87 -178 -56 -148 -57 -152 -44 -140 5
6 29 62 53 125 23 63 54 133 69 155 28 42 63 105 57 105 -1 0 -23 -30 -48 -67z"/>
<path d="M5050 6226 c0 -4 10 -11 23 -16 17 -7 9 -9 -35 -9 -31 -1 -60 -5 -63
-11 -4 -6 7 -10 24 -10 36 0 40 -13 9 -27 -20 -9 -18 -11 25 -17 37 -6 50 -13
57 -30 5 -13 16 -26 24 -29 9 -4 16 -13 16 -20 0 -8 7 -20 15 -27 9 -7 13 -20
10 -28 -3 -8 -8 -34 -11 -59 -2 -24 -19 -71 -35 -104 -32 -63 -31 -72 11 -106
12 -10 6 -12 -32 -13 -56 0 -60 -9 -18 -33 37 -23 39 -55 5 -95 -14 -17 -25
-38 -25 -47 0 -18 -17 -18 -90 4 -93 26 -93 25 7 -22 13 -6 21 -13 18 -15 -3
-3 13 -18 35 -34 44 -33 52 -66 24 -106 -14 -21 -14 -23 9 -33 17 -8 23 -17
20 -30 -11 -42 35 -56 97 -31 34 13 116 97 146 147 27 47 64 149 64 178 0 16
-4 15 -29 -12 -16 -17 -33 -31 -37 -31 -4 0 2 10 13 23 44 47 63 91 62 142 -1
65 -14 144 -21 125 -3 -8 -15 -41 -27 -73 -11 -32 -34 -72 -51 -90 l-31 -32
26 46 c66 120 81 235 45 331 -25 66 -84 146 -128 171 -31 18 -152 37 -152 23z"/>
<path d="M3500 6158 c0 -6 -8 -21 -17 -32 -17 -20 -17 -20 0 -7 22 17 21 14
-3 -37 -26 -54 -41 -92 -35 -92 2 0 18 30 35 68 17 37 35 74 40 83 9 17 4 29
-12 29 -4 0 -8 -5 -8 -12z"/>
<path d="M3302 6093 c-65 -104 -123 -214 -120 -225 2 -6 19 15 38 48 47 82
120 224 116 224 -2 0 -17 -21 -34 -47z"/>
<path d="M3117 5988 c-30 -62 -64 -139 -77 -171 -12 -32 -25 -56 -27 -53 -3 2
1 14 7 26 6 12 9 24 7 27 -22 21 -67 -291 -47 -325 7 -12 10 3 10 53 0 93 22
179 66 268 68 135 86 172 89 182 1 6 7 21 12 35 45 111 21 86 -40 -42z"/>
<path d="M3362 6018 c-25 -40 -54 -110 -48 -115 2 -2 20 28 40 68 38 75 43
104 8 47z"/>
<path d="M2881 5849 c-12 -29 -20 -54 -18 -56 2 -2 14 20 26 48 12 29 20 54
18 56 -2 2 -14 -20 -26 -48z"/>
<path d="M3311 5873 c-46 -88 -57 -257 -23 -356 12 -36 14 -53 6 -50 -10 4
-27 36 -48 93 -3 8 -3 -3 0 -25 5 -41 47 -115 63 -115 6 0 13 -9 16 -21 5 -16
9 -18 21 -8 10 8 12 15 4 23 -5 5 -10 38 -10 72 0 35 -4 66 -10 69 -5 3 -10
-1 -10 -9 0 -31 -18 -15 -25 22 -14 76 -7 217 14 271 20 49 21 69 2 34z"/>
<path d="M3406 5841 c-3 -21 -13 -44 -22 -51 -10 -9 -13 -22 -9 -37 3 -13 1
-23 -5 -23 -13 0 -13 -71 1 -107 6 -15 12 -41 15 -57 2 -15 13 -42 25 -60 11
-17 18 -22 14 -11 -34 92 -46 238 -25 290 14 35 25 95 18 95 -3 0 -8 -17 -12
-39z"/>
<path d="M5627 5804 c3 -27 7 -51 9 -53 8 -9 3 75 -5 88 -5 8 -7 -5 -4 -35z"/>
<path d="M2828 5730 c-4 -14 -9 -36 -13 -50 -4 -16 0 -12 10 9 9 19 14 42 12
50 -2 10 -5 7 -9 -9z"/>
<path d="M5457 5633 c-3 -65 -13 -143 -22 -173 -24 -78 -98 -210 -153 -271
-43 -48 -44 -51 -15 -36 70 37 152 159 180 267 13 53 31 330 21 330 -3 0 -8
-53 -11 -117z"/>
<path d="M2731 5514 c-35 -139 -52 -316 -32 -328 5 -3 12 -17 15 -32 8 -29 57
-107 64 -100 2 3 -5 18 -17 34 -11 16 -25 49 -30 73 -16 66 -13 234 4 318 18
82 14 108 -4 35z"/>
<path d="M3106 5490 c4 -36 13 -78 22 -95 l15 -30 -22 19 c-25 23 -28 10 -4
-24 16 -22 16 -23 -1 -17 -34 13 16 -40 71 -75 28 -18 50 -34 49 -35 -1 -2
-17 1 -34 6 -18 5 -32 7 -32 5 0 -10 90 -45 100 -39 6 3 10 2 10 -3 0 -13 68
-87 74 -81 3 3 -6 18 -19 33 -29 34 -31 68 -9 121 19 46 1 37 -27 -13 l-20
-37 6 42 5 43 -57 26 c-72 33 -89 55 -114 146 l-19 73 6 -65z"/>
<path d="M5712 5374 c-1 -67 -9 -161 -17 -209 -19 -108 -13 -123 10 -23 11 53
15 111 13 213 l-4 140 -2 -121z"/>
<path d="M5340 5421 c-29 -64 -79 -112 -160 -156 -57 -30 -61 -35 -36 -35 34
0 121 48 157 87 23 25 74 141 66 149 -2 2 -14 -18 -27 -45z"/>
<path d="M3470 5391 c0 -6 4 -13 10 -16 6 -3 7 1 4 9 -7 18 -14 21 -14 7z"/>
<path d="M2458 5313 c-69 -98 -78 -113 -55 -94 26 21 126 171 114 171 -2 0
-29 -35 -59 -77z"/>
<path d="M2732 5370 c0 -14 2 -19 5 -12 2 6 2 18 0 25 -3 6 -5 1 -5 -13z"/>
<path d="M3497 5340 c4 -14 0 -20 -10 -20 -8 0 -17 -3 -19 -7 -1 -5 -18 -19
-37 -32 -28 -20 -33 -21 -28 -6 5 13 3 16 -8 11 -16 -6 -20 4 -7 20 4 5 -3 -1
-14 -14 -27 -30 -49 -96 -39 -113 6 -9 11 -6 18 12 9 20 11 21 14 6 4 -16 9
-14 38 12 23 20 49 31 85 36 39 5 50 11 46 22 -3 8 -1 11 4 8 6 -3 10 1 10 9
0 8 -9 20 -20 26 -11 6 -20 17 -20 25 0 7 -4 16 -9 19 -5 4 -7 -3 -4 -14z"/>
<path d="M3600 5355 c0 -4 11 -23 26 -42 14 -18 23 -37 20 -42 -12 -19 27 -36
76 -33 31 1 47 -1 43 -8 -3 -5 1 -10 9 -10 9 0 16 -4 16 -10 0 -5 7 -10 15
-10 15 0 40 -38 31 -48 -3 -3 -6 0 -6 6 0 7 -7 12 -15 12 -8 0 -15 5 -15 11 0
5 -5 7 -10 4 -6 -4 -23 1 -38 11 -20 13 -54 19 -132 22 -99 4 -109 3 -157 -22
-29 -14 -66 -44 -84 -66 -35 -44 -54 -48 -100 -24 -17 8 -33 13 -37 10 -3 -3
0 -6 7 -6 7 0 10 -4 6 -9 -6 -11 56 -31 97 -31 19 0 35 10 54 35 43 57 100 85
171 85 92 0 204 -40 235 -85 17 -23 6 -23 -28 0 -62 42 -74 29 -19 -21 l50
-46 -45 26 c-25 14 -74 33 -109 42 -73 18 -131 11 -247 -31 -55 -20 -74 -22
-117 -15 -68 11 -101 24 -127 50 -17 17 -24 19 -35 10 -11 -9 -23 -9 -45 -1
-17 5 -28 6 -25 1 3 -5 25 -15 48 -21 23 -7 87 -25 141 -42 85 -25 104 -28
135 -18 22 6 37 7 39 1 2 -5 15 -2 28 7 19 12 30 13 47 6 36 -17 198 -62 248
-69 44 -6 117 -40 107 -50 -3 -2 -18 0 -34 6 -16 5 -74 16 -129 25 -83 13
-101 14 -110 3 -5 -8 -18 -12 -27 -10 -36 7 -6 -25 43 -48 28 -12 48 -24 46
-26 -2 -2 -28 0 -57 6 -29 6 -55 8 -57 6 -10 -10 111 -40 187 -46 47 -4 67 -8
45 -9 -38 -2 -107 -30 -75 -31 10 0 11 -3 3 -11 -12 -12 -173 -8 -223 6 -51
13 26 -24 82 -40 l53 -15 -55 4 -55 5 33 -15 c19 -8 65 -19 104 -24 72 -9 75
-8 221 36 57 17 57 17 80 -4 13 -12 31 -22 39 -22 9 0 19 -8 21 -17 3 -11 5
-7 6 10 1 17 -3 26 -9 22 -6 -4 -10 7 -10 24 0 42 26 41 35 -1 10 -44 16 -53
25 -37 7 10 11 10 24 0 14 -12 16 -10 14 10 0 13 9 43 21 66 23 44 23 43 7
173 -2 19 -5 56 -5 83 -1 35 -5 47 -16 47 -17 0 -20 32 -5 61 13 23 2 25 -15
3 -10 -15 -13 -15 -28 1 -12 12 -17 13 -17 3 -1 -7 -10 4 -20 24 -11 20 -25
40 -31 44 -8 5 -8 1 0 -14 20 -38 11 -40 -25 -5 -20 19 -42 32 -50 29 -7 -3
-23 3 -36 13 -30 23 -81 45 -138 59 -25 6 -54 14 -64 18 -14 5 -17 4 -12 -4
11 -17 -5 -15 -26 5 -10 9 -18 12 -18 8z m10 -281 c0 -2 -14 -4 -31 -4 -16 0
-28 4 -25 9 5 8 56 3 56 -5z m145 -62 c-3 -3 -11 0 -18 7 -9 10 -8 11 6 5 10
-3 15 -9 12 -12z m349 -96 c8 -31 -4 -68 -20 -62 -7 3 -16 1 -19 -3 -3 -5 2
-11 10 -15 8 -3 15 -10 15 -16 0 -14 -65 -6 -110 14 -69 31 -111 86 -54 72 23
-6 26 -4 21 13 -4 18 -2 19 13 11 11 -6 26 -20 34 -32 10 -13 16 -17 16 -9 0
11 4 10 18 -2 31 -29 43 -21 36 22 -6 36 -5 39 14 34 11 -2 23 -15 26 -27z"/>
<path d="M2732 5320 c0 -14 2 -19 5 -12 2 6 2 18 0 25 -3 6 -5 1 -5 -13z"/>
<path d="M3620 5280 c0 -5 5 -10 11 -10 5 0 7 5 4 10 -3 6 -8 10 -11 10 -2 0
-4 -4 -4 -10z"/>
<path d="M5468 5230 c-18 -37 -21 -46 -8 -35 14 13 44 85 35 85 -1 0 -14 -23
-27 -50z"/>
<path d="M3610 5250 c0 -5 5 -10 11 -10 5 0 7 5 4 10 -3 6 -8 10 -11 10 -2 0
-4 -4 -4 -10z"/>
<path d="M2746 5216 c-3 -13 -1 -37 4 -52 15 -39 77 -124 119 -162 28 -27 31
-31 11 -22 -14 7 -37 24 -52 37 -24 23 -28 24 -48 10 -21 -15 -21 -15 16 -45
25 -21 45 -29 63 -27 15 2 33 0 40 -4 17 -11 -5 -28 -44 -33 l-30 -4 30 -8
c89 -22 93 -24 35 -24 -49 -1 -120 15 -80 17 8 1 -8 14 -36 31 -29 16 -61 41
-73 56 -12 15 -21 23 -21 18 0 -4 17 -25 37 -46 20 -21 31 -38 24 -38 -7 0
-31 19 -53 43 l-40 42 18 -36 c28 -53 98 -101 171 -116 41 -9 70 -10 87 -3 21
8 24 6 23 -10 -4 -53 -137 -64 -181 -17 -12 13 -35 27 -50 31 -15 4 -39 19
-52 33 -32 35 -30 20 3 -24 15 -20 41 -42 58 -49 21 -9 24 -13 11 -14 -11 0
-39 11 -63 25 -47 28 -54 22 -22 -19 11 -14 17 -26 13 -26 -4 0 2 -10 14 -22
11 -13 20 -27 20 -33 -1 -12 134 -53 177 -54 40 -1 77 25 74 52 -1 12 5 46 14
75 9 30 16 57 14 60 -1 4 19 27 43 50 51 50 54 60 26 84 -20 16 -20 16 9 13
17 -2 44 -7 60 -10 27 -6 28 -5 10 6 -11 7 -22 15 -25 19 -3 4 -23 13 -45 20
-86 27 -136 54 -150 79 -9 16 -14 20 -15 10 0 -32 26 -68 77 -105 63 -46 62
-57 -2 -19 -60 34 -66 28 -13 -13 57 -43 24 -41 -43 4 -66 43 -104 95 -134
180 -19 55 -24 61 -29 40z m91 -222 c21 -20 30 -34 20 -30 -10 3 -23 6 -27 6
-14 0 -50 42 -44 52 8 12 10 11 51 -28z"/>
<path d="M2812 5213 c9 -10 21 -36 28 -58 19 -61 31 -65 13 -4 -16 57 -29 79
-46 79 -5 0 -3 -8 5 -17z"/>
<path d="M5245 5205 c-16 -13 -25 -24 -19 -25 6 0 21 11 34 25 30 32 24 32
-15 0z"/>
<path d="M2914 5153 c29 -57 194 -134 254 -118 27 7 27 7 4 16 -12 5 -37 10
-55 13 -47 5 -158 59 -191 92 l-29 29 17 -32z"/>
<path d="M2622 5109 c-12 -49 -17 -137 -8 -128 6 6 27 171 23 176 -2 1 -9 -20
-15 -48z"/>
<path d="M3138 5013 c7 -3 16 -2 19 1 4 3 -2 6 -13 5 -11 0 -14 -3 -6 -6z"/>
<path d="M3470 4842 c8 -5 26 -13 40 -16 17 -5 20 -4 10 2 -8 5 -26 13 -40 16
-17 5 -20 4 -10 -2z"/>
<path d="M3917 4711 c-16 -6 -16 -9 8 -31 l25 -23 0 31 c0 33 -3 35 -33 23z"/>
<path d="M2684 4672 c8 -13 96 -32 144 -31 28 1 19 4 -36 14 -39 8 -82 17 -93
20 -14 5 -19 3 -15 -3z"/>
<path d="M2770 4595 c23 -11 47 -14 73 -9 21 3 37 7 35 9 -2 1 -34 5 -73 9
-70 6 -70 6 -35 -9z"/>
<path d="M2860 4465 c-7 -8 -19 -15 -26 -15 -8 0 -14 -4 -14 -10 0 -5 6 -9 13
-7 8 1 13 -13 15 -42 3 -43 3 -44 17 -18 18 34 29 107 17 107 -5 0 -15 -7 -22
-15z"/>
<path d="M2688 4413 c7 -3 16 -2 19 1 4 3 -2 6 -13 5 -11 0 -14 -3 -6 -6z"/>
<path d="M2715 4390 c-3 -6 1 -7 9 -4 18 7 21 14 7 14 -6 0 -13 -4 -16 -10z"/>
<path d="M2675 4185 c-6 -9 -21 -17 -34 -20 -37 -7 -38 -15 -1 -15 l34 0 -22
-20 c-11 -11 -28 -17 -36 -14 -9 3 -17 -2 -21 -15 -5 -17 -10 -19 -33 -10 -36
14 -17 -3 33 -30 52 -27 101 -28 115 -1 10 18 8 20 -22 20 l-33 0 25 13 c14 7
25 21 25 32 0 11 4 26 8 33 5 7 4 12 -2 12 -6 0 -8 7 -5 15 8 20 -18 20 -31 0z"/>
<path d="M2377 4038 c8 -45 22 -57 18 -16 -2 18 -4 36 -4 41 -1 4 -5 7 -11 7
-5 0 -7 -14 -3 -32z"/>
<path d="M2430 4010 c25 -51 46 -77 74 -92 20 -11 -37 76 -77 117 -17 18 -17
16 3 -25z"/>
<path d="M4105 3600 c3 -5 8 -10 11 -10 2 0 4 5 4 10 0 6 -5 10 -11 10 -5 0
-7 -4 -4 -10z"/>
<path d="M4083 3543 c9 -2 25 -2 35 0 9 3 1 5 -18 5 -19 0 -27 -2 -17 -5z"/>
<path d="M6750 1996 c0 -2 7 -7 16 -10 8 -3 12 -2 9 4 -6 10 -25 14 -25 6z"/>
<path d="M6970 1611 c0 -6 4 -13 10 -16 6 -3 7 1 4 9 -7 18 -14 21 -14 7z"/>
<path d="M6831 1384 c0 -11 3 -14 6 -6 3 7 2 16 -1 19 -3 4 -6 -2 -5 -13z"/>
<path d="M7055 1270 c-3 -5 -1 -10 4 -10 6 0 11 5 11 10 0 6 -2 10 -4 10 -3 0
-8 -4 -11 -10z"/>
<path d="M6982 969 c6 -16 12 -28 14 -26 5 5 -13 57 -20 57 -3 0 0 -14 6 -31z"/>
<path d="M7050 930 c0 -5 5 -10 11 -10 5 0 7 5 4 10 -3 6 -8 10 -11 10 -2 0
-4 -4 -4 -10z"/>
<path d="M6032 376 c7 -8 15 -12 17 -11 5 6 -10 25 -20 25 -5 0 -4 -6 3 -14z"/>
<path d="M6766 369 c-10 -10 -16 -24 -13 -31 4 -9 6 -8 6 3 1 9 11 20 23 26
12 5 18 12 12 15 -5 3 -17 -3 -28 -13z"/>
<path d="M5981 351 c-9 -6 -10 -11 -2 -15 13 -8 31 1 31 15 0 11 -11 11 -29 0z"/>
<path d="M6104 352 c3 -5 0 -13 -6 -15 -9 -4 -10 -6 -1 -6 17 -1 25 16 12 25
-7 4 -9 3 -5 -4z"/>
<path d="M6171 314 c0 -11 3 -14 6 -6 3 7 2 16 -1 19 -3 4 -6 -2 -5 -13z"/>
<path d="M6970 295 c0 -8 5 -15 10 -15 6 0 10 7 10 15 0 8 -4 15 -10 15 -5 0
-10 -7 -10 -15z"/>
<path d="M6521 284 c0 -11 3 -14 6 -6 3 7 2 16 -1 19 -3 4 -6 -2 -5 -13z"/>
<path d="M6150 282 c0 -5 7 -9 15 -9 8 0 15 4 15 9 0 4 -7 8 -15 8 -8 0 -15
-4 -15 -8z"/>
<path d="M6185 240 c-3 -6 1 -7 9 -4 18 7 21 14 7 14 -6 0 -13 -4 -16 -10z"/>
<path d="M2800 270 c0 -5 5 -10 11 -10 5 0 7 5 4 10 -3 6 -8 10 -11 10 -2 0
-4 -4 -4 -10z"/>
</g>
</svg>
