<?xml version="1.0" standalone="no"?>
<!DOCTYPE svg PUBLIC "-//W3C//DTD SVG 20010904//EN"
 "http://www.w3.org/TR/2001/REC-SVG-20010904/DTD/svg10.dtd">
<svg version="1.0" xmlns="http://www.w3.org/2000/svg"
 width="500.000000pt" height="500.000000pt" viewBox="0 0 500.000000 500.000000"
 preserveAspectRatio="xMidYMid meet">
<metadata>
Created by potrace 1.16, written by Peter Selinger 2001-2019
</metadata>
<g transform="translate(0.000000,500.000000) scale(0.100000,-0.100000)"
fill="#000000" stroke="none">
<path d="M0 4486 c0 -489 1 -514 18 -509 10 2 26 -5 36 -16 35 -38 50 -25 23
20 -21 35 -23 46 -15 80 6 21 16 39 24 39 16 0 56 -55 47 -64 -4 -4 1 -4 11 0
12 5 17 4 13 -3 -4 -6 3 -8 18 -5 21 4 25 0 25 -19 0 -26 15 -16 23 16 4 17 5
16 6 -4 1 -24 1 -24 16 -5 13 18 14 17 15 -19 0 -28 -3 -36 -12 -31 -7 4 -5
-2 4 -13 10 -11 18 -34 18 -52 0 -39 16 -71 35 -71 12 0 14 14 9 78 -2 42 -7
91 -9 109 -2 19 1 33 8 36 9 3 9 8 -1 19 -13 16 -14 98 -1 98 12 0 19 -29 9
-35 -17 -10 -11 -25 8 -19 16 5 16 5 0 -6 -10 -6 -18 -16 -18 -23 0 -7 4 -6
10 3 8 12 10 9 10 -13 0 -15 7 -30 15 -33 9 -4 15 -19 15 -37 0 -40 9 -30 12
14 1 18 8 43 16 54 12 18 13 16 10 -22 -5 -62 17 -55 32 10 7 28 26 76 41 106
16 30 29 60 29 67 0 8 4 14 9 14 5 0 19 20 31 45 29 59 45 69 36 21 -4 -20 -3
-36 2 -36 10 0 3 -68 -9 -76 -5 -3 -9 -11 -9 -17 1 -8 5 -7 13 3 7 8 20 21 29
29 16 12 17 10 13 -30 -4 -41 -45 -103 -45 -69 0 8 -11 -10 -23 -40 -13 -30
-28 -54 -34 -53 -6 1 -14 -9 -17 -23 -4 -13 -20 -46 -36 -73 -17 -26 -33 -62
-36 -80 -4 -17 -11 -34 -15 -37 -5 -3 -9 -14 -9 -25 0 -10 -5 -19 -11 -19 -5
0 -7 -5 -3 -12 4 -6 3 -8 -4 -4 -6 3 -17 -2 -24 -12 -7 -9 -32 -26 -54 -36
-36 -15 -49 -17 -93 -7 -29 6 -68 19 -89 30 -20 10 -56 21 -79 24 l-43 5 1
-121 c1 -67 3 -114 6 -104 7 25 18 21 47 -15 25 -32 33 -24 17 17 -11 27 45
86 60 64 8 -12 12 -11 23 4 13 16 15 15 35 -19 22 -36 22 -40 7 -103 -22 -98
-24 -120 -12 -124 6 -2 -3 -16 -19 -30 -17 -15 -24 -27 -17 -27 6 0 12 -4 12
-10 0 -11 -63 24 -80 46 -10 11 -9 14 4 14 24 0 20 7 -34 60 l-50 49 0 -45 c0
-27 4 -44 12 -44 9 0 9 -3 0 -12 -16 -16 -15 -31 1 -22 10 6 10 4 0 -7 -7 -7
-13 -26 -13 -42 0 -24 3 -28 17 -22 21 8 22 8 46 6 9 0 17 -7 17 -14 0 -7 9
-18 20 -25 26 -16 23 -69 -6 -107 -23 -31 -31 -31 -40 -3 -16 50 -34 -39 -20
-99 5 -21 4 -33 -3 -33 -6 0 -14 15 -19 33 -7 23 -10 -10 -11 -118 0 -82 3
-145 7 -139 4 6 15 14 26 17 13 5 17 3 13 -7 -3 -8 -1 -17 6 -20 8 -3 6 -5 -3
-5 -8 -1 -21 -13 -28 -28 -16 -37 -15 -51 3 -27 14 19 14 18 15 -3 0 -12 -8
-27 -17 -32 -10 -6 -14 -11 -9 -11 5 0 2 -7 -5 -17 -10 -11 0 -9 31 8 25 14
56 26 69 26 21 2 31 9 43 33 5 9 109 62 114 57 10 -9 -9 -38 -22 -33 -8 3 -14
1 -14 -4 0 -6 -8 -10 -19 -10 -10 0 -25 -7 -32 -16 -19 -23 -126 -104 -137
-104 -23 0 -42 -39 -42 -88 0 -48 2 -51 27 -55 l28 -4 -27 -2 -27 -1 2 -97 c1
-101 4 -107 49 -133 14 -8 16 -7 12 5 -4 8 -9 15 -13 15 -4 0 -15 15 -25 33
l-19 32 25 -22 c13 -13 31 -23 39 -23 8 0 21 -6 28 -12 11 -11 13 -10 8 4 -7
19 17 26 27 9 3 -4 17 -7 31 -6 17 2 25 -2 25 -12 0 -9 -6 -12 -19 -8 -17 5
-19 0 -19 -49 0 -56 -6 -76 -24 -76 -6 0 -8 16 -5 43 3 23 2 51 -3 62 -5 11
-9 14 -9 7 -1 -8 -6 -10 -14 -6 -7 5 -7 1 2 -10 13 -16 12 -17 -15 -10 -40 9
-64 23 -64 35 0 6 -4 7 -10 4 -7 -4 -10 -387 -10 -1116 l0 -1109 2500 0 2500
0 0 260 0 260 -22 1 c-13 1 -34 3 -48 4 -14 2 -62 4 -107 6 -56 1 -87 6 -94
15 -14 16 -62 18 -90 4 -15 -8 -19 -7 -19 5 0 18 -16 20 -23 3 -3 -8 -6 -6 -6
5 -1 11 -9 17 -23 18 -13 0 -32 2 -43 5 -51 10 -78 -17 -47 -48 7 -7 12 -18
12 -25 0 -7 5 -13 10 -13 6 0 10 -5 10 -11 0 -12 60 -69 73 -69 11 0 207 -201
207 -212 0 -15 -42 13 -47 31 -2 9 -20 25 -39 36 -19 10 -34 22 -34 26 0 4
-16 16 -35 25 -19 9 -35 21 -35 26 0 5 -4 6 -10 3 -5 -3 -26 10 -45 30 -20 19
-42 35 -50 35 -8 0 -15 4 -15 10 0 5 -3 9 -7 9 -25 -4 -41 6 -61 39 -13 21
-33 42 -45 47 -12 6 -23 16 -23 23 -1 6 -2 17 -3 22 0 6 -17 10 -37 10 -27 0
-35 4 -31 14 3 8 -5 18 -20 25 -21 9 -24 17 -21 41 5 31 -1 37 -19 19 -7 -7
-15 -6 -26 5 -9 9 -30 16 -47 16 -22 0 -31 4 -27 13 5 15 -27 59 -37 50 -3 -4
-6 -2 -6 3 0 6 5 15 11 21 8 8 -5 17 -48 33 -32 12 -63 23 -70 24 -7 1 -15 5
-19 9 -4 4 -18 4 -30 1 -19 -5 -24 -2 -24 12 -1 16 -3 15 -14 -5 l-13 -23 -6
22 c-5 18 -9 20 -26 11 -11 -6 -24 -11 -30 -11 -13 0 -15 37 -2 44 5 3 11 17
13 31 4 20 2 25 -11 21 -66 -19 -79 -18 -83 6 -2 15 -10 23 -23 23 -11 0 -24
6 -28 13 -4 6 -15 12 -24 12 -10 0 -14 6 -11 18 4 15 -1 18 -38 17 -36 -2 -44
1 -44 16 0 10 -4 21 -10 24 -5 3 -10 1 -10 -5 0 -7 -8 -9 -19 -5 -10 3 -31 1
-47 -5 -20 -8 -30 -8 -32 -1 -5 15 -32 14 -32 -1 0 -6 -2 -9 -5 -6 -6 5 17 76
36 111 11 20 -4 23 -20 3 -7 -8 -21 -12 -31 -9 -11 3 -28 2 -37 -2 -10 -5 -22
-7 -28 -6 -5 2 -27 4 -47 4 -20 1 -40 5 -44 9 -4 4 -13 0 -20 -10 -11 -13 -10
-7 1 27 8 24 15 46 15 48 0 3 -37 4 -82 3 -94 -1 -158 8 -158 22 0 5 -26 9
-57 8 -32 -1 -61 -1 -64 -1 -4 1 -3 17 1 36 6 27 5 35 -6 35 -17 0 -17 10 -4
44 6 17 6 26 0 26 -6 0 -10 -5 -10 -11 0 -6 -9 -9 -20 -6 -11 3 -20 1 -20 -4
0 -24 -201 2 -229 29 -13 12 -16 12 -21 -4 -5 -12 -9 -14 -14 -6 -12 21 -52
14 -63 -10 -10 -22 -10 -21 -10 7 -1 17 4 33 10 36 5 4 -21 6 -59 4 -38 -1
-69 -3 -69 -5 0 -7 -42 -7 -55 0 -10 5 -21 6 -24 2 -4 -4 -34 -8 -66 -9 -51
-2 -58 0 -53 14 5 11 3 14 -6 8 -10 -5 -12 -2 -8 11 15 52 19 86 9 80 -6 -3
-13 0 -15 6 -4 9 -6 8 -6 -2 -2 -28 -18 -41 -62 -52 -80 -19 -89 -18 -89 5 0
18 -2 19 -10 7 -19 -29 -11 14 11 59 11 23 18 48 15 54 -2 7 -5 4 -5 -5 -1
-10 -5 -18 -10 -18 -5 0 -12 -12 -16 -27 -4 -16 -10 -22 -12 -15 -4 10 -10 9
-25 -5 -11 -10 -22 -17 -24 -15 -2 1 -5 2 -6 1 -22 -6 -47 -8 -66 -4 -22 5
-22 8 -17 88 4 55 2 75 -4 62 -6 -13 -10 -15 -10 -6 -1 18 -61 -36 -61 -54 0
-8 -10 -10 -25 -7 -20 3 -24 9 -20 23 11 33 -4 38 -46 16 -34 -18 -41 -19 -49
-7 -6 8 -10 10 -10 4 0 -18 -60 -13 -61 5 -1 9 -5 5 -9 -9 -7 -22 -8 -20 -10
15 -1 22 -4 32 -7 23 -3 -12 -12 -15 -30 -12 -14 3 -31 0 -39 -7 -11 -9 -15
-7 -21 9 -5 12 -12 21 -18 22 -43 3 -85 14 -85 21 0 5 -7 6 -15 3 -9 -4 -16 3
-21 21 -3 14 -11 24 -18 22 -16 -5 -115 31 -149 55 -16 12 -26 26 -23 34 6 17
-6 18 -21 3 -8 -8 -9 2 -6 35 6 46 5 46 -25 46 -43 0 -62 9 -73 36 -5 15 -17
24 -31 25 -17 1 -19 2 -6 6 19 5 25 23 8 23 -5 0 -8 6 -5 13 3 11 15 95 17
125 1 7 15 24 32 38 17 13 37 29 43 34 16 14 116 32 151 29 15 -2 33 -7 40
-12 8 -6 12 -5 12 2 0 7 5 9 13 5 7 -4 9 -3 4 2 -9 9 -14 11 -48 13 -11 0 -18
5 -15 10 4 5 2 11 -4 13 -5 1 9 14 31 26 23 13 38 19 35 13 -4 -6 -2 -11 3
-11 6 0 11 5 11 10 0 6 9 10 20 10 11 0 20 4 20 10 0 5 -19 7 -42 5 -43 -4
-43 -4 -21 14 12 10 20 21 18 25 -3 3 1 2 7 -4 19 -16 27 -12 23 12 -3 16 -2
19 7 10 12 -12 24 -3 47 33 l13 20 -8 -20 c-4 -11 -7 -31 -8 -45 -1 -14 -7
-29 -13 -33 -22 -14 -15 -36 9 -29 14 3 19 1 14 -6 -5 -8 -1 -10 10 -5 10 4
15 2 11 -4 -3 -5 0 -10 8 -10 10 0 12 4 5 12 -5 7 -6 16 -2 20 4 5 2 5 -4 2
-6 -3 -11 0 -11 8 0 8 3 14 6 13 18 -2 31 3 31 12 0 5 -8 7 -17 4 -17 -5 -17
-5 0 9 9 8 17 20 18 28 0 8 4 6 10 -6 8 -17 9 -16 4 6 -3 19 2 32 21 48 33 29
38 23 19 -22 -18 -44 -19 -50 -3 -41 7 4 8 3 4 -5 -4 -6 -12 -8 -18 -5 -7 5
-9 1 -5 -9 3 -10 2 -16 -4 -14 -6 1 -17 -9 -26 -23 -14 -23 -14 -24 1 -6 15
18 16 18 16 2 0 -17 -93 -116 -110 -116 -5 0 -8 -8 -7 -18 1 -13 8 -18 24 -16
13 1 23 -2 23 -8 0 -6 9 -8 21 -5 17 5 20 2 16 -14 -3 -12 0 -19 10 -19 8 0
12 4 9 9 -7 10 50 20 77 13 12 -3 17 -11 14 -23 -5 -20 17 -27 27 -10 3 5 20
14 37 20 26 9 30 8 25 -4 -4 -11 2 -15 27 -15 24 0 28 3 17 10 -22 14 48 12
140 -5 41 -7 78 -11 82 -9 4 2 9 0 13 -5 3 -6 12 -8 19 -5 8 3 17 1 21 -5 3
-6 19 -11 34 -11 25 0 86 -19 276 -85 28 -10 63 -27 78 -38 16 -11 47 -25 70
-32 39 -12 96 -34 142 -55 11 -5 47 -17 80 -26 104 -29 198 -62 265 -92 36
-16 88 -35 115 -42 69 -18 215 -92 307 -156 43 -30 81 -54 86 -54 5 0 19 -11
32 -25 13 -14 28 -25 33 -25 5 0 29 -13 54 -30 24 -16 49 -30 55 -30 14 0 75
-19 106 -33 13 -6 29 -25 36 -42 16 -38 30 -48 83 -63 23 -7 51 -24 62 -39 34
-42 24 -50 -13 -10 -31 34 -46 44 -46 32 0 -3 35 -40 78 -84 56 -56 88 -81
113 -86 19 -4 40 -12 48 -19 11 -8 13 -8 7 2 -4 7 -1 12 8 12 9 0 16 -4 16
-10 0 -5 9 -10 20 -10 11 0 19 -5 17 -11 -1 -6 4 -14 12 -17 8 -3 11 0 7 7 -4
6 -3 11 2 11 6 0 13 -7 16 -16 3 -8 14 -14 23 -13 31 3 44 -1 39 -10 -3 -5 17
-11 44 -15 32 -4 59 -15 76 -31 14 -13 34 -24 45 -24 10 -1 28 -1 39 -2 11 0
18 -4 15 -10 -4 -5 3 -9 14 -9 19 0 130 -49 154 -68 41 -33 211 -106 327 -140
l135 -39 3 246 c2 186 -1 247 -10 250 -16 5 -54 43 -61 62 -4 11 -8 11 -14 2
-7 -10 -21 -9 -64 1 -31 7 -66 11 -79 9 -17 -2 -21 1 -16 13 5 12 1 14 -15 9
-19 -6 -21 -4 -17 16 4 23 2 24 -43 21 -40 -3 -49 -8 -52 -25 -4 -19 -4 -19
-6 4 -1 26 -30 74 -31 51 0 -7 -4 -11 -9 -8 -5 4 -12 0 -15 -6 -8 -17 -1 32 9
57 5 16 5 17 -4 5 -9 -13 -11 -13 -11 3 0 18 -15 23 -24 8 -4 -5 0 -12 6 -15
7 -3 -12 -4 -42 0 -30 3 -57 9 -60 14 -3 5 -21 11 -40 12 -19 2 -40 10 -47 18
-7 8 -13 10 -13 4 0 -7 -16 -11 -37 -10 -33 1 -39 4 -44 31 -4 17 -7 25 -8 20
-1 -13 -73 -7 -81 6 -6 8 -19 10 -172 25 -43 4 -78 11 -78 15 0 5 -7 6 -15 3
-8 -4 -15 -1 -15 5 0 6 -7 11 -15 11 -8 0 -15 4 -15 9 0 4 -11 6 -23 4 -14 -3
-31 2 -41 13 -15 14 -19 15 -27 3 -7 -11 -9 -10 -9 5 0 15 -5 17 -34 12 -20
-4 -37 -2 -41 4 -3 5 -15 10 -26 10 -11 0 -17 -4 -14 -10 9 -15 -7 -12 -29 5
-16 12 -22 12 -28 2 -11 -17 -11 9 1 50 12 40 5 47 -21 21 -11 -11 -23 -16
-27 -12 -3 5 -28 11 -56 12 -27 2 -53 9 -57 16 -4 7 -28 13 -54 15 -26 1 -60
9 -76 17 -16 8 -51 18 -79 21 -27 3 -47 8 -45 11 12 11 -27 33 -68 38 -25 4
-46 11 -46 16 0 5 -5 6 -10 3 -6 -3 -10 -2 -10 2 0 11 -97 33 -174 40 -38 3
-66 12 -79 24 -16 14 -23 16 -29 7 -25 -41 5 123 33 172 7 14 12 31 10 39 -1
7 2 10 8 6 6 -3 16 5 23 20 15 34 81 47 100 20 5 -6 12 -5 20 3 16 16 51 15
96 -4 52 -22 112 -23 136 -1 15 12 22 14 27 5 4 -7 6 -15 4 -19 -3 -3 7 -6 21
-6 14 0 30 -5 35 -10 7 -7 23 -6 47 3 34 11 38 11 52 -7 10 -13 22 -18 33 -14
9 4 23 0 32 -9 9 -9 24 -16 33 -16 10 0 38 -11 63 -24 31 -17 50 -22 60 -15
20 12 29 11 26 -3 -1 -7 5 -13 13 -14 18 -1 45 -11 87 -32 22 -11 28 -19 20
-24 -9 -6 -9 -8 0 -8 6 0 14 4 17 9 3 5 15 11 26 14 15 4 20 1 18 -11 -2 -12
12 -18 60 -27 34 -6 65 -9 68 -6 3 3 2 -3 -2 -13 -6 -16 -4 -17 14 -7 24 13
35 14 28 3 -2 -4 -1 -14 5 -22 5 -8 9 -10 9 -4 0 6 6 11 14 11 8 0 14 -5 13
-11 -1 -6 9 -10 22 -8 17 3 21 0 16 -10 -6 -10 -5 -11 6 0 13 12 38 18 26 5
-4 -3 2 -12 13 -20 23 -17 80 -25 80 -13 0 5 7 7 15 4 12 -5 13 -9 4 -21 -10
-12 -8 -13 14 -9 15 2 29 1 32 -4 3 -5 13 -6 22 -3 12 5 14 3 8 -7 -5 -8 -4
-11 3 -6 6 4 19 3 29 -2 53 -27 96 -42 105 -36 7 4 8 2 4 -4 -7 -12 5 -16 33
-13 7 2 10 -2 6 -8 -3 -6 -3 -11 2 -12 41 -4 68 -12 80 -25 8 -7 20 -14 27
-14 6 0 30 -9 51 -20 22 -11 45 -18 52 -15 7 2 13 0 13 -5 0 -6 6 -10 13 -10
6 0 34 -11 62 -25 27 -14 55 -23 63 -20 7 2 11 1 8 -4 -3 -5 1 -12 10 -15 9
-4 13 -2 8 5 -4 7 1 7 16 -1 15 -8 20 -18 17 -31 -4 -17 -3 -18 9 -8 9 7 14 8
14 1 0 -5 10 -8 22 -4 14 3 19 2 14 -6 -7 -12 -6 -13 32 -17 12 -1 26 -6 30
-10 4 -5 -1 -5 -10 -2 -24 9 -23 0 2 -13 20 -11 20 -8 20 1755 l0 1765 -2500
0 -2500 0 0 -514z m3388 229 c-3 -31 -1 -58 4 -61 4 -3 2 -15 -4 -27 -7 -12
-18 -38 -25 -57 -12 -34 -12 -34 -9 20 4 62 9 86 19 96 12 12 8 24 -8 24 -10
0 -15 -10 -15 -33 0 -18 -7 -42 -16 -53 -15 -18 -15 -18 -9 11 3 17 7 35 9 40
1 6 6 23 11 38 5 20 10 25 16 16 5 -9 10 -5 14 14 12 45 18 31 13 -28z m-208
-25 c0 -5 -5 -10 -11 -10 -5 0 -7 5 -4 10 3 6 8 10 11 10 2 0 4 -4 4 -10z
m127 -52 c-2 -13 -4 -5 -4 17 -1 22 1 32 4 23 2 -10 2 -28 0 -40z m-140 12
c-3 -13 0 -20 9 -20 8 0 14 -5 14 -12 0 -6 11 -2 23 11 l24 22 2 -58 c1 -50
-26 -216 -28 -171 -1 9 -5 18 -10 20 -6 2 -11 24 -12 50 -2 26 -7 44 -12 41
-5 -3 -6 -18 -3 -34 3 -15 1 -31 -4 -34 -6 -3 -10 -16 -10 -28 0 -18 -2 -19
-11 -7 -8 11 -9 1 -6 -37 2 -29 0 -53 -4 -53 -5 0 -9 5 -9 11 0 5 -5 7 -11 4
-6 -4 -8 -13 -6 -19 3 -7 2 -18 -3 -25 -5 -10 -13 -7 -29 10 -11 12 -21 26
-21 31 0 4 -13 8 -30 8 -34 0 -37 -6 -13 -32 15 -17 15 -18 0 -18 -10 0 -17
-4 -17 -10 0 -5 6 -10 13 -10 8 0 7 -4 -3 -10 -11 -7 -11 -10 -2 -10 7 0 12
-8 10 -17 -2 -11 6 -19 22 -23 23 -5 22 -7 -20 -29 -38 -20 -44 -21 -52 -7
-18 32 -88 4 -88 -35 0 -25 -16 -24 -30 1 -6 11 -16 20 -23 20 -7 0 -19 9 -27
20 -8 11 -17 20 -21 20 -10 0 -29 -58 -29 -86 0 -13 -6 -24 -12 -25 -7 0 -24
-1 -38 -3 -15 -1 -41 -17 -62 -38 -19 -21 -39 -34 -43 -30 -5 4 -5 2 -2 -4 7
-12 -14 -36 -29 -33 -21 4 -35 -2 -29 -11 3 -6 -1 -13 -10 -16 -12 -5 -13 -9
-4 -20 14 -17 30 -18 26 -1 -1 6 4 11 11 10 6 -2 12 1 12 5 0 4 -6 14 -12 22
-11 12 -10 12 4 1 9 -7 22 -10 27 -7 5 4 13 1 17 -5 5 -8 3 -9 -7 -4 -11 6
-11 5 -2 -5 9 -10 16 -9 34 4 13 9 19 17 14 17 -6 1 -16 2 -22 3 -50 5 66 107
121 106 6 0 2 -7 -8 -15 -17 -13 -18 -15 -3 -15 26 0 20 -14 -10 -28 -49 -22
-75 -40 -66 -45 5 -3 24 3 41 14 37 22 42 23 42 9 0 -5 -5 -10 -11 -10 -6 0
-25 -11 -42 -24 -18 -13 -47 -27 -66 -31 -22 -5 -55 -28 -93 -64 -57 -56 -77
-66 -57 -30 20 38 0 18 -34 -34 -40 -60 -48 -83 -28 -79 9 2 11 -3 7 -13 -3
-9 -2 -13 4 -10 6 3 10 -2 10 -12 0 -15 2 -16 10 -3 7 10 13 11 18 4 45 -64
40 -61 73 -41 17 9 37 17 45 17 8 0 14 4 14 9 0 6 13 18 30 27 39 24 45 42 15
50 -18 5 -37 -3 -74 -30 -28 -21 -52 -32 -56 -27 -3 6 -13 8 -23 5 -13 -5 -14
-4 -3 4 8 6 11 18 7 30 -7 21 1 31 34 37 11 2 27 8 37 13 12 7 3 9 -33 6 -27
-2 -40 -1 -29 2 11 4 25 10 30 14 6 4 25 11 43 15 17 3 32 11 32 16 0 6 9 8
19 4 12 -3 37 3 60 15 41 21 106 27 115 11 4 -5 -4 -7 -16 -4 -13 3 -20 2 -16
-2 5 -5 -1 -14 -12 -22 -11 -8 -20 -19 -20 -26 0 -8 3 -8 12 1 7 7 26 12 42
12 37 0 64 -14 47 -24 -6 -4 -11 -2 -11 3 0 6 -16 -5 -35 -23 -44 -43 -46 -65
-2 -35 17 13 34 26 37 29 9 12 42 20 52 14 12 -8 -26 -44 -47 -44 -19 0 -65
-29 -65 -41 0 -5 16 0 36 10 28 15 41 17 59 9 37 -17 57 3 74 73 11 42 21 63
29 61 8 -1 11 1 8 6 -3 5 1 18 9 28 21 28 19 0 -4 -64 -22 -59 -21 -56 -21
-79 0 -14 -2 -15 -9 -5 -6 10 -11 5 -20 -16 -12 -29 -41 -51 -75 -56 -10 -1
-21 -8 -25 -15 -4 -6 -21 -16 -37 -21 l-29 -8 37 -1 c35 -1 67 -21 33 -21 -11
0 -15 -5 -12 -14 7 -18 -38 -27 -134 -25 -54 1 -68 4 -51 10 13 5 20 13 17 19
-7 12 -45 -5 -45 -20 0 -6 -19 -10 -42 -10 l-43 1 30 24 c36 30 28 32 -20 5
-44 -25 -49 -25 -42 0 4 17 2 18 -15 9 -11 -6 -22 -8 -26 -5 -3 3 1 6 9 6 24
0 -13 20 -37 20 -14 0 -24 8 -28 22 -4 18 -8 20 -18 10 -17 -17 -31 -15 -56 7
-23 19 -20 33 4 24 18 -7 18 11 1 26 -8 6 -19 29 -26 50 -11 39 -27 58 -38 47
-3 -3 4 -26 16 -51 11 -24 21 -49 21 -55 0 -14 -23 -13 -38 2 -10 10 -14 8
-18 -10 -8 -29 -21 -28 -50 4 -13 14 -25 23 -25 20 -6 -24 -3 -34 14 -53 13
-14 15 -21 5 -20 -51 2 -40 -7 15 -13 37 -4 73 -13 80 -20 9 -9 9 -11 0 -6 -6
3 -15 2 -18 -4 -4 -6 -16 -8 -27 -4 -16 5 -20 3 -15 -9 4 -12 1 -12 -18 -3
-13 6 -21 15 -17 21 3 5 -2 4 -11 -4 -9 -7 -17 -10 -17 -7 0 4 -10 2 -21 -5
-15 -8 -18 -13 -10 -19 9 -5 8 -9 -4 -13 -10 -4 -14 -3 -10 4 4 6 1 9 -6 8 -8
-1 -36 7 -62 19 -27 12 -62 22 -78 22 -16 0 -29 5 -29 10 0 6 7 10 15 10 9 0
18 7 21 15 4 8 19 15 34 15 26 0 42 -19 45 -52 0 -4 9 -14 20 -22 19 -13 23
-12 45 12 l25 25 -24 -13 c-23 -12 -27 -10 -58 26 -18 21 -35 47 -39 57 -4 14
-18 17 -92 17 -57 0 -82 -3 -72 -9 8 -6 17 -8 20 -6 4 2 7 -2 7 -10 0 -10 -5
-11 -18 -4 -22 11 -39 12 -39 1 0 -13 50 -33 62 -26 6 4 8 2 5 -3 -4 -6 3 -13
14 -16 12 -3 18 -10 15 -15 -8 -14 19 -33 36 -27 8 3 25 2 39 -4 23 -8 22 -9
-14 -16 -33 -6 -42 -4 -65 17 -37 33 -99 51 -137 39 -16 -5 -22 -10 -13 -10
27 -2 29 -15 8 -56 -14 -28 -17 -42 -9 -51 12 -14 3 -74 -11 -74 -10 0 -134
-82 -138 -92 -2 -4 -8 -8 -14 -8 -6 0 -34 -14 -62 -31 -66 -41 -39 -9 35 42
71 48 77 57 51 75 -18 12 -19 19 -10 52 5 20 16 44 24 53 17 18 19 33 3 23
-12 -7 -53 -94 -51 -106 1 -5 -2 -8 -6 -8 -5 0 -18 -17 -30 -37 -24 -43 -109
-130 -118 -121 -3 3 8 25 25 48 17 24 28 47 25 51 -3 5 0 8 6 7 17 -4 84 105
77 125 -2 6 8 21 22 34 20 17 22 22 9 23 -9 0 -18 -6 -21 -12 -2 -8 -8 -9 -13
-4 -5 5 -4 11 4 13 18 7 15 53 -4 53 -15 0 -26 -10 -74 -70 l-20 -25 19 45
c22 50 53 78 91 82 19 2 26 -2 28 -19 2 -13 7 -23 12 -23 10 0 83 60 89 73 1
4 11 16 21 25 69 67 119 186 129 310 4 55 10 77 21 79 10 3 11 2 4 -4 -13 -10
-18 -123 -5 -123 5 0 11 -9 14 -21 4 -13 10 -18 17 -14 9 6 9 2 0 -15 -23 -44
6 -40 74 10 38 28 73 50 79 50 12 0 2 -8 -82 -70 -69 -52 -157 -137 -149 -145
7 -8 75 26 145 72 86 57 130 62 86 11 -13 -15 -13 -16 5 -11 12 3 28 14 38 24
9 10 23 19 31 19 7 0 13 5 13 11 0 5 4 8 9 5 5 -3 11 4 14 15 3 12 10 18 16
15 5 -4 14 2 20 11 10 17 10 17 11 1 0 -9 -7 -21 -16 -26 -9 -5 -14 -18 -12
-28 3 -16 8 -13 28 18 28 41 53 53 71 32 16 -20 29 -17 29 6 0 18 -7 20 -62
20 -66 0 -100 11 -78 25 6 4 17 2 23 -4 13 -13 123 -15 131 -2 7 11 -56 24
-77 15 -9 -3 -26 1 -39 10 l-22 16 25 0 c14 0 45 14 68 31 24 17 45 28 49 25
3 -3 1 -6 -5 -6 -16 0 -24 -28 -11 -36 6 -4 8 -3 4 4 -10 17 13 25 31 10 14
-11 16 -11 11 2 -5 13 2 16 31 16 20 -1 45 3 57 7 15 5 21 3 21 -6 0 -9 -8
-13 -21 -10 -16 4 -18 2 -7 -5 11 -8 9 -11 -8 -17 -13 -4 -20 -9 -17 -12 10
-10 66 19 64 33 -2 8 15 25 37 39 22 13 34 25 27 25 -8 0 -25 -9 -39 -20 -20
-16 -28 -17 -44 -7 -26 16 -24 24 11 32 30 6 40 20 20 27 -6 2 10 15 35 30 56
34 63 14 7 -24 -22 -15 -22 -16 -3 -21 11 -2 41 6 68 18 26 13 62 25 80 27 17
2 50 16 73 31 47 31 81 37 60 12 -7 -9 -11 -17 -8 -20 8 -9 78 8 78 19 0 12
60 51 73 48 17 -5 18 30 1 49 -14 15 -15 19 -2 14 11 -5 18 5 28 39 13 49 42
86 66 86 32 0 94 95 94 145 0 19 5 35 11 35 6 0 9 -9 6 -20z m428 -41 c-27
-11 -73 -11 -79 0 -3 5 18 9 47 9 36 -1 46 -3 32 -9z m-268 -41 c-3 -7 -5 -2
-5 12 0 14 2 19 5 13 2 -7 2 -19 0 -25z m-1287 -29 c-14 -12 -30 -33 -37 -48
-8 -19 -12 -21 -12 -8 -1 18 50 77 66 77 4 -1 -3 -10 -17 -21z m90 14 c0 -5
-13 -17 -28 -28 -27 -19 -27 -19 -12 0 22 29 40 42 40 28z m1186 -30 c-10 -10
-19 5 -10 18 6 11 8 11 12 0 2 -7 1 -15 -2 -18z m-1156 -18 c-6 -15 -8 -35 -5
-44 2 -9 -2 -27 -10 -41 -22 -39 -46 -93 -42 -96 1 -2 23 27 47 63 44 64 82
98 65 57 -4 -11 -16 -52 -26 -91 -10 -40 -26 -87 -35 -105 -16 -31 -81 -98
-95 -98 -4 0 -17 -16 -30 -35 -13 -19 -28 -35 -33 -35 -5 0 -18 -8 -29 -17
-19 -17 -19 -17 -14 2 3 11 9 33 13 48 4 18 9 24 14 17 10 -16 42 66 45 115 1
23 5 52 9 65 6 23 6 24 -5 5 -7 -11 -13 -40 -13 -66 -1 -36 -3 -43 -12 -31
-12 17 -4 65 21 129 8 21 16 54 17 73 3 32 26 75 36 65 3 -3 0 -10 -5 -17 -6
-7 -14 -29 -17 -48 l-6 -35 14 30 c12 26 15 27 21 12 7 -17 8 -17 21 0 7 10
14 22 14 27 0 6 -6 1 -14 -10 -13 -17 -15 -17 -21 -2 -7 17 17 72 36 84 8 4 9
3 5 -4 -11 -18 9 -14 24 3 18 22 22 13 10 -20z m-221 -52 c-1 -38 -1 -38 -9
-9 -8 27 -6 46 6 46 2 0 4 -17 3 -37z m316 -8 c-15 -19 -24 -39 -20 -45 3 -5
1 -10 -4 -10 -22 0 -10 45 17 67 37 30 37 29 7 -12z m95 16 c0 -11 -4 -23 -10
-26 -6 -4 -7 1 -3 11 5 14 3 15 -18 4 l-24 -13 20 21 c25 26 35 27 35 3z m960
10 c0 -5 -7 -22 -15 -37 -13 -26 -15 -26 -15 -7 0 12 3 28 6 37 7 17 24 22 24
7z m-1399 -44 c-10 -9 -11 -8 -5 6 3 10 9 15 12 12 3 -3 0 -11 -7 -18z m599
12 c0 -18 -21 -53 -54 -87 -24 -25 -26 -31 -11 -26 11 4 30 14 43 22 28 18 29
3 2 -26 -12 -12 -17 -22 -13 -22 4 0 -12 -11 -36 -25 -52 -30 -61 -32 -35 -6
10 10 22 17 25 15 4 -2 13 4 20 13 8 9 9 14 3 10 -16 -9 -74 -18 -74 -11 0 3
9 17 20 31 11 14 20 22 20 17 0 -5 6 2 13 16 7 14 18 25 25 25 7 0 12 4 11 9
0 5 6 13 15 18 21 12 21 32 0 24 -8 -3 -12 -2 -9 4 8 13 35 13 35 -1z m-61
-12 c-2 -1 -14 -11 -26 -21 -13 -11 -23 -16 -23 -13 0 10 31 37 42 37 6 0 9
-1 7 -3z m952 -14 c-18 -33 -39 -58 -45 -53 -8 8 32 70 44 70 7 0 7 -6 1 -17z
m628 3 c9 -11 4 -20 -26 -46 -29 -24 -33 -31 -18 -30 11 1 28 2 39 1 37 -2 -3
-28 -54 -35 -49 -7 -71 -20 -48 -29 7 -3 3 -6 -8 -6 -12 -1 -47 -14 -78 -30
-33 -18 -58 -26 -62 -20 -4 6 -14 3 -25 -7 -28 -25 -11 -34 41 -22 89 19 123
21 118 7 -3 -8 -24 -16 -49 -19 -34 -4 -43 -9 -41 -22 3 -19 -50 -52 -63 -40
-5 4 -5 1 -1 -5 5 -9 0 -13 -16 -13 -18 0 -20 -2 -8 -10 12 -8 12 -10 -5 -10
-11 0 -44 -9 -73 -20 -29 -11 -66 -20 -82 -20 -21 0 -30 -5 -30 -17 0 -38 -25
-48 -102 -43 -49 4 -82 1 -100 -8 -37 -17 -35 -25 4 -20 l31 5 -32 -26 c-17
-14 -31 -30 -31 -34 0 -4 -5 -13 -10 -20 -6 -7 -16 -20 -23 -29 -7 -10 -30
-24 -52 -33 -39 -15 -39 -15 -20 2 26 23 37 50 24 59 -6 3 -18 -2 -27 -11 -10
-10 -11 -15 -4 -11 6 4 12 4 12 -1 0 -8 -47 -33 -63 -33 -5 0 -7 14 -3 30 8
42 -23 105 -36 71 -3 -9 -34 -14 -78 -12 l-25 1 28 25 c15 14 27 35 27 45 0
11 5 20 10 20 6 0 10 -5 10 -12 0 -6 14 8 31 31 29 41 31 42 49 26 28 -26 32
-47 16 -87 -14 -33 -13 -48 4 -48 4 0 16 34 25 75 12 48 23 75 31 75 8 0 14
-11 14 -27 l0 -27 28 27 c38 36 67 87 50 87 -7 0 4 11 25 25 20 14 37 29 37
34 0 4 14 23 31 42 19 20 27 25 20 12 -19 -38 -12 -36 32 9 70 69 94 88 111
88 29 0 17 -26 -19 -43 -20 -9 -39 -25 -43 -34 -17 -43 -59 -92 -82 -97 -14
-3 -30 -9 -35 -13 -19 -15 -95 -106 -95 -114 0 -10 164 47 198 69 19 12 20 17
10 30 -11 13 -11 14 1 7 11 -6 13 -4 8 8 -7 19 12 27 68 27 37 0 47 5 75 38
17 20 42 49 55 63 l24 26 -42 1 c-34 0 -48 -6 -78 -34 -30 -29 -39 -33 -60
-25 -25 9 -18 16 26 23 12 2 21 12 23 26 3 17 10 22 31 22 30 0 83 22 116 49
11 9 17 12 13 7 -4 -5 -3 -15 3 -22 9 -11 19 -8 53 16 41 29 136 69 167 70 9
0 22 -6 28 -14z m-2123 -52 c-13 -28 -21 -14 -11 23 4 19 9 23 14 14 5 -7 3
-23 -3 -37z m1664 41 c0 -2 -10 -10 -22 -16 -21 -11 -22 -11 -9 4 13 16 31 23
31 12z m-1704 -32 c0 -10 3 -38 7 -63 6 -43 5 -44 -7 -16 l-13 29 -6 -24 c-3
-13 -4 -40 -2 -59 3 -25 2 -31 -5 -20 -12 19 -13 95 -1 118 5 9 12 25 15 35 3
9 7 17 9 17 1 0 3 -8 3 -17z m1427 -18 c-3 -9 -8 -14 -10 -11 -3 3 -2 9 2 15
9 16 15 13 8 -4z m407 -9 c0 -2 -7 -7 -16 -10 -8 -3 -12 -2 -9 4 6 10 25 14
25 6z m-210 -16 c0 -9 -51 -40 -66 -40 -20 0 34 42 64 49 1 1 2 -3 2 -9z
m-1996 -80 c-21 -53 -12 -61 16 -16 12 20 25 36 29 36 10 0 -2 -75 -18 -113
-16 -41 -14 -43 14 -17 14 13 25 18 25 12 0 -6 -4 -13 -9 -16 -5 -4 -7 -19 -5
-36 4 -23 -1 -34 -21 -52 -15 -13 -42 -44 -61 -70 -19 -26 -47 -60 -62 -76
-16 -17 -39 -51 -53 -76 -13 -25 -28 -45 -33 -43 -10 3 -47 117 -37 115 28 -3
37 15 46 85 1 12 9 44 19 70 9 26 16 60 17 75 l1 27 8 -25 c7 -21 8 -22 9 -5
1 11 10 38 21 60 l19 40 -5 -65 c-3 -36 -7 -77 -9 -92 -3 -16 -3 -28 -1 -28
12 0 45 92 49 138 4 30 15 66 27 82 29 41 33 38 14 -10z m864 20 c-7 -10 -14
-17 -17 -15 -4 4 18 35 25 35 2 0 -1 -9 -8 -20z m-9 -65 c-19 -19 -35 -35 -36
-35 -8 0 32 52 46 60 26 15 25 12 -10 -25z m1687 26 c-6 -9 -82 -51 -92 -51
-14 0 11 22 44 40 41 21 56 25 48 11z m118 0 c3 -5 -5 -16 -19 -25 -33 -22
-33 -38 1 -26 32 13 124 13 124 1 0 -5 -9 -13 -21 -16 -16 -5 -18 -9 -8 -21
14 -17 7 -27 -24 -29 -14 -1 -21 -8 -19 -19 2 -13 -7 -16 -60 -16 -69 0 -92
17 -81 59 3 12 1 21 -6 21 -6 0 -11 8 -11 18 0 31 109 78 124 53z m-2167 -63
c-3 -7 -5 -2 -5 12 0 14 2 19 5 13 2 -7 2 -19 0 -25z m-1640 0 c-3 -8 -6 -5
-6 6 -1 11 2 17 5 13 3 -3 4 -12 1 -19z m1563 -12 c0 -3 -4 -8 -10 -11 -5 -3
-10 -1 -10 4 0 6 5 11 10 11 6 0 10 -2 10 -4z m1010 -40 c0 -27 -14 -41 -30
-31 -11 7 8 55 22 55 4 0 8 -11 8 -24z m962 12 c6 -17 -30 -34 -84 -42 l-43
-7 55 30 c63 34 67 35 72 19z m-3632 -62 c0 -6 -9 0 -20 12 -11 12 -20 27 -20
34 0 14 39 -31 40 -46z m1039 -38 c-7 -12 -12 -27 -11 -31 1 -5 -3 -5 -9 -1
-9 5 -10 2 -6 -10 4 -10 7 -22 7 -28 0 -5 7 -2 16 6 8 9 20 16 25 16 11 0 6
-11 -29 -57 -17 -24 -25 -47 -27 -90 -1 -32 0 -39 2 -15 5 56 20 54 29 -5 7
-50 -1 -218 -12 -248 -5 -12 -4 -16 3 -12 13 8 33 -44 33 -82 -1 -25 -1 -25
-15 -7 -8 11 -15 29 -15 40 0 10 -2 17 -4 15 -2 -2 0 -51 3 -109 4 -58 4 -110
-1 -116 -4 -6 -9 -23 -10 -39 -2 -15 -8 -29 -15 -32 -6 -3 -9 -11 -6 -19 3 -8
-1 -14 -8 -14 -7 0 -9 -3 -6 -6 4 -4 21 4 39 18 72 53 147 87 119 55 -6 -8 -7
-18 -3 -22 4 -5 -1 -5 -10 -2 -11 4 -17 2 -15 -5 1 -6 -30 -33 -70 -60 -40
-27 -92 -67 -115 -89 -24 -21 -49 -39 -56 -39 -7 0 -11 -4 -8 -8 6 -10 -2 -21
-38 -52 l-29 -25 22 40 c12 22 49 74 82 115 104 131 113 150 112 260 -2 197
-10 357 -21 405 -7 28 -14 60 -17 73 -3 12 -13 22 -23 22 -16 1 -16 1 1 14 13
10 17 29 18 82 1 38 3 61 6 51 4 -15 9 -13 34 14 33 35 48 34 28 -3z m1720
-22 c-21 -31 -56 -52 -67 -41 -8 8 10 25 26 25 9 0 25 14 35 31 10 18 20 29
24 26 3 -4 -5 -22 -18 -41z m-2359 14 c0 -5 -2 -10 -4 -10 -3 0 -8 5 -11 10
-3 6 -1 10 4 10 6 0 11 -4 11 -10z m180 4 c0 -3 -5 -15 -11 -26 -8 -15 -8 -22
0 -27 7 -5 2 -20 -14 -43 -31 -46 -31 -54 -3 -34 66 46 36 -9 -55 -101 -41
-42 -65 -73 -56 -73 8 0 27 13 42 28 23 24 34 28 70 26 24 -2 65 5 96 17 50
18 54 18 66 3 11 -16 16 -14 58 15 26 17 58 47 73 66 14 19 35 35 45 35 10 0
20 4 23 9 5 8 46 23 46 17 0 -12 -50 -57 -58 -52 -5 3 -9 -2 -8 -11 0 -9 -5
-18 -12 -20 -7 -3 -10 1 -6 11 3 9 1 16 -5 16 -6 0 -11 -4 -11 -8 0 -5 -9 -18
-20 -30 -19 -20 -19 -22 -2 -31 15 -9 15 -10 -5 -11 -27 0 -70 -57 -55 -72 7
-7 20 -7 41 0 24 9 31 8 31 -2 0 -15 -43 -26 -101 -26 -22 0 -39 -5 -39 -11 0
-5 5 -7 11 -3 7 4 10 1 7 -7 -3 -8 -11 -13 -18 -11 -6 1 -10 -3 -7 -10 5 -14
7 -14 50 -4 53 12 20 -31 -68 -90 -87 -59 -89 -60 -82 -41 4 11 2 14 -7 11
-15 -6 -29 33 -15 42 5 3 9 15 9 27 0 12 7 31 15 41 8 11 15 24 15 30 0 16
-59 -57 -60 -74 -1 -8 -7 -1 -14 15 l-13 30 -11 -30 -12 -30 5 35 c4 32 3 31
-13 -12 -22 -61 -32 -69 -32 -26 0 48 -9 53 -42 21 -33 -31 -36 -21 -8 25 27
44 25 50 -7 21 -16 -13 -39 -33 -52 -44 l-24 -20 17 27 c13 20 14 27 4 31 -9
4 -8 6 3 6 17 1 22 31 5 32 -6 0 -1 4 12 10 13 5 21 12 18 17 -2 4 -1 14 4 22
5 8 2 22 -7 37 -8 12 -13 29 -10 37 3 8 2 16 -3 18 -12 4 51 164 74 186 16 16
17 15 10 -28 l-7 -45 19 23 c32 37 104 84 104 66z m-202 -48 c-12 -22 -14 -27
-17 -61 -1 -16 -3 -17 -11 -5 -5 8 -6 17 -2 20 7 5 10 19 15 67 1 16 5 19 14
11 10 -8 10 -15 1 -32z m922 23 c0 -5 -4 -8 -9 -5 -5 3 -14 -1 -21 -9 -10 -12
-9 -15 6 -15 15 0 15 -3 -6 -25 -13 -14 -26 -22 -29 -19 -3 3 2 11 11 18 10 7
15 16 11 19 -12 13 -21 7 -27 -19 -4 -15 -12 -24 -19 -21 -8 3 -14 -4 -15 -16
-1 -16 1 -18 7 -8 6 9 11 10 15 2 4 -6 2 -11 -4 -11 -6 0 -8 -5 -4 -12 6 -10
5 -10 -8 -1 -8 7 -18 9 -23 5 -4 -4 -3 3 3 14 6 12 9 24 6 27 -7 7 78 86 94
87 6 0 12 -5 12 -11z m2065 1 c7 -11 -36 -24 -62 -17 -15 3 -14 5 7 15 32 14
47 14 55 2z m-1455 -24 c0 -11 -19 -15 -25 -6 -3 5 1 10 9 10 9 0 16 -2 16 -4z
m1639 -22 c2 -2 -5 -4 -15 -4 -11 0 -29 -7 -40 -15 -10 -8 -30 -14 -44 -14
l-25 0 29 24 c23 18 37 22 60 18 17 -3 33 -7 35 -9z m95 -27 c-6 -16 -64 -52
-64 -40 0 8 63 64 67 59 2 -2 1 -10 -3 -19z m59 1 c-13 -12 -26 -19 -29 -15
-4 4 1 14 12 22 29 22 41 18 17 -7z m-186 -14 c-3 -3 -12 -4 -19 -1 -8 3 -5 6
6 6 11 1 17 -2 13 -5z m223 -14 c0 -5 -4 -10 -10 -10 -5 0 -10 5 -10 10 0 6 5
10 10 10 6 0 10 -4 10 -10z m60 -15 c-7 -8 -17 -15 -23 -15 -6 0 -2 7 9 15 25
19 30 19 14 0z m-3453 -27 c-3 -7 -5 -2 -5 12 0 14 2 19 5 13 2 -7 2 -19 0
-25z m3173 20 c0 -4 -17 -10 -37 -14 -51 -8 -57 -7 -61 5 -2 6 3 8 11 5 8 -3
17 -2 20 3 6 10 67 11 67 1z m-924 -5 c-11 -11 -48 -14 -41 -3 3 5 16 10 27
10 12 0 18 -3 14 -7z m1044 -14 c0 -5 -7 -9 -15 -9 -15 0 -20 12 -9 23 8 8 24
-1 24 -14z m-2420 2 c25 -7 25 -7 3 -13 -13 -3 -23 -2 -23 2 0 4 -9 6 -20 3
-11 -3 -18 -8 -15 -12 2 -4 -4 -15 -15 -23 -17 -15 -19 -15 -25 0 -3 9 -2 18
3 20 5 1 18 9 28 17 21 16 27 16 64 6z m-260 -21 c0 -5 -10 -14 -21 -21 -17
-9 -24 -8 -38 6 -14 16 -14 17 0 12 9 -3 22 -1 30 4 18 11 29 11 29 -1z m1834
-5 c-4 -8 -11 -15 -16 -15 -6 0 -5 6 2 15 7 8 14 15 16 15 2 0 1 -7 -2 -15z
m910 5 c-7 -7 -19 -7 -35 -1 -23 9 -22 10 11 10 23 1 31 -2 24 -9z m-1489 -29
c-3 -6 -11 -9 -16 -6 -5 3 -6 0 -3 -8 3 -8 -2 -17 -10 -20 -13 -5 -13 -2 -5
20 15 40 20 46 31 35 6 -6 7 -15 3 -21z m536 -24 c-10 -9 -11 -8 -5 6 3 10 9
15 12 12 3 -3 0 -11 -7 -18z m179 9 c0 -3 -4 -8 -10 -11 -5 -3 -10 -1 -10 4 0
6 5 11 10 11 6 0 10 -2 10 -4z m105 -6 c-3 -5 -11 -10 -16 -10 -6 0 -7 5 -4
10 3 6 11 10 16 10 6 0 7 -4 4 -10z m-2135 -14 c0 -3 -4 -8 -10 -11 -5 -3 -10
-1 -10 4 0 6 5 11 10 11 6 0 10 -2 10 -4z m1821 -19 c-10 -9 -11 -8 -5 6 3 10
9 15 12 12 3 -3 0 -11 -7 -18z m1154 13 c-3 -5 -11 -10 -16 -10 -6 0 -7 5 -4
10 3 6 11 10 16 10 6 0 7 -4 4 -10z m-1670 -20 c-3 -5 -11 -10 -16 -10 -6 0
-7 5 -4 10 3 6 11 10 16 10 6 0 7 -4 4 -10z m818 -4 c8 -20 -1 -26 -39 -26
-18 0 -56 -5 -84 -12 -40 -9 -48 -14 -34 -20 13 -5 6 -7 -20 -5 -22 1 -41 7
-43 12 -4 12 86 47 142 56 66 10 73 10 78 -5z m-263 -1 c0 -2 -10 -9 -22 -15
-22 -11 -22 -10 -4 4 21 17 26 19 26 11z m-1817 -40 c-3 -9 -8 -14 -10 -11 -3
3 -2 9 2 15 9 16 15 13 8 -4z m1184 -57 c-3 -8 -6 -5 -6 6 -1 11 2 17 5 13 3
-3 4 -12 1 -19z m-1332 -64 c-8 -27 -17 -62 -21 -79 l-7 -30 -9 40 c-9 41 -1
69 31 108 21 25 22 17 6 -39z m825 46 c18 -10 19 -12 3 -30 -10 -11 -21 -20
-26 -20 -5 0 -23 -10 -40 -22 l-32 -22 23 25 c12 14 22 31 22 37 0 7 5 12 10
12 6 0 10 7 10 15 0 18 5 18 30 5z m430 -36 c-12 -13 -11 -17 1 -25 8 -5 20
-7 27 -4 6 2 12 0 12 -5 0 -9 -18 -14 -48 -13 -10 1 -9 -5 3 -23 9 -14 11 -24
5 -24 -14 0 -88 37 -125 64 l-30 21 45 6 c25 4 50 3 55 -2 6 -4 21 1 35 11 28
21 39 18 20 -6z m-123 10 c-3 -3 -12 -4 -19 -1 -8 3 -5 6 6 6 11 1 17 -2 13
-5z m-1952 -14 c-3 -5 -1 -10 5 -10 6 0 8 -5 5 -10 -4 -6 -11 -8 -16 -5 -12 8
-11 35 2 35 5 0 7 -4 4 -10z m1805 0 c12 -8 9 -10 -12 -10 -16 0 -28 5 -28 10
0 13 20 13 40 0z m-1267 -35 c-3 -9 -8 -14 -10 -11 -3 3 -2 9 2 15 9 16 15 13
8 -4z m586 -57 c-1 -60 -2 -61 -10 -23 -11 55 -11 85 1 85 6 0 10 -27 9 -62z
m869 15 c33 -31 58 -73 43 -73 -15 0 -78 68 -78 84 0 21 1 21 35 -11z m1302
-23 c0 -6 -8 -13 -17 -17 -10 -3 -27 -14 -38 -23 -28 -25 -65 -35 -65 -18 0 7
22 25 48 40 51 29 72 34 72 18z m-3209 -31 c-9 -22 -10 -22 -10 -3 -1 11 2 24
6 27 12 12 14 0 4 -24z m3279 -13 c0 -2 -7 -7 -16 -10 -8 -3 -12 -2 -9 4 6 10
25 14 25 6z m-3253 -38 c-3 -7 -5 -2 -5 12 0 14 2 19 5 13 2 -7 2 -19 0 -25z
m3198 4 c-3 -3 -11 0 -18 7 -9 10 -8 11 6 5 10 -3 15 -9 12 -12z m-2188 -34
c-3 -7 -5 -2 -5 12 0 14 2 19 5 13 2 -7 2 -19 0 -25z m54 -1 c-10 -9 -11 -8
-5 6 3 10 9 15 12 12 3 -3 0 -11 -7 -18z m-67 -32 c-4 -8 -8 -15 -10 -15 -2 0
-4 7 -4 15 0 8 4 15 10 15 5 0 7 -7 4 -15z m316 7 c0 -8 -72 -79 -105 -103
-11 -7 4 14 34 49 49 57 71 74 71 54z m-1180 -5 c0 -2 -9 -12 -20 -22 -24 -21
-27 -14 -4 9 15 15 24 20 24 13z m890 -49 c-52 -47 -66 -55 -40 -22 14 17 28
30 32 28 4 -3 9 0 13 6 3 5 9 10 13 10 4 0 -4 -10 -18 -22z m-1236 -44 c3 -8
2 -12 -4 -9 -6 3 -10 10 -10 16 0 14 7 11 14 -7z m123 -20 c-3 -3 -12 -4 -19
-1 -8 3 -5 6 6 6 11 1 17 -2 13 -5z m303 -14 c0 -5 -5 -10 -11 -10 -5 0 -7 5
-4 10 3 6 8 10 11 10 2 0 4 -4 4 -10z m1630 2 c0 -4 -10 -13 -22 -21 -23 -14
-23 -14 -4 8 20 22 26 25 26 13z m66 -4 c4 -7 3 -8 -4 -4 -12 7 -49 -40 -39
-50 3 -3 17 2 30 11 14 9 45 18 69 20 39 3 41 2 18 -8 -14 -7 -31 -18 -39 -25
-8 -8 -29 -11 -52 -9 -21 2 -39 0 -39 -4 0 -5 -4 -9 -10 -9 -5 0 -10 7 -10 16
0 9 -5 12 -12 8 -9 -5 -8 -2 1 10 11 13 16 14 22 4 6 -9 9 -6 9 9 0 32 42 55
56 31z m-417 -24 c-27 -29 -91 -68 -129 -79 l-25 -7 27 26 c35 34 118 86 137
86 10 0 8 -7 -10 -26z m-1342 3 c0 -7 -9 -13 -19 -13 -18 0 -18 1 -2 13 10 7
18 13 19 13 1 0 2 -6 2 -13z m-227 -63 c0 -28 -4 -43 -10 -39 -5 3 -10 26 -10
51 0 28 4 43 10 39 6 -3 10 -26 10 -51z m-80 -1 c0 -5 -13 -19 -30 -31 -31
-23 -45 -28 -36 -13 4 5 1 11 -6 13 -15 5 13 38 31 38 6 0 11 7 11 16 0 14 2
14 15 0 8 -8 15 -19 15 -23z m320 33 c0 -3 -21 -19 -46 -36 -25 -17 -44 -25
-42 -18 3 7 22 23 44 35 45 25 44 24 44 19z m1200 0 c0 -3 -4 -8 -10 -11 -5
-3 -10 -1 -10 4 0 6 5 11 10 11 6 0 10 -2 10 -4z m-1497 -26 c3 -11 1 -18 -4
-14 -5 3 -9 12 -9 20 0 20 7 17 13 -6z m236 17 c-2 -1 -12 -9 -22 -16 -15 -12
-17 -12 -11 3 3 9 13 16 22 16 8 0 13 -1 11 -3z m1229 -12 c-29 -23 -108 -74
-104 -66 12 19 -6 12 -24 -9 -18 -21 -18 -21 -16 5 1 18 7 25 21 25 23 0 85
36 85 49 0 5 9 7 20 4 12 -3 19 -7 18 -8z m484 -7 c-17 -17 -15 -36 6 -41 9
-3 -1 -6 -23 -7 -22 -1 -33 -4 -25 -7 8 -4 -7 -12 -35 -19 -60 -16 -75 -17
-55 -4 21 13 10 12 -70 -6 -94 -21 -119 -14 -55 15 103 47 109 49 134 39 14
-5 27 -5 30 0 10 15 64 41 86 42 15 0 16 -3 7 -12z m1456 -11 c7 3 10 -1 6
-11 -5 -12 -10 -13 -30 -4 -13 6 -24 15 -24 20 0 5 8 5 18 0 9 -5 23 -7 30 -5z
m-3283 -67 c-12 -39 -14 -40 -9 -10 8 49 16 77 21 65 2 -6 -4 -30 -12 -55z
m1067 -3 c-17 -23 -42 -49 -56 -56 -16 -9 -26 -23 -26 -37 0 -14 -8 -24 -22
-28 -18 -4 -20 -8 -11 -17 10 -10 22 -8 55 5 58 25 105 41 156 57 23 6 42 16
42 21 0 4 8 8 18 8 9 0 75 20 147 45 71 25 134 45 140 45 20 -1 -24 -20 -106
-46 -46 -14 -104 -38 -128 -52 -28 -16 -42 -21 -37 -12 6 12 5 12 -6 0 -7 -8
-19 -15 -25 -16 -59 -5 -59 -5 -38 -14 11 -5 15 -9 8 -9 -6 -1 -20 -4 -30 -7
-15 -5 -15 -4 -3 5 22 16 -3 13 -41 -4 -34 -16 -34 -16 -4 -10 38 8 21 -10
-18 -19 -22 -5 -27 -4 -21 6 4 7 -2 4 -13 -7 -11 -11 -19 -22 -17 -24 2 -2 24
-3 50 -3 45 1 113 27 164 63 24 18 144 60 205 73 22 5 26 4 15 -4 -16 -10 -12
-11 47 -14 25 -1 44 -16 21 -16 -36 0 -192 -52 -245 -82 l-56 -32 27 -21 c34
-27 33 -39 -2 -32 -32 6 -46 0 -55 -25 -3 -10 -16 -18 -27 -18 -11 0 -20 -5
-20 -11 0 -5 -4 -7 -10 -4 -5 3 -10 1 -10 -4 0 -15 -37 -14 -43 2 -2 6 -7 -5
-11 -25 -4 -21 -11 -38 -16 -38 -6 0 -10 -7 -10 -16 0 -8 -4 -12 -10 -9 -5 3
-10 1 -10 -6 0 -7 -3 -9 -6 -6 -4 4 -2 12 3 19 17 23 23 47 9 42 -9 -3 -11 11
-8 60 5 72 11 65 -70 81 -19 3 -92 -16 -104 -28 -4 -4 -20 -7 -36 -7 -16 0
-27 -4 -24 -8 2 -4 -5 -9 -16 -9 -12 -1 -24 -6 -27 -10 -13 -19 -64 -34 -75
-23 -8 8 -6 9 7 5 9 -4 17 -3 17 3 0 14 -37 7 -101 -18 -27 -11 -55 -20 -62
-20 -7 1 57 29 141 64 84 35 158 68 165 74 6 6 21 12 32 15 11 2 0 3 -25 1
-25 -1 -37 0 -27 2 9 3 17 10 17 15 0 4 -11 4 -25 -3 -13 -6 -23 -14 -20 -17
2 -4 -5 -7 -15 -8 -18 -2 -18 -1 1 18 10 10 25 19 32 19 7 0 66 38 132 85 66
47 126 85 133 85 8 0 2 -16 -16 -43z m2253 33 c-4 -6 3 -9 17 -7 14 1 23 -4
26 -15 5 -24 -8 -22 -43 7 -24 19 -26 24 -12 25 10 0 15 -4 12 -10z m-3549
-59 c-9 -16 -12 -32 -8 -36 4 -5 1 -5 -5 -1 -7 4 -13 14 -13 22 0 8 -5 14 -11
14 -5 0 -7 5 -3 11 5 8 8 8 14 0 5 -9 10 -8 20 4 19 23 22 18 6 -14z m301 4
c-4 -25 -4 -25 14 -9 17 15 19 15 19 1 0 -9 -10 -19 -22 -23 -13 -4 -27 -12
-31 -18 -7 -10 -2 29 9 62 7 23 16 12 11 -13z m33 -54 c0 -22 -15 -35 -30 -26
-6 4 -5 13 3 25 15 25 27 25 27 1z m-163 -89 c-14 -17 -16 -12 -10 23 5 25 7
27 13 10 4 -11 3 -26 -3 -33z m-213 -74 c7 -5 4 -8 -6 -8 -12 0 -18 7 -17 23
0 15 2 17 6 7 3 -8 11 -18 17 -22z m49 -40 c-17 -22 -24 -50 -11 -42 7 5 9 2
6 -8 -4 -8 -2 -21 4 -29 8 -11 9 -10 4 3 -3 11 -1 17 7 15 7 -1 12 5 12 13 0
8 -6 14 -12 13 -14 -3 -17 9 -6 20 3 4 12 -2 20 -13 12 -17 11 -23 -3 -45 -12
-18 -20 -22 -29 -15 -6 5 -16 6 -20 2 -5 -4 -4 -1 0 7 6 11 4 13 -8 8 -11 -4
-17 -1 -17 9 0 8 5 12 10 9 9 -6 15 16 10 40 -2 11 31 37 38 30 3 -2 0 -10 -5
-17z m1247 7 c0 -9 -10 -15 -22 -16 -22 -1 -22 -1 2 -8 21 -6 15 -9 -30 -15
-87 -11 -183 -15 -173 -6 9 8 133 47 173 53 46 8 50 7 50 -8z m-1154 -33 c-15
-15 -15 -15 -4 10 7 15 15 23 17 17 2 -6 -4 -18 -13 -27z m444 21 c0 -5 -16
-26 -35 -48 -41 -47 -48 -70 -7 -26 15 16 45 37 67 46 38 16 39 16 25 -2 -8
-10 -17 -20 -20 -23 -15 -13 -52 -72 -48 -76 3 -2 10 6 17 19 15 27 48 50 61
42 16 -10 12 -55 -5 -55 -9 0 -12 -6 -9 -15 4 -8 14 -15 23 -15 27 0 24 -49
-4 -62 l-24 -11 21 -17 c21 -17 21 -17 -20 -27 -34 -9 -42 -8 -42 3 0 8 -7 14
-15 14 -9 0 -12 6 -9 15 5 11 2 13 -9 9 -16 -6 -12 -33 6 -45 6 -4 7 -14 4
-24 -10 -23 -63 -17 -59 8 2 9 -2 17 -8 17 -5 0 -10 5 -10 11 0 6 6 9 14 6 8
-3 17 0 20 8 6 17 -21 29 -28 12 -2 -7 -5 -4 -5 6 -1 9 4 17 9 17 6 0 10 4 10
10 0 18 -29 -2 -32 -22 -2 -15 -22 -27 -80 -48 -43 -16 -78 -24 -78 -19 0 8
15 13 33 10 4 0 7 6 7 15 0 10 5 14 15 10 9 -3 20 3 28 15 6 11 32 29 55 41
32 15 40 23 30 29 -11 7 -10 9 1 9 8 0 11 3 7 7 -4 5 -13 1 -19 -7 -11 -14
-51 -44 -86 -65 -10 -5 -12 -4 -7 3 4 7 2 12 -4 12 -6 0 -8 5 -5 10 4 6 12 7
18 4 7 -4 9 -4 5 1 -9 10 39 71 115 147 54 54 77 69 77 51z m-326 -38 c-9 -14
-21 -25 -26 -25 -5 0 -6 -4 -3 -10 3 -5 1 -11 -4 -11 -6 -1 -15 -2 -20 -3 -5
0 -13 -5 -18 -10 -5 -5 1 -7 15 -3 12 3 22 2 22 -3 0 -8 -35 -20 -62 -20 -28
0 -21 14 16 34 32 17 46 34 45 54 0 4 10 10 23 14 13 3 24 6 26 7 1 1 -5 -10
-14 -24z m536 11 c0 -2 -13 -9 -30 -15 -35 -12 -41 -5 -7 9 25 10 37 12 37 6z
m573 -77 c-4 -15 -8 -17 -14 -8 -8 14 -3 29 11 29 4 0 6 -9 3 -21z m2115 -34
c-3 -3 -9 2 -12 12 -6 14 -5 15 5 6 7 -7 10 -15 7 -18z m-2123 -34 c-3 -5 0
-13 6 -16 20 -13 -1 -84 -36 -120 -19 -18 -32 -35 -29 -38 2 -2 -2 -10 -11
-17 -13 -11 -14 -10 -9 6 4 10 16 31 26 46 10 14 18 31 18 38 0 7 8 25 17 41
14 24 15 33 5 49 -10 17 -10 20 4 20 8 0 13 -4 9 -9z m-1198 -7 c-3 -3 -12 -4
-19 -1 -8 3 -5 6 6 6 11 1 17 -2 13 -5z m107 -5 c-3 -5 -18 -9 -33 -9 -15 0
-31 -3 -35 -7 -3 -4 -17 -8 -29 -9 l-22 -3 23 11 c12 6 22 14 22 17 0 4 18 7
40 7 22 1 37 -2 34 -7z m-177 -21 c-3 -8 -6 -5 -6 6 -1 11 2 17 5 13 3 -3 4
-12 1 -19z m1319 -46 c-18 -16 -18 -16 -6 6 6 13 14 21 18 18 3 -4 -2 -14 -12
-24z m-116 -32 c0 -5 -4 -10 -9 -10 -6 0 -13 5 -16 10 -3 6 1 10 9 10 9 0 16
-4 16 -10z m-673 -46 c-3 -3 -12 -4 -19 -1 -8 3 -5 6 6 6 11 1 17 -2 13 -5z
m-162 -14 c3 -5 1 -10 -4 -10 -6 0 -11 5 -11 10 0 6 2 10 4 10 3 0 8 -4 11
-10z m155 -14 c22 -10 28 -16 15 -15 -56 4 -79 -19 -49 -48 12 -12 13 -18 3
-23 -9 -6 -7 -9 4 -11 11 -3 14 -8 8 -18 -7 -12 -14 -10 -36 8 -15 11 -34 21
-43 21 -15 0 45 -63 88 -91 l24 -16 -40 0 c-32 -1 -35 0 -14 7 l25 7 -25 10
c-14 6 -26 7 -28 3 -2 -4 -11 -6 -22 -3 -15 4 -18 1 -13 -15 3 -11 11 -18 17
-16 7 3 18 -2 25 -10 10 -12 8 -14 -16 -11 -15 1 -29 8 -31 14 -2 7 -12 20
-22 29 -19 19 -38 108 -20 97 5 -3 10 -2 10 2 0 12 -37 42 -44 36 -3 -4 -6 -1
-6 5 0 7 12 12 26 12 14 0 23 4 19 10 -3 6 -1 10 5 10 6 0 9 4 5 9 -13 23 86
20 135 -3z m67 18 c-3 -3 -12 -4 -19 -1 -8 3 -5 6 6 6 11 1 17 -2 13 -5z
m-397 -39 l-45 -11 40 -17 c22 -10 29 -15 15 -12 -14 4 -44 11 -67 17 -24 5
-43 13 -43 18 0 11 41 20 66 14 13 -3 31 -1 41 4 9 6 22 8 28 4 5 -3 -10 -11
-35 -17z m-115 -21 c11 -4 23 -8 27 -8 4 -1 14 -11 23 -23 14 -20 14 -22 -5
-28 -19 -6 -69 21 -70 38 0 5 -9 5 -20 2 -16 -5 -20 -2 -20 19 0 23 3 24 23
17 12 -5 31 -13 42 -17z m435 -4 c8 -5 11 -10 5 -10 -5 0 -17 5 -25 10 -8 5
-10 10 -5 10 6 0 17 -5 25 -10z m370 0 c0 -5 -7 -10 -16 -10 -8 0 -12 5 -9 10
3 6 10 10 16 10 5 0 9 -4 9 -10z m-140 -100 c0 -4 -9 -6 -21 -3 -15 4 -17 8
-8 14 14 8 29 3 29 -11z m1600 -65 c0 -18 -26 -54 -42 -58 -18 -5 -18 -4 -5
16 7 12 17 28 21 35 7 11 26 17 26 7z m80 -4 c0 -6 24 -8 55 -6 51 4 72 -5 43
-19 -7 -3 -2 -3 12 0 14 4 28 12 32 18 6 8 8 7 8 -1 0 -7 8 -13 19 -13 33 0
44 -25 37 -83 -9 -72 -34 -151 -37 -117 l-1 25 -7 -27 -6 -26 -40 15 c-22 9
-62 17 -90 18 -36 2 -51 7 -53 18 -2 10 -16 17 -35 19 -26 2 -33 9 -41 36 -5
17 -12 32 -16 32 -4 0 -15 -25 -25 -56 -12 -39 -20 -52 -26 -43 -12 19 -11 50
2 87 8 25 16 30 37 29 15 -1 30 -6 34 -12 4 -5 8 5 8 23 0 17 5 32 10 32 6 0
10 6 10 13 0 7 12 20 28 29 31 20 42 22 42 9z m-1864 -53 c-3 -18 -5 -37 -5
-41 -1 -5 -5 -6 -10 -3 -5 3 -7 20 -6 38 3 40 3 38 15 38 5 0 8 -15 6 -32z
m1274 -18 c0 -13 -1 -13 -10 0 -5 8 -10 22 -10 30 0 13 1 13 10 0 5 -8 10 -22
10 -30z m-1317 0 c3 -11 1 -18 -4 -14 -5 3 -9 0 -9 -7 0 -7 -3 -10 -6 -6 -5 5
4 47 11 47 1 0 5 -9 8 -20z m9 -98 c-3 -15 -11 -30 -18 -35 -7 -4 -11 -14 -8
-22 4 -8 2 -15 -4 -15 -8 0 -9 17 -3 53 0 5 5 5 11 2 6 -4 7 6 4 25 -5 24 -4
29 8 25 10 -4 13 -15 10 -33z m164 -17 c3 -14 10 -23 14 -20 4 3 14 -2 21 -11
11 -14 11 -18 -4 -29 -9 -7 -17 -21 -17 -31 0 -11 4 -15 8 -9 4 6 15 16 24 24
17 13 17 11 3 -29 -18 -52 -34 -72 -48 -63 -6 4 -8 0 -5 -9 9 -21 -8 -46 -22
-32 -7 7 -3 22 16 49 23 35 24 39 9 48 -14 8 -15 11 -4 18 11 7 12 12 1 29 -8
14 -9 20 -1 20 8 0 8 4 2 13 -14 18 -23 57 -12 57 5 0 11 -11 15 -25z m-719
-233 c-9 -10 -17 -23 -17 -29 0 -6 -7 -16 -15 -23 -12 -10 -15 -10 -15 4 0 9
5 16 11 16 5 0 7 4 4 10 -9 15 26 63 38 51 7 -7 5 -16 -6 -29z m-57 -5 c10 -4
8 -6 -7 -6 -16 -1 -23 5 -23 17 0 10 3 13 8 6 4 -6 14 -14 22 -17z m704 -32
c-4 -8 -10 -15 -16 -15 -5 0 -6 -5 -2 -12 4 -6 3 -8 -4 -4 -6 3 -27 -10 -46
-29 -20 -20 -36 -32 -36 -27 0 7 99 102 107 102 1 0 0 -7 -3 -15z m40 3 c-23
-38 -84 -103 -84 -90 0 6 5 14 10 17 6 4 7 11 4 17 -4 6 -2 8 3 5 6 -4 23 9
37 28 26 34 45 49 30 23z m-227 -34 c-3 -3 -12 -4 -19 -1 -8 3 -5 6 6 6 11 1
17 -2 13 -5z m-507 -14 c0 -5 -2 -10 -4 -10 -3 0 -8 5 -11 10 -3 6 -1 10 4 10
6 0 11 -4 11 -10z m1722 -155 c3 -13 1 -22 -3 -19 -9 5 -13 44 -5 44 2 0 6
-11 8 -25z m-1502 -169 c0 -2 -7 -7 -16 -10 -8 -3 -12 -2 -9 4 6 10 25 14 25
6z m85 -41 c6 0 21 7 33 14 26 14 37 9 29 -13 -8 -21 -47 -41 -47 -24 0 9 -3
9 -8 2 -4 -6 -24 -22 -45 -36 -29 -20 -34 -27 -22 -32 10 -4 14 -2 9 5 -5 8
-2 9 12 1 14 -8 21 -6 30 6 12 16 13 15 10 -2 -1 -10 -11 -23 -21 -28 -13 -8
-16 -7 -11 1 4 6 2 11 -3 11 -6 0 -11 -6 -11 -14 0 -8 -5 -18 -11 -22 -7 -4
-9 0 -5 14 5 15 3 20 -8 18 -9 -1 -19 -6 -23 -11 -4 -4 -1 -5 7 0 8 4 6 -1 -6
-12 -32 -32 -62 -45 -70 -31 -5 7 -3 8 6 3 10 -6 12 -4 7 8 -4 11 -1 17 8 17
8 0 15 5 15 11 0 5 -6 7 -12 3 -7 -4 -2 4 11 19 12 14 20 30 16 36 -3 6 1 14
9 17 9 3 16 14 16 25 0 10 10 25 23 34 20 14 23 14 37 -2 8 -10 20 -18 25 -18z
m135 16 c0 -6 -4 -13 -10 -16 -5 -3 -10 1 -10 9 0 9 5 16 10 16 6 0 10 -4 10
-9z m308 -72 c18 -6 37 -7 43 -4 6 4 13 -2 16 -14 3 -12 6 -21 7 -21 0 0 24 6
51 13 28 7 87 12 132 12 46 0 83 4 83 9 0 4 8 5 18 1 22 -9 49 -12 192 -20 63
-3 116 -10 118 -15 2 -5 10 -6 19 -3 9 4 14 2 10 -3 -3 -5 3 -10 13 -10 10 0
16 4 14 8 -3 4 6 4 20 -2 14 -5 26 -7 26 -4 0 4 6 1 14 -5 7 -6 34 -14 60 -17
26 -4 49 -11 52 -15 3 -5 16 -6 30 -3 13 3 30 2 37 -3 6 -5 44 -17 82 -27 146
-35 231 -69 220 -86 -2 -4 7 -5 22 -2 19 4 24 2 18 -8 -5 -9 -2 -10 15 -5 15
5 20 4 16 -4 -5 -7 3 -11 21 -11 15 -1 53 -10 83 -21 30 -10 84 -29 120 -40
36 -12 72 -27 81 -35 8 -8 21 -14 27 -14 7 0 12 -4 12 -9 0 -5 7 -12 16 -15 9
-4 13 -2 8 5 -4 8 0 8 14 0 12 -6 24 -16 27 -21 4 -6 11 -8 16 -5 5 4 9 1 9
-4 0 -6 6 -11 13 -11 6 0 44 -15 82 -34 39 -19 113 -55 165 -80 52 -25 121
-68 154 -95 32 -27 73 -55 90 -62 35 -14 104 -67 153 -117 18 -19 33 -31 33
-29 0 3 17 -11 38 -32 109 -107 231 -174 451 -247 116 -38 291 -119 291 -135
0 -14 -60 -2 -140 29 -36 13 -88 30 -115 37 -28 7 -78 21 -110 32 -33 11 -96
31 -140 43 -44 13 -91 31 -104 41 -13 11 -30 19 -38 19 -7 0 -16 6 -19 14 -3
7 -24 16 -47 19 -50 7 -116 40 -137 68 -11 14 -34 23 -79 29 -34 5 -68 13 -74
18 -7 6 -30 13 -52 17 -22 4 -63 15 -91 25 -29 11 -54 16 -57 13 -4 -3 -13 1
-21 10 -9 8 -44 18 -78 22 -35 4 -70 13 -78 20 -8 7 -33 15 -55 19 -130 18
-154 23 -166 32 -23 18 -111 37 -166 35 -29 -1 -53 2 -53 8 0 5 5 11 11 13 5
2 12 18 15 36 5 31 4 33 -15 22 -12 -6 -26 -8 -31 -5 -6 4 -17 -1 -26 -10 -9
-9 -22 -14 -30 -11 -7 3 -18 -2 -24 -10 -22 -25 -30 -15 -24 27 6 38 5 40 -17
37 -13 -1 -55 2 -94 6 -70 9 -99 12 -122 15 -7 0 -13 8 -13 16 0 9 -6 12 -15
9 -9 -4 -15 0 -15 10 0 9 -4 16 -10 16 -5 0 -10 -4 -10 -10 0 -6 -9 -6 -24 0
-13 5 -27 6 -30 3 -3 -4 -6 -1 -6 5 0 8 -7 9 -26 2 -18 -7 -31 -7 -40 1 -7 6
-18 8 -25 4 -8 -5 -9 -1 -5 13 9 28 -13 40 -31 17 -9 -14 -13 -15 -13 -4 0 11
-2 11 -9 1 -7 -11 -20 -11 -72 -1 -35 7 -71 19 -80 26 -14 12 -18 12 -22 1 -5
-13 -11 40 -8 77 2 16 0 17 -8 6 -14 -21 -89 -8 -107 18 -8 11 -21 18 -29 14
-9 -3 -22 0 -29 6 -10 9 -15 9 -18 1 -2 -8 -11 -8 -32 -1 -15 6 -32 9 -37 5
-5 -3 -9 1 -9 9 0 8 -6 20 -14 26 -11 10 -15 8 -19 -6 -3 -10 -5 1 -6 25 0 23
-5 42 -11 42 -20 0 -59 -23 -53 -32 3 -6 -4 -5 -15 1 -11 6 -55 11 -97 11 -75
0 -76 0 -88 30 -12 28 -13 28 -25 10 -9 -16 -9 -20 0 -20 9 0 9 -3 0 -12 -21
-21 -32 4 -20 48 12 43 4 90 -11 65 -10 -16 -22 -16 -32 1 -7 10 -9 9 -9 -4 0
-20 -8 -22 -29 -9 -8 5 -12 19 -9 35 3 14 1 27 -3 28 -5 2 -11 22 -15 44 -5
36 -3 42 16 47 12 3 19 10 16 16 -4 6 5 6 26 0 18 -6 48 -15 66 -20z m-588 1
c0 -5 -5 -10 -11 -10 -5 0 -7 5 -4 10 3 6 8 10 11 10 2 0 4 -4 4 -10z m72
-102 c-22 -22 -13 -29 16 -12 25 15 26 15 7 -1 -11 -9 -19 -24 -17 -33 2 -12
-1 -10 -13 6 -13 18 -14 26 -5 37 7 8 15 15 18 15 3 0 1 -5 -6 -12z m608 -208
c0 -5 -4 -10 -10 -10 -5 0 -10 5 -10 10 0 6 5 10 10 10 6 0 10 -4 10 -10z
m-773 -706 c-3 -3 -12 -4 -19 -1 -8 3 -5 6 6 6 11 1 17 -2 13 -5z m1100 -30
c-3 -3 -12 -4 -19 -1 -8 3 -5 6 6 6 11 1 17 -2 13 -5z m713 -204 c0 -5 -5 -10
-11 -10 -5 0 -7 5 -4 10 3 6 8 10 11 10 2 0 4 -4 4 -10z"/>
<path d="M3095 4490 c-3 -5 -1 -10 4 -10 6 0 11 5 11 10 0 6 -2 10 -4 10 -3 0
-8 -4 -11 -10z"/>
<path d="M3030 4460 c-6 -11 -8 -20 -6 -20 3 0 10 9 16 20 6 11 8 20 6 20 -3
0 -10 -9 -16 -20z"/>
<path d="M2560 4089 c0 -5 5 -7 10 -4 6 3 10 8 10 11 0 2 -4 4 -10 4 -5 0 -10
-5 -10 -11z"/>
<path d="M2395 4070 c-8 -13 5 -13 25 0 13 8 13 10 -2 10 -9 0 -20 -4 -23 -10z"/>
<path d="M2506 4033 c-13 -3 -15 -7 -7 -12 8 -5 5 -13 -9 -26 -16 -14 -20 -15
-20 -4 0 9 -10 15 -26 14 -19 0 -29 -8 -39 -31 -7 -17 -9 -37 -5 -43 5 -9 9
-8 14 4 3 9 10 13 16 10 5 -3 10 -2 10 4 0 6 7 8 15 5 8 -4 15 -9 15 -14 0
-10 -37 -51 -47 -52 -25 -2 -33 -15 -39 -61 -5 -37 -9 -46 -14 -32 -7 20 -7
20 -12 0 -4 -17 -8 -15 -27 18 -23 37 -38 50 -27 22 3 -8 1 -15 -3 -15 -5 0
-7 -9 -4 -20 3 -11 8 -18 12 -16 11 7 35 -17 49 -47 6 -15 17 -25 22 -22 15
10 12 35 -5 35 -8 0 -15 6 -15 14 0 8 7 13 16 12 10 0 30 26 56 74 22 41 51
89 64 107 13 17 24 36 24 42 0 5 9 13 20 16 11 4 18 11 15 16 -6 9 -17 10 -49
2z"/>
<path d="M2359 4008 c-6 -14 -6 -58 0 -58 8 0 21 33 21 53 0 6 -18 11 -21 5z"/>
<path d="M2501 3944 c0 -11 3 -14 6 -6 3 7 2 16 -1 19 -3 4 -6 -2 -5 -13z"/>
<path d="M2274 3936 c-13 -14 -14 -46 -2 -46 4 0 8 7 8 15 0 9 7 15 16 13 10
-2 19 2 21 8 5 16 -30 24 -43 10z"/>
<path d="M2486 3903 c-6 -14 -5 -15 5 -6 7 7 10 15 7 18 -3 3 -9 -2 -12 -12z"/>
<path d="M2704 3865 c-16 -12 -16 -14 -3 -15 9 0 22 7 29 15 16 19 0 19 -26 0z"/>
<path d="M2194 3841 c3 -5 16 -11 28 -14 22 -6 22 -5 4 8 -22 17 -40 20 -32 6z"/>
<path d="M2005 3831 c-3 -5 0 -13 6 -17 7 -4 9 -3 5 4 -3 5 0 13 6 15 9 4 10
6 1 6 -6 1 -14 -3 -18 -8z"/>
<path d="M2614 3824 c-18 -14 -18 -15 4 -4 12 6 22 13 22 15 0 8 -5 6 -26 -11z"/>
<path d="M2730 3805 c-25 -27 -25 -41 0 -22 23 19 43 47 33 47 -5 0 -20 -11
-33 -25z"/>
<path d="M1969 3794 c-13 -7 -20 -13 -16 -14 5 0 17 5 28 10 13 7 19 7 19 0 0
-5 5 -10 10 -10 6 0 10 4 10 9 0 16 -26 19 -51 5z"/>
<path d="M2238 3753 c7 -3 16 -2 19 1 4 3 -2 6 -13 5 -11 0 -14 -3 -6 -6z"/>
<path d="M2099 3719 c13 -11 26 -17 29 -14 8 8 -20 35 -37 35 -12 -1 -11 -5 8
-21z"/>
<path d="M2850 3730 c0 -6 7 -10 15 -10 8 0 15 2 15 4 0 2 -7 6 -15 10 -8 3
-15 1 -15 -4z"/>
<path d="M1730 3690 c-9 -6 -10 -10 -3 -10 6 0 15 5 18 10 8 12 4 12 -15 0z"/>
<path d="M1665 3632 c3 -3 -1 -12 -7 -21 -8 -10 -4 -9 10 3 26 23 26 23 7 23
-8 0 -13 -3 -10 -5z"/>
<path d="M2678 3613 c12 -2 32 -2 45 0 12 2 2 4 -23 4 -25 0 -35 -2 -22 -4z"/>
<path d="M1640 3489 c0 -5 5 -7 10 -4 6 3 10 8 10 11 0 2 -4 4 -10 4 -5 0 -10
-5 -10 -11z"/>
<path d="M2107 4496 c-4 -10 -3 -15 3 -11 6 3 10 1 10 -6 0 -7 3 -10 6 -6 3 3
2 13 -4 22 -8 16 -9 16 -15 1z"/>
<path d="M2077 4393 c-11 -17 -35 -123 -28 -123 4 0 14 29 22 65 14 63 16 74
6 58z"/>
<path d="M2118 4273 c-28 -31 -52 -72 -45 -79 10 -10 57 39 57 60 0 12 5 27
12 34 7 7 10 12 7 12 -3 0 -17 -12 -31 -27z"/>
<path d="M3884 4339 l-19 -22 33 17 c34 18 40 26 19 26 -8 0 -22 -10 -33 -21z"/>
<path d="M3488 4033 c7 -3 16 -2 19 1 4 3 -2 6 -13 5 -11 0 -14 -3 -6 -6z"/>
<path d="M3444 4014 c-18 -14 -18 -15 4 -4 12 6 22 13 22 15 0 8 -5 6 -26 -11z"/>
<path d="M1520 4100 c0 -9 -18 -31 -40 -49 -23 -18 -39 -35 -37 -38 3 -2 20
10 38 26 18 17 39 31 46 31 15 0 16 9 3 30 -9 13 -10 13 -10 0z"/>
<path d="M756 3753 c-6 -14 -5 -15 5 -6 7 7 10 15 7 18 -3 3 -9 -2 -12 -12z"/>
<path d="M970 3760 c19 -13 30 -13 30 0 0 6 -10 10 -22 10 -19 0 -20 -2 -8
-10z"/>
<path d="M786 3748 c3 -5 10 -6 15 -3 13 9 11 12 -6 12 -8 0 -12 -4 -9 -9z"/>
<path d="M730 3648 c-12 -22 -12 -22 6 -6 10 10 15 20 12 24 -4 3 -12 -5 -18
-18z"/>
<path d="M2098 3113 c7 -3 16 -2 19 1 4 3 -2 6 -13 5 -11 0 -14 -3 -6 -6z"/>
<path d="M1995 3090 c-3 -5 -2 -10 4 -10 5 0 13 5 16 10 3 6 2 10 -4 10 -5 0
-13 -4 -16 -10z"/>
<path d="M565 2391 l-30 -7 36 -5 c27 -3 35 -1 32 8 -3 7 -6 12 -7 12 0 -1
-14 -4 -31 -8z"/>
<path d="M330 1353 c0 -7 -7 -13 -15 -13 -8 0 -15 -4 -15 -10 0 -5 6 -10 14
-10 20 0 29 -17 15 -26 -8 -4 -9 -3 -5 4 10 16 -15 14 -37 -2 -12 -9 -14 -16
-8 -21 6 -3 11 -1 11 5 0 7 8 9 19 5 11 -3 28 3 42 14 21 18 21 20 6 21 -10 0
-16 4 -13 8 2 4 1 14 -5 22 -6 10 -9 11 -9 3z"/>
<path d="M755 1220 c-3 -5 -1 -10 4 -10 6 0 11 5 11 10 0 6 -2 10 -4 10 -3 0
-8 -4 -11 -10z"/>
<path d="M790 1200 c0 -6 -4 -9 -8 -6 -4 2 -14 1 -22 -5 -12 -7 -11 -9 5 -9
28 0 50 15 36 24 -6 4 -11 2 -11 -4z"/>
<path d="M2122 660 c0 -14 2 -19 5 -12 2 6 2 18 0 25 -3 6 -5 1 -5 -13z"/>
<path d="M130 3780 c27 -23 40 -25 40 -6 0 15 -21 26 -47 26 -12 0 -10 -5 7
-20z"/>
<path d="M5 3109 c-4 -6 -5 -12 -2 -15 2 -3 7 2 10 11 7 17 1 20 -8 4z"/>
<path d="M1228 2313 c7 -3 16 -2 19 1 4 3 -2 6 -13 5 -11 0 -14 -3 -6 -6z"/>
<path d="M1300 2285 c-7 -8 -8 -15 -2 -15 5 0 15 7 22 15 7 8 8 15 2 15 -5 0
-15 -7 -22 -15z"/>
<path d="M1250 2240 c-9 -6 -10 -10 -3 -10 6 0 15 5 18 10 8 12 4 12 -15 0z"/>
<path d="M3535 2020 c3 -5 11 -10 16 -10 6 0 7 5 4 10 -3 6 -11 10 -16 10 -6
0 -7 -4 -4 -10z"/>
<path d="M3910 1096 c0 -2 8 -10 18 -17 15 -13 16 -12 3 4 -13 16 -21 21 -21
13z"/>
</g>
</svg>
