<?xml version="1.0" standalone="no"?>
<!DOCTYPE svg PUBLIC "-//W3C//DTD SVG 20010904//EN"
 "http://www.w3.org/TR/2001/REC-SVG-20010904/DTD/svg10.dtd">
<svg version="1.0" xmlns="http://www.w3.org/2000/svg"
 width="800.000000pt" height="800.000000pt" viewBox="0 0 800.000000 800.000000"
 preserveAspectRatio="xMidYMid meet">
<metadata>
Created by potrace 1.16, written by Peter Selinger 2001-2019
</metadata>
<g transform="translate(0.000000,800.000000) scale(0.100000,-0.100000)"
fill="#000000" stroke="none">
<path d="M3905 6756 c-63 -28 -106 -109 -91 -170 5 -22 -9 -32 -187 -134 -105
-61 -230 -132 -277 -160 -121 -70 -1197 -691 -1244 -718 -28 -16 -48 -20 -76
-17 -32 5 -43 1 -64 -20 -35 -35 -33 -71 4 -109 l30 -30 0 -1015 0 -1015 -30
-28 c-39 -37 -39 -72 0 -112 26 -26 36 -29 65 -24 37 7 -2 28 520 -274 163
-95 1021 -590 1066 -616 3 -2 -3 -29 -14 -61 -15 -45 -18 -75 -14 -134 21
-313 385 -457 616 -243 85 79 116 151 115 269 0 60 -6 102 -16 127 l-17 37 32
20 c38 22 835 483 1186 684 209 120 245 138 255 125 43 -59 141 -74 212 -33
115 68 105 243 -17 294 l-39 16 0 967 0 968 33 14 c121 51 121 221 0 272 -55
24 -90 18 -159 -26 -19 -12 -91 28 -856 469 l-834 481 0 54 c1 58 -16 92 -65
129 -34 24 -96 31 -134 13z m-51 -245 c3 -5 -61 -47 -142 -93 -81 -46 -253
-146 -382 -220 -1041 -602 -1225 -706 -1229 -697 -2 6 1 15 5 19 5 5 135 81
289 170 154 89 336 195 405 235 69 40 319 184 555 320 237 136 439 253 450
261 24 15 42 17 49 5z m997 -432 c420 -243 797 -460 837 -482 40 -23 71 -46
68 -52 -2 -5 -10 -9 -17 -7 -8 2 -354 200 -769 440 -415 239 -790 455 -832
479 -74 42 -95 63 -64 63 7 0 357 -198 777 -441z m-888 398 c26 1 59 4 75 5
20 2 158 -73 552 -301 289 -167 667 -386 840 -486 l315 -183 8 -41 c5 -27 21
-54 43 -76 l34 -34 0 -978 0 -978 -30 -17 c-36 -20 -68 -71 -76 -118 -6 -39
58 1 -794 -491 -140 -80 -353 -203 -472 -272 l-216 -125 -28 29 c-17 18 -24
33 -18 38 5 5 218 129 474 276 779 447 932 536 1005 580 l70 41 2 1035 3 1034
-358 206 c-196 114 -599 347 -895 518 l-537 311 -568 -328 c-312 -180 -714
-413 -894 -517 l-328 -190 0 -1035 0 -1035 263 -152 c144 -83 397 -229 562
-324 486 -280 730 -421 734 -425 3 -3 -8 -18 -25 -34 l-29 -29 -150 88 c-82
48 -433 251 -780 451 -346 199 -636 369 -642 378 -10 12 -13 244 -13 1083 0
1002 1 1068 18 1086 9 11 112 74 227 140 282 162 1440 830 1490 860 29 17 47
21 65 16 14 -4 46 -7 73 -6z m474 -353 c710 -410 1238 -716 1241 -719 2 -2
-23 -19 -55 -38 l-58 -34 -55 30 c-54 30 -479 275 -775 447 -612 354 -768 442
-783 437 -15 -3 -273 -151 -1007 -575 -71 -42 -233 -135 -360 -208 l-229 -132
-46 25 c-25 15 -51 31 -57 37 -10 9 118 88 540 331 303 176 689 399 857 497
168 97 306 177 307 178 1 0 217 -124 480 -276z m-84 -110 c216 -125 568 -328
782 -452 215 -123 394 -228 398 -232 4 -4 -2 -14 -15 -22 -22 -15 -28 -13 -88
22 -36 21 -381 221 -768 444 l-703 406 -592 -342 c-326 -188 -671 -387 -767
-443 -172 -101 -175 -102 -202 -87 l-27 16 37 21 c44 25 1388 802 1482 856 36
21 66 38 68 38 2 1 179 -101 395 -225z m-348 123 c1089 -628 1425 -822 1447
-836 l27 -17 -393 -226 c-384 -222 -394 -227 -425 -215 -27 10 -37 9 -63 -6
l-30 -17 -160 91 c-87 51 -155 95 -151 99 7 6 162 97 593 345 92 53 146 11
-491 379 l-255 148 0 53 c2 160 -205 212 -274 70 -16 -34 -21 -56 -16 -84 l6
-37 -324 -187 c-178 -103 -329 -187 -335 -187 -6 0 -11 4 -11 9 0 17 -85 51
-126 51 -92 -1 -170 -88 -161 -182 12 -138 179 -201 282 -107 20 18 25 15 273
-128 222 -127 251 -147 235 -158 -53 -36 -355 -205 -361 -202 -4 2 -197 113
-430 247 -363 209 -420 245 -405 255 10 7 124 73 253 147 129 75 296 171 370
213 541 313 875 505 880 505 3 0 23 -11 45 -23z m435 -500 c162 -94 318 -184
347 -201 52 -30 66 -59 15 -31 -192 105 -727 423 -730 434 -3 10 7 8 34 -8 21
-13 172 -100 334 -194z m-548 176 l58 -28 0 -310 0 -310 -116 -67 -116 -68
-262 151 -262 151 0 71 1 70 315 183 c173 101 317 183 320 184 3 0 31 -12 62
-27z m545 -213 c205 -118 368 -219 364 -223 -10 -10 -761 421 -761 435 0 5 6
8 13 6 7 -2 180 -100 384 -218z m-241 97 c99 -57 256 -148 349 -202 229 -133
228 -132 216 -139 -9 -6 -740 410 -765 435 -6 6 -4 9 6 9 9 0 96 -46 194 -103z
m60 -78 c154 -89 323 -186 377 -217 90 -52 115 -73 85 -71 -21 1 -741 423
-746 437 -2 6 -2 12 1 12 3 0 130 -72 283 -161z m107 -104 c294 -171 347 -205
318 -205 -5 0 -116 62 -247 138 -132 76 -290 167 -351 203 -62 35 -113 70
-113 77 0 11 8 9 33 -5 17 -10 179 -104 360 -208z m-83 5 c146 -85 289 -167
317 -183 55 -30 73 -47 50 -47 -25 0 -672 380 -676 397 -3 15 -1 15 20 1 13
-8 143 -84 289 -168z m8 -46 c311 -179 341 -198 325 -206 -10 -6 -636 356
-641 371 -2 6 -1 11 3 11 3 0 144 -79 313 -176z m-166 53 c79 -46 216 -126
305 -177 90 -52 158 -97 152 -101 -6 -3 -79 33 -162 81 -384 222 -441 256
-445 268 -2 6 -1 12 2 12 3 0 69 -37 148 -83z m178 -146 c124 -71 231 -134
239 -139 9 -5 11 -11 5 -15 -14 -8 -573 315 -574 331 0 9 18 3 53 -17 28 -16
153 -88 277 -160z m-1191 150 c14 -9 26 -22 29 -29 5 -16 -51 -43 -69 -31 -8
5 -28 9 -46 9 -54 0 -91 -68 -63 -119 16 -30 65 -46 99 -31 24 9 34 9 61 -5
27 -14 30 -18 18 -32 -36 -44 -132 -56 -186 -23 -91 56 -98 197 -13 257 52 36
124 38 170 4z m1153 -170 c137 -79 245 -147 242 -153 -3 -5 -19 -1 -37 9 -18
11 -137 79 -264 153 -132 76 -233 140 -233 148 0 12 3 12 23 0 12 -8 133 -79
269 -157z m-32 -23 c139 -80 245 -147 240 -152 -9 -9 -500 270 -500 285 0 5 3
9 6 9 3 0 117 -64 254 -142z m-1050 61 c0 -27 -2 -49 -5 -49 -24 0 -65 34 -65
53 0 21 46 59 63 50 4 -2 7 -26 7 -54z m1033 -94 c124 -71 222 -134 217 -138
-10 -11 -451 242 -458 262 -6 19 -12 22 241 -124z m-2143 -920 c0 -915 -2
-1034 -15 -1029 -13 5 -15 128 -15 1023 0 985 1 1041 27 1041 2 0 3 -466 3
-1035z m2148 875 c161 -93 212 -129 169 -118 -33 8 -416 234 -417 246 0 15 6
12 248 -128z m-1986 85 c0 -5 -5 -11 -11 -13 -6 -2 -11 4 -11 13 0 9 5 15 11
13 6 -2 11 -8 11 -13z m1963 -115 c172 -98 189 -110 162 -110 -26 0 -387 213
-387 228 0 10 8 9 33 -6 17 -11 104 -61 192 -112z m1515 -863 l0 -993 -622
-359 c-343 -197 -696 -401 -785 -452 l-162 -93 -38 15 c-21 8 -58 19 -82 23
l-45 7 770 444 c423 244 784 452 801 463 l33 20 2 926 3 926 55 32 c30 18 58
33 63 34 4 0 7 -447 7 -993z m165 18 c0 -766 -3 -969 -12 -973 -10 -3 -13 196
-13 973 0 777 3 976 13 973 9 -4 12 -207 12 -973z m-3591 937 c3 -5 -11 -16
-30 -25 -42 -21 -44 -21 -44 -2 0 25 61 48 74 27z m34 -37 c-7 -6 -34 -24 -60
-39 -43 -24 -48 -25 -48 -9 0 21 86 74 108 66 11 -5 11 -8 0 -18z m1839 -76
c171 -98 187 -109 159 -109 -23 0 -346 189 -346 202 0 15 14 8 187 -93z
m-1787 62 c0 -6 -4 -13 -10 -16 -5 -3 -10 1 -10 9 0 9 5 16 10 16 6 0 10 -4
10 -9z m3200 -905 l0 -914 -377 -218 c-208 -120 -563 -325 -790 -456 -227
-131 -415 -238 -418 -238 -3 0 -5 12 -5 28 0 25 13 35 148 112 81 47 427 247
770 445 l622 359 0 888 c0 834 1 888 18 897 9 6 20 11 25 11 4 0 7 -411 7
-914z m-3241 883 c-8 -11 -38 -34 -66 -50 -47 -27 -53 -29 -53 -12 0 12 20 29
58 50 67 38 79 41 61 12z m1773 -50 c180 -104 189 -110 183 -119 -7 -11 -307
160 -313 178 -2 6 -1 12 2 12 3 0 60 -32 128 -71z m-1702 43 c0 -11 -11 -24
-25 -30 -22 -10 -25 -9 -25 7 0 14 23 34 48 40 1 1 2 -7 2 -17z m3098 -879
l-3 -876 -375 -217 c-982 -567 -1109 -640 -1124 -646 -14 -6 -16 41 -16 487
l0 494 253 146 252 146 30 -28 c111 -103 285 -34 285 114 0 85 -48 143 -142
171 -17 5 -18 27 -18 271 0 213 3 265 13 265 21 0 58 45 61 75 3 25 38 48 387
251 211 123 387 223 392 223 4 1 6 -393 5 -876z m-3043 858 c3 -6 -4 -15 -15
-21 -17 -9 -20 -8 -20 10 0 20 24 28 35 11z m1692 -91 c69 -39 108 -67 101
-71 -7 -4 -30 3 -53 17 -22 13 -82 48 -132 77 -51 28 -93 58 -93 65 0 11 8 9
33 -5 17 -11 83 -48 144 -83z m-1807 83 c0 -16 -17 -31 -73 -62 -50 -28 -58
-31 -55 -15 1 10 28 33 58 51 56 34 70 39 70 26z m60 -21 c0 -11 -11 -24 -25
-30 -22 -10 -25 -9 -25 7 0 14 23 34 48 40 1 1 2 -7 2 -17z m104 -3 c-3 -5
-23 -18 -45 -29 -33 -17 -39 -18 -39 -5 0 19 58 55 76 48 8 -3 11 -9 8 -14z
m1644 -101 c39 -23 68 -46 64 -50 -11 -11 -242 123 -242 140 0 8 19 2 53 -18
28 -17 85 -49 125 -72z m-1601 84 c9 -5 -9 -20 -51 -45 -70 -41 -76 -43 -76
-22 0 8 24 28 53 45 58 33 57 33 74 22z m-217 -19 c0 -11 -21 -30 -52 -48 -70
-40 -70 -40 -66 -19 1 10 28 32 58 50 66 39 60 38 60 17z m53 -38 c-23 -18
-33 -18 -33 -1 0 8 10 22 23 31 20 14 22 14 25 0 2 -9 -5 -23 -15 -30z m207
26 c0 -7 -152 -101 -165 -101 -3 0 -5 6 -5 13 0 7 33 32 73 55 71 41 97 50 97
33z m1360 -95 l0 -104 -28 -7 c-22 -4 -46 4 -105 37 -42 24 -75 47 -74 51 2 6
186 120 205 126 1 1 2 -46 2 -103z m131 37 c54 -32 95 -61 91 -65 -9 -9 -202
99 -202 113 0 15 9 11 111 -48z m-1446 38 c3 -5 -37 -35 -90 -66 -116 -68
-125 -72 -125 -52 0 9 40 39 98 71 103 59 108 61 117 47z m-305 -19 c0 -10
-21 -30 -54 -50 -61 -36 -66 -38 -66 -17 0 10 91 76 118 84 1 1 2 -7 2 -17z
m54 -39 c-23 -17 -34 -17 -34 1 0 7 10 20 23 29 20 13 22 13 26 -1 2 -9 -5
-22 -15 -29z m296 28 c0 -9 -240 -151 -254 -151 -4 0 -6 7 -4 15 2 9 53 44
113 79 105 61 145 77 145 57z m1383 -40 c70 -40 93 -61 68 -61 -17 0 -155 86
-159 99 -6 17 -1 15 91 -38z m-1340 8 c-4 -4 -74 -46 -155 -93 -115 -66 -148
-81 -148 -68 0 21 275 183 297 175 8 -3 11 -9 6 -14z m-393 -13 c0 -8 -24 -28
-54 -45 -61 -35 -66 -36 -66 -17 0 8 24 28 53 45 59 35 67 37 67 17z m1770
-62 c28 -27 -16 -16 -74 19 -76 44 -75 69 2 26 31 -17 64 -38 72 -45z m-1700
51 c0 -12 -28 -35 -44 -35 -13 0 -5 24 12 36 22 18 32 17 32 -1z m368 5 c-2
-6 -80 -55 -173 -109 -124 -72 -171 -95 -173 -84 -2 8 -2 16 0 18 1 1 73 43
158 93 144 84 197 107 188 82z m44 -32 c-5 -5 -94 -58 -198 -118 -139 -80
-190 -104 -192 -93 -2 8 -2 16 0 17 44 34 374 213 385 209 8 -3 11 -9 5 -15z
m1248 -45 c12 -11 12 -13 -2 -13 -26 0 -88 40 -88 57 0 12 8 10 38 -8 20 -12
44 -28 52 -36z m-1730 33 c0 -8 -25 -28 -55 -45 -62 -35 -65 -36 -65 -18 0 7
24 27 53 44 60 36 67 38 67 19z m70 -11 c0 -12 -28 -35 -44 -35 -14 0 -5 30
12 39 24 14 32 13 32 -4z m454 6 c4 -5 -92 -66 -211 -135 -174 -100 -219 -122
-222 -109 -2 10 1 19 5 20 5 2 97 55 204 117 107 63 200 115 207 115 6 1 14
-3 17 -8z m969 -71 c57 -32 68 -49 45 -68 -24 -19 -330 -192 -340 -192 -12 0
-208 113 -208 120 0 3 82 53 183 111 l182 107 40 -23 c22 -12 66 -37 98 -55z
m578 -21 c146 -83 159 -93 159 -119 0 -24 -10 -34 -82 -74 -45 -26 -87 -45
-94 -44 -7 2 -87 46 -178 98 -106 61 -166 101 -166 111 0 17 162 118 189 119
7 0 85 -41 172 -91z m-1503 56 c-22 -23 -474 -273 -477 -264 -5 17 5 24 240
160 142 82 227 125 233 119 5 -5 7 -12 4 -15z m1112 -5 c14 -11 19 -20 12 -20
-19 0 -52 19 -52 30 0 15 12 12 40 -10z m-1680 -4 c0 -8 -24 -28 -54 -45 -61
-35 -66 -36 -66 -17 0 8 24 28 53 44 60 35 67 37 67 18z m70 -10 c0 -7 -11
-21 -25 -30 -23 -15 -25 -15 -25 0 0 16 26 43 43 44 4 0 7 -6 7 -14z m544 5
c3 -5 -29 -29 -71 -54 -353 -204 -445 -257 -449 -257 -3 0 -4 7 -2 16 3 16
479 301 505 303 6 1 14 -3 17 -8z m46 -29 c0 -6 -530 -318 -563 -331 -5 -2 -7
4 -5 14 2 10 111 79 268 170 243 141 300 169 300 147z m-660 -17 c0 -8 -24
-28 -52 -45 -59 -33 -68 -36 -68 -17 0 11 92 74 113 76 4 1 7 -6 7 -14z m70
-9 c0 -7 -11 -21 -25 -30 -24 -16 -25 -15 -25 2 0 15 23 35 48 41 1 1 2 -5 2
-13z m628 5 c10 -6 -17 -26 -90 -68 -402 -234 -506 -293 -512 -293 -4 0 -6 7
-4 15 2 13 567 352 588 354 3 0 11 -3 18 -8z m52 -29 c0 -5 -84 -58 -187 -117
-104 -60 -252 -146 -330 -191 -112 -64 -143 -79 -143 -65 0 12 90 70 313 199
287 167 347 197 347 174z m-770 -41 c-13 -9 -41 -26 -62 -39 -35 -21 -38 -22
-38 -5 0 22 113 89 119 71 2 -7 -6 -19 -19 -27z m87 5 c-3 -8 -15 -20 -26 -26
-18 -9 -21 -8 -21 8 0 10 10 24 23 29 26 12 32 10 24 -11z m722 15 c11 -7 1
-17 -40 -40 -30 -17 -189 -109 -354 -204 -218 -126 -301 -170 -304 -159 -1 8
3 19 10 23 8 4 160 93 339 197 179 105 327 190 330 191 3 0 11 -3 19 -8z m39
-36 c-1 -5 -167 -105 -368 -221 -260 -151 -366 -207 -368 -197 -2 8 -2 16 0
18 21 19 716 414 726 412 7 -1 12 -6 10 -12z m1182 -177 c0 -4 -8 -9 -19 -13
-12 -3 -67 22 -162 76 -169 96 -166 94 -150 113 10 12 37 -1 171 -78 88 -50
159 -94 160 -98z m-2021 147 c-8 -7 -35 -25 -61 -40 -43 -24 -48 -25 -48 -8 0
20 113 88 119 71 2 -5 -3 -16 -10 -23z m1598 20 c5 -16 -297 -186 -318 -180
-11 4 -19 9 -19 13 0 12 304 182 319 180 8 -2 16 -8 18 -13z m-1517 -13 c0
-11 -11 -24 -25 -30 -22 -10 -25 -9 -25 7 0 14 23 34 48 40 1 1 2 -7 2 -17z
m800 -12 c-8 -5 -186 -108 -395 -229 -273 -158 -381 -215 -383 -204 -2 8 -2
16 0 17 1 2 176 103 388 224 269 156 387 219 395 211 7 -7 5 -13 -5 -19z m924
-75 c86 -49 156 -93 156 -97 0 -4 -44 -32 -98 -63 l-99 -55 -47 26 c-57 32
-116 30 -166 -6 l-32 -23 -41 24 c-23 12 -71 40 -106 60 l-64 37 99 57 c55 32
128 75 164 96 36 22 68 38 72 36 3 -1 76 -42 162 -92z m-876 60 c-4 -16 -823
-486 -827 -474 -6 18 14 31 294 192 149 85 324 186 390 225 112 66 150 81 143
57z m-918 -13 c0 -11 -22 -29 -61 -51 -51 -28 -60 -31 -57 -15 2 13 99 84 116
84 1 0 2 -8 2 -18z m70 -10 c0 -11 -11 -24 -25 -30 -20 -9 -25 -9 -25 3 0 7
10 21 22 29 28 20 28 20 28 -2z m878 -7 c-3 -16 -848 -508 -857 -499 -3 3 -1
12 4 20 10 14 832 493 848 494 5 0 7 -7 5 -15z m67 -15 c3 -5 -8 -16 -25 -25
-28 -15 -30 -14 -30 4 0 26 42 43 55 21z m-1015 -18 c0 -11 -22 -29 -61 -51
-51 -28 -60 -30 -57 -15 1 9 28 32 58 50 66 40 60 38 60 16z m2275 6 l25 -11
0 -269 0 -268 -24 0 c-31 0 -85 -38 -114 -80 -20 -30 -23 -45 -20 -99 l3 -65
-247 -142 -248 -143 0 123 c0 87 4 127 13 134 6 5 84 51 172 101 114 66 166
90 180 86 57 -18 64 -17 95 13 39 40 39 75 0 112 l-30 28 0 200 0 200 78 45
c89 52 84 50 117 35z m-2222 -43 c-23 -18 -33 -19 -33 -1 0 7 10 20 23 29 19
13 22 13 25 0 2 -8 -5 -21 -15 -28z m897 21 c0 -8 -181 -119 -422 -258 -231
-133 -425 -245 -430 -247 -6 -2 -8 4 -6 14 2 11 162 110 423 261 231 134 423
243 428 244 4 0 7 -6 7 -14z m110 6 c0 -5 -22 -21 -50 -36 -41 -22 -50 -24
-50 -11 0 8 15 24 33 35 33 21 67 26 67 12z m38 -21 c10 -6 -7 -20 -58 -50
-81 -46 -80 -46 -80 -27 0 8 26 30 58 50 64 40 62 39 80 27z m-1098 -19 c0
-12 -19 -29 -52 -48 -70 -38 -68 -38 -68 -20 0 11 90 77 118 85 1 1 2 -7 2
-17z m70 -13 c0 -12 -29 -38 -42 -39 -15 0 -8 29 10 39 23 14 32 13 32 0z
m878 -5 c-2 -13 -789 -478 -847 -502 -8 -3 -12 1 -10 12 3 11 168 112 424 261
231 134 424 244 428 244 5 1 7 -6 5 -15z m196 8 c4 -7 -164 -112 -179 -112 -3
0 -5 6 -5 14 0 14 144 106 167 106 6 0 14 -4 17 -8z m34 -28 c-3 -14 -190
-132 -211 -134 -5 0 -7 7 -5 16 3 13 189 131 211 133 5 1 7 -6 5 -15z m-1178
-18 c0 -8 -25 -28 -55 -45 -63 -35 -65 -36 -65 -17 0 8 24 28 53 45 59 35 67
37 67 17z m70 -11 c0 -12 -28 -35 -44 -35 -14 0 -5 30 12 39 24 14 32 13 32
-4z m878 -1 c-3 -15 -828 -502 -851 -504 -5 0 -7 7 -5 15 3 13 828 502 851
504 5 1 7 -6 5 -15z m287 6 c3 -5 1 -10 -4 -10 -6 0 -11 5 -11 10 0 6 2 10 4
10 3 0 8 -4 11 -10z m788 -375 c-17 -13 -18 -3 -21 173 -2 169 -1 188 15 200
17 12 18 3 21 -174 2 -169 1 -188 -15 -199z m-850 334 c-6 -6 -56 -36 -111
-69 -84 -48 -102 -55 -102 -40 0 21 213 146 219 129 2 -6 -1 -15 -6 -20z m70
-14 c-15 -12 -18 -11 -21 1 -2 9 5 22 15 29 15 12 18 11 21 -1 2 -9 -5 -22
-15 -29z m737 -158 l0 -193 -156 -89 c-86 -50 -160 -91 -165 -93 -5 -2 -9 51
-9 122 0 119 1 126 20 126 28 0 87 56 100 95 6 18 10 49 8 69 -3 35 -2 36 97
95 55 32 101 59 103 60 1 1 2 -86 2 -192z m-1978 168 c1 -10 -99 -75 -114 -75
-5 0 -8 6 -8 14 0 8 24 28 53 44 52 31 68 35 69 17z m68 -10 c0 -12 -28 -35
-44 -35 -14 0 -5 30 12 39 24 14 32 13 32 -4z m869 -20 c-17 -15 -833 -485
-843 -485 -4 0 -6 7 -4 15 4 20 852 508 857 494 2 -6 -3 -17 -10 -24z m384 28
c4 -3 -2 -13 -14 -21 -23 -16 -34 -10 -26 13 7 15 28 20 40 8z m-146 -36 c-3
-8 -53 -42 -111 -75 -84 -48 -106 -57 -106 -44 0 12 36 39 107 79 59 34 109
60 111 58 3 -2 2 -11 -1 -18z m193 4 c0 -7 -72 -51 -84 -51 -19 0 -1 31 27 47
30 19 57 20 57 4z m-110 -6 c0 -8 -9 -19 -20 -25 -17 -9 -20 -8 -20 9 0 17 11
28 33 30 4 1 7 -6 7 -14z m-1260 -9 c0 -8 -24 -28 -54 -45 -61 -35 -66 -36
-66 -17 0 8 24 28 53 44 60 35 67 37 67 18z m70 -10 c0 -7 -11 -21 -25 -30
-24 -16 -25 -15 -25 3 0 11 8 25 18 30 24 14 32 13 32 -3z m1337 6 c9 -5 -9
-20 -51 -45 -69 -41 -76 -43 -76 -24 0 7 24 27 53 44 60 36 58 35 74 25z
m-457 -12 c0 -12 -27 -29 -285 -177 -115 -66 -292 -168 -392 -226 -137 -79
-183 -101 -183 -89 0 12 128 91 418 259 229 133 423 242 430 243 6 0 12 -4 12
-10z m230 -17 c0 -11 -22 -30 -58 -50 -31 -18 -81 -46 -109 -63 -46 -26 -53
-28 -53 -13 0 12 35 38 108 80 59 35 108 63 110 63 1 0 2 -8 2 -17z m80 -8 c0
-8 -9 -19 -20 -25 -17 -9 -20 -8 -20 9 0 17 11 28 33 30 4 1 7 -6 7 -14z m200
8 c0 -5 -41 -31 -90 -60 -73 -42 -90 -49 -90 -34 0 11 26 32 73 59 67 39 107
52 107 35z m-1460 -17 c0 -8 -17 -25 -37 -37 -21 -13 -48 -29 -60 -37 -21 -13
-23 -13 -23 5 0 12 18 30 53 50 60 36 67 38 67 19z m70 -10 c0 -8 -10 -22 -22
-31 -21 -14 -23 -14 -26 0 -2 9 5 23 15 30 23 18 33 18 33 1z m1420 7 c-1 -18
-20 -33 -113 -86 -54 -32 -100 -57 -102 -57 -2 0 -2 7 -1 17 2 9 47 42 102 74
100 59 114 65 114 52z m-540 -13 c0 -13 -32 -33 -375 -231 -165 -95 -340 -196
-390 -225 -69 -40 -91 -49 -93 -38 -2 9 -2 17 0 19 1 1 181 105 398 230 217
125 404 234 415 241 23 16 45 18 45 4z m228 -35 c-1 -2 -50 -31 -108 -64 -83
-48 -106 -58 -108 -45 -5 19 -17 10 108 82 79 45 106 56 108 45 2 -8 2 -16 0
-18z m82 10 c0 -8 -9 -19 -20 -25 -15 -8 -20 -8 -20 3 0 14 19 37 32 37 4 0 8
-7 8 -15z m-1271 -29 c-8 -7 -35 -25 -61 -40 -43 -24 -48 -25 -48 -9 0 21 113
89 119 72 2 -6 -3 -17 -10 -23z m78 0 c-3 -8 -15 -20 -26 -26 -18 -9 -21 -8
-21 8 0 10 10 24 23 29 26 12 32 10 24 -11z m1413 6 c0 -12 -32 -36 -101 -76
-55 -31 -103 -55 -105 -53 -13 13 16 38 104 89 53 31 98 57 100 57 1 1 2 -7 2
-17z m-530 -1 c0 -15 -33 -36 -420 -258 -201 -116 -382 -221 -402 -233 -36
-21 -38 -21 -38 -3 1 12 32 36 103 77 56 32 244 140 417 241 173 101 321 183
328 184 6 1 12 -3 12 -8z m230 -24 c0 -7 -30 -30 -67 -51 -38 -21 -88 -50
-112 -64 -39 -23 -43 -23 -39 -7 2 12 42 42 103 77 107 62 115 65 115 45z m80
-2 c0 -8 -9 -19 -20 -25 -15 -8 -20 -8 -20 3 0 14 19 37 32 37 4 0 8 -7 8 -15z
m-1271 -30 c-8 -7 -35 -25 -61 -40 -43 -24 -48 -25 -48 -8 0 20 113 88 119 71
2 -5 -3 -16 -10 -23z m81 7 c0 -11 -11 -24 -25 -30 -22 -10 -25 -9 -25 7 0 14
23 34 48 40 1 1 2 -7 2 -17z m1412 -17 c-48 -33 -204 -117 -208 -113 -13 14
17 39 109 90 69 39 104 53 109 45 3 -6 -1 -16 -10 -22z m-532 12 c0 -12 -117
-82 -685 -409 -93 -53 -172 -93 -174 -87 -2 6 3 17 10 24 17 15 831 485 842
485 4 0 7 -6 7 -13z m230 -21 c0 -13 -209 -140 -218 -131 -13 13 16 37 105 88
106 61 113 64 113 43z m70 -21 c-16 -19 -30 -19 -30 0 0 17 33 38 38 24 2 -5
-2 -16 -8 -24z m-1250 7 c0 -11 -22 -29 -61 -51 -51 -28 -60 -31 -57 -15 2 13
99 84 116 84 1 0 2 -8 2 -18z m1517 2 c4 -14 -196 -127 -214 -120 -21 8 -20 9
94 76 96 57 114 63 120 44z m-1447 -12 c0 -11 -11 -24 -25 -30 -20 -9 -25 -9
-25 3 0 7 10 21 22 29 28 20 28 20 28 -2z m880 -6 c0 -15 -849 -510 -859 -501
-10 11 14 37 55 59 22 11 80 45 129 74 283 165 661 381 668 382 4 0 7 -6 7
-14z m509 -77 c-69 -40 -106 -56 -116 -50 -11 6 12 24 88 69 76 44 107 57 117
50 9 -8 -14 -25 -89 -69z m-279 57 c0 -11 -198 -136 -216 -136 -2 0 -4 7 -4
14 0 13 192 135 213 136 4 0 7 -6 7 -14z m70 -21 c-16 -19 -30 -19 -30 0 0 17
33 38 38 24 2 -5 -2 -16 -8 -24z m-1250 8 c0 -11 -21 -30 -52 -48 -69 -39 -68
-39 -68 -22 0 11 100 85 118 87 1 0 2 -8 2 -17z m53 -38 c-23 -18 -33 -18 -33
-1 0 8 10 22 23 31 20 14 22 14 25 0 2 -9 -5 -23 -15 -30z m1551 37 c6 -10
-186 -122 -209 -122 -33 0 -11 20 83 74 97 56 116 63 126 48z m-654 -16 c0 -8
-111 -78 -247 -157 -137 -78 -328 -189 -426 -246 -98 -57 -180 -103 -183 -103
-3 0 -4 7 -2 16 2 13 826 501 851 503 4 1 7 -5 7 -13z m230 -20 c0 -11 -197
-136 -215 -136 -3 0 -5 6 -5 14 0 12 192 134 213 136 4 0 7 -6 7 -14z m68 -27
c-19 -13 -28 -11 -28 6 0 21 34 38 38 18 2 -9 -2 -19 -10 -24z m-1248 13 c0
-12 -19 -29 -52 -48 -70 -38 -68 -38 -68 -20 0 11 90 77 118 85 1 1 2 -7 2
-17z m1610 5 c0 -11 -152 -107 -171 -107 -4 0 -10 4 -13 9 -5 8 158 110 177
111 4 0 7 -6 7 -13z m-1557 -42 c-23 -18 -33 -19 -33 -1 0 7 10 20 23 29 19
13 22 13 25 0 2 -8 -5 -21 -15 -28z m895 19 c-3 -15 -111 -80 -687 -411 -89
-52 -165 -92 -168 -89 -15 15 22 41 208 147 340 195 593 341 614 355 26 18 37
18 33 -2z m232 -18 c0 -8 -43 -40 -95 -71 -117 -68 -128 -73 -124 -51 3 14
189 133 212 135 4 1 7 -5 7 -13z m105 4 c8 -13 -20 -24 -42 -16 -15 6 -15 8
-3 16 20 13 37 12 45 0z m695 -14 c0 -21 -22 -37 -159 -115 -87 -50 -162 -91
-165 -91 -4 0 -6 9 -4 20 2 15 49 48 163 115 88 51 161 94 163 94 1 1 2 -10 2
-23z m-1980 -5 c0 -13 -18 -29 -55 -50 -62 -35 -65 -36 -65 -17 0 10 91 76
118 85 1 1 2 -8 2 -18z m1610 5 c0 -15 -100 -76 -125 -76 -30 0 -14 19 48 54
70 40 77 42 77 22z m-270 -12 c0 -9 -42 -24 -52 -18 -15 10 19 34 38 27 8 -3
14 -7 14 -9z m960 -19 c0 -28 -5 -37 -29 -49 -32 -17 -41 -34 -41 -75 0 -20
-7 -32 -27 -42 -16 -7 -31 -15 -35 -17 -11 -5 -20 58 -14 93 8 42 50 93 91
111 47 21 55 18 55 -21z m63 21 c104 -43 127 -180 43 -254 -59 -52 -138 -54
-196 -6 -37 31 -37 37 -5 58 23 15 28 15 47 1 47 -32 126 -7 129 43 4 52 -10
78 -48 93 -18 7 -23 16 -23 44 0 39 6 41 53 21z m-2293 -11 c0 -12 -28 -35
-44 -35 -14 0 -5 30 12 39 24 14 32 13 32 -4z m880 0 c0 -14 -70 -58 -405
-250 -93 -54 -231 -133 -307 -176 -75 -44 -139 -79 -142 -79 -3 0 -6 6 -6 14
0 7 69 53 153 102 295 171 702 404 704 404 2 0 3 -7 3 -15z m198 -55 c-132
-76 -146 -83 -164 -76 -14 5 9 22 92 70 78 45 113 60 122 53 10 -8 -3 -19 -50
-47z m227 41 c3 -6 -3 -15 -14 -21 -21 -11 -37 2 -26 20 8 13 32 13 40 1z
m233 -17 c-5 -23 -75 -61 -89 -47 -8 8 1 18 33 37 50 30 61 32 56 10z m-1604
-9 c-5 -13 -102 -75 -118 -75 -3 0 -6 6 -6 14 0 14 94 74 117 75 7 1 10 -6 7
-14z m1238 0 c1 -6 -44 -36 -100 -68 -71 -42 -105 -56 -116 -50 -12 6 10 23
92 70 104 61 123 68 124 48z m178 -5 c0 -12 -28 -20 -46 -13 -14 5 -12 8 7 19
24 12 39 10 39 -6z m-1350 -5 c0 -12 -28 -35 -44 -35 -14 0 -5 30 12 39 24 14
32 13 32 -4z m878 -7 c-2 -7 -56 -43 -119 -79 -63 -36 -244 -142 -404 -234
-159 -92 -300 -173 -312 -181 -21 -13 -23 -13 -23 4 0 19 10 25 504 309 148
85 283 163 300 174 36 22 59 25 54 7z m346 -6 c6 -11 -206 -130 -222 -124 -20
7 -2 21 103 81 90 51 110 58 119 43z m171 -1 c7 -12 -25 -30 -43 -24 -10 4
-10 8 -1 19 13 16 35 18 44 5z m145 -16 c0 -19 -36 -39 -45 -24 -4 6 1 17 11
24 24 18 34 19 34 0z m-1610 -9 c0 -8 -24 -28 -54 -45 -60 -35 -66 -36 -66
-18 0 11 95 76 113 77 4 0 7 -6 7 -14z m1333 0 c1 -5 -42 -36 -97 -68 -69 -41
-105 -57 -119 -52 -16 5 2 19 89 70 105 61 123 69 127 50z m-1263 -10 c0 -7
-11 -21 -25 -30 -24 -16 -25 -15 -25 3 0 11 8 25 18 30 24 14 32 13 32 -3z
m1440 5 c0 -13 -37 -24 -51 -15 -8 4 -7 9 2 15 19 12 49 11 49 0z m-560 -10
c0 -13 -12 -21 -225 -144 -110 -63 -298 -171 -417 -240 -164 -95 -218 -122
-218 -109 0 12 82 65 273 175 149 86 337 195 417 241 141 82 170 96 170 77z
m434 -8 c9 -10 -204 -132 -220 -126 -8 3 -14 8 -14 12 0 8 201 121 216 121 6
0 14 -3 18 -7z m165 -2 c11 -7 10 -11 -5 -19 -27 -13 -48 -4 -33 14 13 16 19
17 38 5z m-1549 -25 c0 -8 -17 -25 -37 -37 -21 -13 -48 -29 -60 -37 -21 -13
-23 -13 -23 5 0 12 18 30 53 50 60 36 67 38 67 19z m1425 4 c11 -18 -208 -141
-224 -125 -7 7 25 30 97 72 115 67 118 68 127 53z m-1355 -14 c0 -7 -11 -21
-25 -30 -24 -16 -25 -15 -25 2 0 15 23 35 48 41 1 1 2 -5 2 -13z m904 5 c3 -5
-94 -66 -217 -136 -122 -71 -316 -182 -430 -248 -144 -83 -211 -117 -219 -109
-7 7 11 22 59 50 37 22 124 72 193 112 433 252 586 339 597 339 6 1 14 -3 17
-8z m626 0 c0 -13 -37 -24 -51 -15 -8 4 -7 9 2 15 19 12 49 11 49 0z m-133
-19 c7 -4 -30 -32 -98 -71 -76 -44 -114 -60 -121 -53 -11 11 -8 14 117 86 86
50 84 49 102 38z m-447 -10 c0 -10 -827 -486 -851 -490 -11 -2 -19 1 -19 6 0
9 140 92 700 414 124 71 170 90 170 70z m590 -2 c0 -5 -5 -10 -11 -10 -5 0 -7
5 -4 10 3 6 8 10 11 10 2 0 4 -4 4 -10z m-1621 -34 c-8 -7 -35 -25 -61 -40
-43 -24 -48 -25 -48 -9 0 21 113 89 119 72 2 -6 -3 -17 -10 -23z m1526 13 c-3
-4 -51 -34 -105 -65 -65 -37 -106 -54 -117 -50 -13 5 2 18 62 53 44 25 93 53
109 63 28 18 61 17 51 -1z m-1445 -7 c0 -11 -11 -24 -25 -30 -21 -10 -25 -9
-25 5 0 15 27 42 43 43 4 0 7 -8 7 -18z m988 10 c8 -6 -50 -45 -175 -117 -104
-59 -295 -170 -427 -247 -131 -76 -242 -138 -247 -138 -39 0 14 38 218 156
131 76 321 186 423 245 102 60 187 108 190 108 3 1 11 -3 18 -7z m494 -27 c0
-5 -45 -36 -101 -68 -82 -48 -105 -57 -114 -47 -7 8 -8 14 -2 16 6 2 53 29
105 59 92 53 111 60 112 40z m-448 -3 c3 -5 -34 -31 -82 -59 -48 -27 -222
-128 -387 -223 -165 -96 -318 -184 -340 -196 -26 -15 -45 -20 -54 -15 -11 7
-8 12 10 24 26 16 577 335 644 372 22 13 72 41 110 64 71 41 90 48 99 33z
m-1102 -33 c-4 -3 -33 -21 -64 -38 -51 -29 -58 -30 -58 -14 0 23 111 87 122
70 4 -7 4 -15 0 -18z m1596 10 c-2 -5 -48 -36 -103 -68 -73 -43 -103 -56 -113
-49 -9 8 15 27 95 73 99 58 129 69 121 44z m-1528 -7 c0 -11 -11 -24 -25 -30
-22 -10 -25 -9 -25 7 0 14 23 34 48 40 1 1 2 -7 2 -17z m1078 9 c9 -6 -35 -36
-145 -99 -87 -50 -279 -161 -428 -246 -150 -87 -275 -154 -283 -151 -8 3 -12
8 -8 12 8 8 839 492 846 492 3 1 11 -3 18 -8z m46 -29 c4 -6 -378 -232 -794
-469 -37 -21 -61 -29 -70 -23 -16 10 -53 -13 455 280 209 121 385 220 392 220
6 0 14 -4 17 -8z m-1194 -20 c0 -11 -22 -29 -61 -51 -51 -28 -60 -30 -57 -15
1 9 28 32 58 50 66 40 60 38 60 16z m1610 10 c0 -26 -163 -117 -185 -104 -12
6 6 20 72 59 87 51 113 61 113 45z m-1540 -20 c0 -11 -11 -24 -25 -30 -20 -9
-25 -9 -25 3 0 7 10 21 22 29 28 20 28 20 28 -2z m1167 2 c2 -7 -799 -478
-838 -492 -6 -2 -17 -1 -26 2 -17 7 13 25 492 301 132 76 265 153 295 171 54
33 71 37 77 18z m47 -22 c2 -4 -97 -66 -221 -137 -124 -72 -316 -182 -427
-246 -111 -64 -207 -114 -214 -111 -7 2 -10 8 -5 13 4 4 123 74 263 155 140
81 327 189 415 241 157 91 179 101 189 85z m-1284 -20 c0 -12 -19 -29 -52 -48
-70 -38 -68 -38 -68 -21 0 11 100 85 118 87 1 0 2 -8 2 -18z m1610 5 c0 -16
-120 -86 -137 -80 -22 9 -14 17 50 54 67 40 87 46 87 26z m-1557 -42 c-23 -18
-33 -19 -33 -1 0 7 10 20 23 29 19 13 22 13 25 0 2 -8 -5 -21 -15 -28z m1277
26 c0 -7 -826 -484 -848 -489 -8 -2 -18 0 -23 5 -5 5 111 77 274 171 155 89
347 200 427 246 127 73 171 91 170 67z m37 -19 c8 -5 -148 -100 -417 -256
-236 -136 -434 -244 -441 -241 -6 5 -7 11 -2 16 11 11 835 488 843 489 3 0 10
-4 17 -8z m-1367 -20 c0 -10 -21 -30 -54 -50 -61 -36 -66 -38 -66 -17 0 10 91
76 118 84 1 1 2 -7 2 -17z m1610 5 c0 -19 -74 -59 -95 -51 -13 6 -8 13 27 35
48 31 68 36 68 16z m-190 -16 c0 -9 -830 -485 -853 -489 -11 -2 -18 1 -15 8 5
17 841 498 856 493 6 -3 12 -8 12 -12z m-1350 -2 c0 -12 -29 -38 -42 -39 -15
0 -8 29 10 39 23 14 32 13 32 0z m1387 -17 c8 -5 -144 -98 -409 -251 -231
-134 -426 -244 -432 -245 -6 0 -13 4 -15 9 -2 6 81 59 185 119 104 60 293 169
419 242 127 74 232 134 235 134 3 0 10 -4 17 -8z m153 -16 c0 -14 -21 -26 -46
-26 -21 0 -17 16 9 28 30 15 37 14 37 -2z m-1610 -10 c0 -8 -25 -28 -55 -45
-62 -35 -65 -36 -65 -17 0 8 24 28 53 44 60 35 67 37 67 18z m70 -11 c0 -12
-28 -35 -44 -35 -14 0 -5 30 12 39 24 14 32 13 32 -4z m1433 8 c7 -11 -845
-502 -860 -496 -7 3 -13 8 -13 12 1 9 842 491 857 491 6 0 14 -3 16 -7z m37
-28 c0 -6 -112 -75 -248 -154 -136 -79 -321 -186 -411 -238 -168 -98 -195
-111 -204 -96 -6 9 842 504 856 500 5 -1 8 -7 7 -12z m-1540 -19 c0 -8 -24
-28 -54 -45 -61 -35 -66 -36 -66 -17 0 8 24 28 53 45 59 35 67 37 67 17z m70
-10 c0 -7 -11 -21 -25 -30 -24 -16 -25 -15 -25 3 0 11 8 25 18 30 24 14 32 13
32 -3z m1524 6 c6 -11 -846 -501 -861 -495 -7 3 -13 8 -13 12 1 10 833 489
852 490 9 1 19 -2 22 -7z m14 -38 c-3 -17 -798 -484 -823 -484 -8 0 -16 3 -18
8 -3 4 166 106 375 227 210 121 397 230 417 242 44 26 53 27 49 7z m-1610 -10
c-2 -9 -29 -31 -60 -50 -49 -28 -58 -31 -58 -16 0 11 21 30 53 49 61 36 70 39
65 17z m72 -8 c0 -7 -11 -21 -25 -30 -23 -15 -25 -15 -25 0 0 16 26 43 43 44
4 0 7 -6 7 -14z m1538 -32 c-4 -24 -777 -469 -790 -456 -7 7 -5 14 8 22 116
69 771 448 777 449 5 1 7 -6 5 -15z m-1608 -8 c0 -8 -17 -25 -37 -37 -21 -13
-48 -29 -60 -37 -21 -13 -23 -13 -23 5 0 12 18 30 53 50 60 36 67 38 67 19z
m70 -10 c0 -8 -10 -22 -22 -31 -21 -14 -23 -14 -26 0 -2 9 5 23 15 30 23 18
33 18 33 1z m1529 -50 c-8 -7 -88 -56 -179 -108 -91 -53 -247 -144 -348 -202
-175 -101 -205 -115 -215 -98 -3 4 164 105 371 224 208 120 379 213 381 207 2
-6 -3 -17 -10 -23z m-1610 -10 c-8 -7 -35 -25 -61 -40 -43 -24 -48 -25 -48 -9
0 21 113 89 119 72 2 -6 -3 -17 -10 -23z m108 18 c4 -13 -37 -33 -56 -26 -10
3 -8 9 10 23 25 19 40 20 46 3z m45 -29 c2 -13 -49 -31 -59 -21 -10 10 27 38
45 34 7 -2 14 -7 14 -13z m-113 -4 c19 -12 -105 -84 -126 -73 -11 7 -1 17 44
45 66 40 64 39 82 28z m1570 -26 c-21 -19 -659 -387 -674 -389 -41 -3 -4 26
135 106 477 278 545 316 549 306 2 -5 -3 -16 -10 -23z m-1409 6 c0 -13 -40
-30 -56 -24 -14 5 -13 8 7 24 21 15 49 16 49 0z m-116 -10 c7 -10 -95 -71
-119 -71 -27 0 -16 15 38 47 55 34 72 39 81 24z m155 -10 c11 -7 10 -11 -7
-20 -41 -22 -74 -5 -34 18 21 13 24 13 41 2z m3319 -28 c-4 -52 -28 -56 -28
-4 0 30 4 41 16 41 11 0 14 -9 12 -37z m90 17 c48 -29 72 -75 72 -137 0 -47
-4 -58 -36 -93 -59 -66 -153 -74 -212 -20 -28 27 -28 32 6 51 24 14 31 14 47
3 29 -22 73 -17 100 11 33 32 33 76 0 106 -18 17 -25 35 -25 62 0 43 3 44 48
17z m-3532 -23 c-47 -34 -107 -60 -117 -50 -8 8 8 22 53 47 40 22 66 32 72 26
6 -6 3 -15 -8 -23z m3390 -53 c-3 -7 -23 -22 -46 -34 l-40 -20 0 20 c0 31 26
75 57 100 l28 22 3 -37 c2 -20 1 -43 -2 -51z m-1886 66 c0 -13 -14 -22 -350
-216 -260 -151 -320 -180 -320 -155 0 3 30 23 68 43 37 21 182 105 322 187
140 82 261 150 268 150 6 1 12 -3 12 -9z m-1336 -8 c8 -13 -40 -36 -55 -27 -9
6 -7 11 6 22 21 15 41 17 49 5z m-114 -17 c-1 -18 -106 -74 -121 -64 -15 10
-19 7 56 53 41 25 67 29 65 11z m159 -4 c11 -7 7 -13 -17 -25 -36 -18 -56 -3
-26 19 22 17 25 17 43 6z m-109 -19 c0 -8 -106 -72 -120 -72 -28 0 -13 22 33
48 51 30 87 40 87 24z m1400 -5 c0 -20 -597 -360 -614 -350 -11 6 63 54 257
166 150 86 286 165 302 176 35 23 55 26 55 8z m-1245 -6 c8 -14 -33 -34 -53
-26 -15 6 -15 8 2 21 23 16 42 18 51 5z m-116 -10 c10 -6 -4 -18 -50 -44 -43
-25 -67 -33 -74 -26 -7 7 -5 13 5 19 8 5 33 20 55 34 47 28 46 28 64 17z m156
-10 c8 -14 -34 -41 -52 -34 -12 5 -11 10 8 24 27 21 35 23 44 10z m-107 -22
c-2 -6 -29 -25 -60 -42 -42 -23 -60 -29 -68 -21 -8 8 3 20 42 43 53 31 93 40
86 20z m1312 -2 c0 -12 -174 -116 -501 -303 -36 -20 -62 -29 -70 -23 -7 4 -11
10 -9 12 3 2 113 66 245 142 132 76 258 149 280 162 46 26 55 28 55 10z
m-1537 -166 c160 -93 508 -294 772 -446 264 -153 482 -279 484 -281 3 -3 0 -9
-5 -14 -5 -5 -83 34 -204 103 -1084 625 -1350 781 -1350 793 0 8 2 14 5 14 3
0 137 -76 298 -169z m381 161 c8 -13 -40 -36 -60 -28 -16 6 -16 8 2 21 21 16
50 19 58 7z m3026 -10 c0 -11 -14 -25 -35 -35 -47 -22 -49 2 -2 32 39 25 37
25 37 3z m-3145 2 c18 -7 15 -10 -66 -56 -71 -41 -82 -18 -12 25 32 19 59 36
60 36 1 1 9 -2 18 -5z m165 -23 c0 -12 -43 -29 -59 -23 -10 3 -8 9 9 22 22 17
50 17 50 1z m-116 -10 c10 -15 -102 -73 -126 -65 -18 5 -13 11 38 40 62 35 79
40 88 25z m1226 -5 c0 -21 -506 -310 -528 -301 -15 5 -15 8 -2 15 332 193 517
299 523 300 4 0 7 -6 7 -14z m-1071 -5 c11 -7 10 -11 -7 -20 -41 -22 -74 -5
-34 18 21 13 24 13 41 2z m2856 -20 c-15 -14 -1450 -841 -1459 -841 -3 0 -6 6
-6 13 0 7 89 64 198 127 347 200 821 474 1042 602 126 73 219 122 225 117 6
-6 6 -12 0 -18z m-2968 3 c5 -15 -110 -74 -126 -65 -10 6 3 19 45 44 59 35 75
39 81 21z m163 -13 c0 -12 -50 -32 -62 -25 -14 9 32 43 49 37 7 -3 13 -8 13
-12z m-115 -10 c6 -10 -99 -71 -122 -71 -27 0 -11 19 40 48 55 33 72 37 82 23z
m1133 -6 c-2 -9 -106 -76 -232 -149 -201 -117 -257 -143 -256 -117 1 7 470
279 483 280 5 1 7 -6 5 -14z m-979 -4 c11 -7 10 -11 -7 -20 -41 -22 -74 -5
-34 18 21 13 24 13 41 2z m-109 -18 c0 -9 -107 -73 -120 -73 -28 0 -13 22 32
49 51 29 88 39 88 24z m154 -12 c7 -11 -43 -33 -56 -25 -7 5 -4 12 7 21 21 15
41 17 49 4z m-110 -10 c7 -10 -95 -71 -119 -71 -29 0 -15 18 38 48 55 33 72
37 81 23z m1044 -7 c-4 -24 -413 -258 -435 -250 -13 5 3 19 62 53 44 26 143
84 220 129 77 46 144 83 148 84 5 0 7 -7 5 -16z m-891 -10 c5 -14 -41 -34 -56
-24 -10 5 -7 12 10 24 25 17 40 17 46 0z m-107 -13 c-1 -13 -114 -72 -128 -66
-18 7 -15 10 50 50 47 28 78 35 78 16z m155 -10 c9 -15 -33 -33 -57 -25 -21 6
-21 7 3 20 29 16 46 17 54 5z m-117 -10 c10 -6 -2 -17 -42 -39 -64 -37 -81
-42 -81 -24 0 7 23 26 50 42 57 33 55 33 73 21z m960 -8 c-2 -10 -82 -62 -192
-126 -145 -84 -191 -106 -200 -97 -7 8 -7 14 -1 16 6 3 93 53 195 113 102 60
189 109 193 110 5 1 7 -7 5 -16z m-801 -9 c4 -13 -37 -33 -56 -26 -10 3 -8 9
10 23 25 19 40 20 46 3z m-107 -12 c0 -9 -104 -72 -118 -72 -30 0 -16 22 30
49 51 29 88 39 88 23z m152 -17 c2 -13 -49 -31 -59 -21 -10 10 27 38 45 34 7
-2 14 -7 14 -13z m-109 -15 c-27 -26 -120 -68 -132 -61 -17 11 105 82 126 74
8 -3 11 -9 6 -13z m864 -3 c-9 -24 -325 -200 -345 -192 -15 5 -15 8 -2 15 8 5
89 51 179 104 91 52 167 93 169 91 3 -2 2 -11 -1 -18z m-707 -6 c0 -12 -43
-29 -59 -23 -10 3 -8 9 9 22 22 17 50 17 50 1z m-121 -16 c0 -5 -25 -23 -55
-40 -39 -21 -56 -27 -64 -19 -8 8 3 20 42 43 52 30 81 36 77 16z m160 -4 c12
-8 10 -12 -11 -22 -15 -6 -35 -8 -45 -5 -16 7 -16 9 7 21 30 17 31 17 49 6z
m-109 -19 c0 -15 -116 -71 -129 -63 -9 6 5 19 50 44 58 33 79 38 79 19z m777
-5 c-3 -8 -69 -51 -146 -96 -102 -59 -146 -79 -157 -73 -11 6 24 31 143 100
87 50 159 89 162 87 2 -2 1 -11 -2 -18z m-617 -6 c0 -12 -50 -32 -62 -25 -14
9 32 43 49 37 7 -3 13 -8 13 -12z m-116 -10 c7 -10 -95 -71 -119 -71 -29 0
-15 18 38 48 55 33 72 37 81 23z m151 -7 c14 -6 12 -10 -11 -25 -21 -14 -31
-15 -42 -7 -11 10 -9 14 10 24 28 16 23 15 43 8z m-105 -23 c0 -3 -27 -21 -61
-40 -83 -45 -102 -27 -22 21 52 31 83 38 83 19z m690 0 c0 -13 -35 -37 -146
-99 -85 -49 -124 -62 -124 -44 0 9 240 150 258 151 6 1 12 -3 12 -8z m-536
-10 c7 -11 -40 -32 -59 -25 -14 6 -13 8 2 20 20 15 49 18 57 5z m-119 -7 c13
-5 5 -15 -36 -40 -30 -19 -61 -34 -70 -34 -35 0 -26 15 28 46 68 39 58 35 78
28z m162 -20 c5 -15 -41 -34 -58 -24 -15 10 -14 12 16 28 22 13 37 11 42 -4z
m-107 -13 c0 -3 -27 -21 -61 -40 -41 -22 -64 -30 -71 -23 -7 7 9 21 49 44 52
31 83 38 83 19z m600 -3 c0 -7 -45 -39 -100 -71 -73 -42 -105 -55 -116 -49
-12 7 8 23 92 70 116 66 124 69 124 50z m-446 -7 c8 -12 -50 -35 -65 -26 -8 6
-4 12 12 21 28 16 46 17 53 5z m-116 -10 c10 -6 -1 -17 -40 -39 -62 -36 -83
-42 -83 -24 0 7 23 26 50 42 57 33 55 33 73 21z m143 -32 c-20 -17 -51 -16
-51 1 0 11 44 28 59 22 11 -4 9 -9 -8 -23z m-98 4 c7 -6 -96 -73 -113 -73 -28
0 -13 22 32 49 54 31 70 36 81 24z m517 -7 c0 -20 -154 -106 -171 -95 -17 10
-20 7 76 63 87 50 95 53 95 32z m-356 -5 c8 -12 -50 -35 -65 -26 -8 6 -4 12
12 21 28 16 46 17 53 5z m-122 -16 c1 -15 -103 -74 -119 -68 -18 7 -8 17 54
54 48 28 64 32 65 14z m168 -14 c0 -11 -50 -32 -61 -26 -15 10 -10 21 14 32
22 10 47 7 47 -6z m-117 -8 c8 -7 -97 -73 -117 -73 -32 0 -21 16 31 46 59 34
75 39 86 27z m425 -9 c-4 -23 -114 -82 -127 -69 -8 8 8 22 52 48 69 41 80 44
75 21z m-273 -3 c8 -14 -33 -34 -53 -26 -14 5 -13 9 8 20 30 17 37 18 45 6z
m-105 -20 c0 -14 -116 -69 -129 -61 -14 8 -15 7 68 58 31 18 61 20 61 3z m135
-29 c-36 -18 -56 -1 -24 22 17 12 26 13 37 4 11 -10 9 -14 -13 -26z m-91 10
c5 -9 -98 -72 -118 -72 -32 0 -21 16 31 46 60 34 78 40 87 26z m336 -6 c0 -22
-70 -60 -84 -45 -7 7 -7 13 -1 15 6 2 24 13 40 23 37 24 45 25 45 7z m-185 -5
c6 -11 -26 -31 -49 -31 -23 0 -19 15 7 28 28 14 35 14 42 3z m-105 -20 c0 -3
-28 -21 -61 -39 -41 -23 -64 -31 -71 -24 -7 7 -2 15 13 25 80 48 94 55 106 50
7 -3 13 -8 13 -12z m154 -10 c7 -11 -40 -32 -59 -25 -14 6 -13 8 2 20 20 15
49 18 57 5z m-117 -9 c9 -5 -6 -19 -43 -40 -31 -18 -61 -32 -68 -32 -32 0 -21
16 31 46 65 37 63 37 80 26z m253 -7 c0 -18 -24 -30 -40 -20 -8 5 -5 11 7 21
24 18 33 17 33 -1z m-111 -26 c-21 -16 -49 -16 -49 1 0 11 43 28 59 22 10 -4
7 -10 -10 -23z m-118 -20 c-60 -36 -90 -49 -106 -43 -12 5 1 17 47 44 46 28
66 36 76 28 10 -9 6 -15 -17 -29z m183 12 c8 -12 -50 -35 -64 -26 -8 5 -5 11
7 21 21 15 49 18 57 5z m-121 -15 c1 -4 -23 -23 -54 -41 -40 -23 -60 -30 -70
-23 -8 5 -10 11 -4 14 6 2 33 17 60 34 49 29 65 32 68 16z m146 -27 c-25 -19
-40 -20 -46 -3 -5 14 38 33 56 26 10 -4 7 -10 -10 -23z m-96 4 c4 -3 -19 -22
-50 -40 -41 -25 -62 -32 -75 -26 -16 7 -12 13 34 40 53 31 79 39 91 26z m39
-28 c1 -15 -104 -74 -120 -68 -17 7 -7 18 55 54 48 28 64 32 65 14z m75 -12
c-3 -3 -11 -2 -17 2 -9 6 -9 10 1 16 14 8 27 -7 16 -18z m-23 -12 c6 -8 -13
-18 -79 -39 -16 -6 -39 -13 -50 -17 -11 -3 7 10 40 29 62 37 80 42 89 27z m16
-44 c-34 -32 -86 -56 -100 -47 -17 11 -16 12 35 38 48 25 88 30 65 9z m159
-13 c19 -8 32 -16 30 -18 -2 -2 -34 -20 -71 -40 l-68 -38 0 62 0 62 38 -7 c20
-4 52 -13 71 -21z m-149 -28 c0 -17 -54 -41 -70 -31 -8 5 -2 14 17 25 34 23
53 25 53 6z m-89 -71 c52 -30 99 -55 106 -55 6 0 54 25 107 55 52 30 99 55
104 55 4 0 20 -13 35 -28 l27 -28 -92 -52 c-82 -47 -94 -52 -121 -42 -39 13
-90 13 -120 -1 -21 -10 -36 -4 -115 42 l-91 53 26 28 c15 16 30 28 34 28 4 0
49 -25 100 -55z m89 20 c0 -8 -4 -15 -9 -15 -13 0 -22 16 -14 24 11 11 23 6
23 -9z m-237 -46 c96 -50 158 -92 149 -101 -12 -12 -182 80 -182 100 0 15 5
15 33 1z m547 -1 c-1 -20 -170 -112 -183 -99 -7 7 0 16 22 28 18 10 56 32 84
50 57 34 77 40 77 21z m-494 -112 l57 -35 1 -53 c2 -91 59 -148 147 -148 88 0
155 73 145 157 l-6 42 86 51 c47 28 89 48 93 45 16 -9 35 -99 34 -159 -2 -127
-84 -256 -201 -313 -50 -25 -68 -28 -152 -28 -84 0 -102 3 -152 28 -145 71
-228 230 -198 382 7 33 16 68 21 78 11 20 19 17 125 -47z"/>
</g>
</svg>
