<?xml version="1.0" standalone="no"?>
<!DOCTYPE svg PUBLIC "-//W3C//DTD SVG 20010904//EN"
 "http://www.w3.org/TR/2001/REC-SVG-20010904/DTD/svg10.dtd">
<svg version="1.0" xmlns="http://www.w3.org/2000/svg"
 width="600.000000pt" height="450.000000pt" viewBox="0 0 600.000000 450.000000"
 preserveAspectRatio="xMidYMid meet">
<metadata>
Created by potrace 1.16, written by Peter Selinger 2001-2019
</metadata>
<g transform="translate(0.000000,450.000000) scale(0.100000,-0.100000)"
fill="#000000" stroke="none">
<path d="M2 4418 c1 -46 3 -66 5 -45 4 32 11 41 58 71 77 50 77 56 1 56 l-66
0 2 -82z"/>
<path d="M165 4480 c5 -16 2 -20 -17 -20 -33 0 -50 -15 -93 -83 -20 -32 -40
-55 -45 -52 -6 4 -10 -6 -10 -21 0 -24 2 -25 18 -13 9 8 22 21 28 29 8 9 32
15 69 15 l58 2 -32 -29 c-18 -16 -30 -32 -27 -36 4 -3 12 0 18 6 22 22 31 12
24 -29 -6 -38 -5 -40 9 -25 24 23 28 20 22 -16 -5 -29 -5 -30 5 -10 16 32 28
27 29 -10 0 -18 3 -27 6 -20 11 27 21 10 16 -28 -4 -26 -2 -40 6 -40 6 0 11
-17 11 -41 0 -24 -4 -38 -10 -34 -6 3 -7 -1 -4 -9 4 -10 1 -16 -7 -16 -11 0
-11 -3 1 -10 12 -8 11 -10 -7 -10 -13 0 -23 5 -23 10 0 6 -10 10 -21 10 -16 0
-19 -3 -12 -12 18 -24 15 -89 -7 -125 -11 -19 -20 -37 -20 -40 0 -10 36 40 54
75 19 36 31 41 39 13 8 -31 -31 -423 -69 -699 -8 -61 -14 -122 -13 -135 2 -12
1 -26 -3 -32 -3 -5 -14 -62 -23 -125 -42 -290 -47 -306 -107 -297 -26 3 -28 1
-28 -31 0 -24 5 -35 18 -38 9 -3 22 -16 29 -30 11 -24 10 -26 -17 -36 l-29
-10 -1 -1239 0 -1239 3000 0 3000 0 0 1279 c0 1014 -3 1280 -12 1284 -10 4
-10 6 -1 6 10 1 12 215 13 966 0 853 -2 965 -15 965 -12 0 -15 -13 -15 -62 0
-35 -2 -373 -4 -753 -4 -622 -3 -692 12 -708 15 -16 15 -17 0 -12 -20 8 -28
-26 -16 -70 5 -17 4 -33 -2 -39 -6 -6 -10 -25 -10 -43 0 -18 -3 -33 -7 -33 -5
0 -34 4 -67 10 -65 11 -85 28 -86 77 0 39 21 36 39 -5 9 -19 15 -22 20 -13 7
11 10 11 14 0 4 -10 6 -10 6 2 1 9 -6 22 -14 29 -8 7 -13 16 -10 20 11 18 -38
60 -76 66 -22 4 -39 12 -39 19 0 8 -5 15 -11 17 -22 7 1 48 26 48 19 0 23 -4
18 -17 -6 -15 -5 -16 9 -3 9 8 15 20 15 25 -1 6 8 9 20 8 11 -1 24 4 27 12 3
9 0 15 -9 15 -8 0 -21 10 -29 21 -9 14 -21 19 -31 15 -9 -3 -13 -2 -10 3 11
18 -16 22 -45 7 -40 -19 -38 -11 3 14 21 13 26 20 15 20 -10 0 -18 6 -18 13 0
10 -12 13 -39 11 -28 -1 -45 4 -61 18 -14 13 -29 18 -45 14 -13 -3 -27 -1 -30
4 -4 6 -11 8 -16 5 -5 -4 -9 -2 -9 4 0 5 -8 12 -17 16 -10 3 -29 19 -41 36
-20 24 -22 32 -12 44 7 9 10 27 6 45 -5 28 -4 30 25 30 18 0 29 5 28 13 -3 19
12 48 22 41 20 -12 7 30 -19 65 -30 40 -33 84 -4 79 13 -2 16 4 14 27 -4 55
-6 64 -12 60 -4 -2 -14 18 -24 45 -13 36 -15 54 -7 67 8 14 11 15 12 3 1 -8 1
-18 1 -21 -1 -3 6 -6 14 -6 20 0 18 24 -6 57 -11 15 -17 29 -14 32 2 3 -2 11
-11 18 -17 14 -21 60 -5 60 6 0 13 -6 16 -13 2 -7 23 -13 48 -15 42 -1 43 -1
42 31 -1 35 -38 91 -52 79 -5 -4 -3 0 3 8 10 13 8 18 -6 27 -29 18 -26 108 4
115 11 2 11 9 1 39 -11 32 -10 39 9 64 14 17 25 23 29 16 4 -6 12 -11 19 -11
6 0 2 6 -9 14 -15 11 -20 23 -16 44 2 18 -2 35 -12 45 -9 8 -16 22 -16 30 0 7
-3 17 -7 21 -4 4 -8 17 -8 29 l0 22 -304 3 -303 3 -20 -23 c-20 -23 -20 -23 1
-26 21 -3 28 -17 13 -26 -4 -2 -9 -19 -10 -37 -1 -18 -6 -37 -11 -43 -5 -6 -7
-19 -6 -28 2 -10 -1 -20 -6 -24 -5 -3 -9 -10 -9 -16 0 -6 3 -8 7 -5 6 6 32
-21 33 -35 0 -3 -12 -11 -27 -16 l-28 -10 28 -1 c24 -1 27 -5 27 -35 0 -68
-11 -96 -37 -96 -15 0 -22 -4 -18 -11 4 -6 10 -8 13 -5 3 3 11 1 18 -5 13 -11
10 -71 -6 -114 -4 -11 -6 -33 -4 -48 2 -21 -4 -35 -24 -52 -15 -13 -23 -27
-18 -32 5 -4 11 -2 13 5 3 6 9 12 14 12 4 0 5 -8 2 -17 -6 -15 -4 -16 9 -5 13
11 15 6 12 -40 -2 -29 -7 -60 -10 -68 -3 -8 -8 -26 -10 -39 -4 -18 -1 -22 11
-18 20 8 20 -22 1 -68 -8 -19 -11 -35 -6 -35 10 0 7 -63 -5 -123 -8 -40 9 -92
27 -81 12 8 10 -3 -7 -36 -9 -17 -20 -30 -25 -30 -6 0 -10 -11 -10 -25 0 -14
5 -25 11 -25 5 0 8 -4 4 -9 -3 -6 1 -14 9 -18 13 -7 11 -13 -10 -38 -17 -20
-27 -26 -30 -17 -8 19 -21 14 -29 -10 -6 -19 -8 -20 -12 -6 -4 14 -8 15 -29 6
-13 -6 -24 -15 -24 -20 0 -4 -7 -8 -15 -8 -8 0 -15 -5 -15 -11 0 -8 -58 -9
-202 -4 -112 4 -211 7 -220 7 -17 -1 -23 15 -19 46 1 8 -3 20 -10 28 -6 8 -9
17 -5 21 3 3 6 1 6 -5 0 -7 5 -12 12 -12 6 0 4 7 -5 18 -10 10 -17 28 -17 40
0 26 20 40 21 15 0 -10 3 -13 5 -6 3 6 1 28 -4 47 -8 27 -7 38 4 47 12 9 11
14 -1 32 -8 12 -15 37 -15 57 0 26 3 31 10 20 5 -8 10 -10 10 -5 1 6 3 27 5
49 2 21 -2 54 -10 73 -8 20 -15 37 -15 39 0 2 15 19 34 38 25 26 36 32 45 23
7 -7 11 -7 11 -1 0 6 -3 14 -7 18 -4 4 -9 19 -11 33 -2 15 -11 40 -20 56 -13
23 -14 31 -5 34 10 4 9 10 -2 26 -18 26 -19 54 -3 60 10 3 10 9 2 23 -6 11 -8
28 -3 39 4 11 8 14 8 8 1 -18 21 -16 21 2 0 8 6 15 13 15 8 1 7 5 -4 13 -9 7
-15 20 -13 30 1 9 -2 17 -7 17 -5 0 -9 9 -9 20 0 11 5 20 10 20 7 0 7 7 -1 21
-8 16 -8 23 1 29 8 5 8 22 -4 66 -8 33 -13 69 -9 82 3 12 0 29 -7 36 -8 11 -9
20 0 35 11 21 30 29 30 12 0 -11 39 -6 52 7 12 12 19 72 12 110 l-6 32 -220 0
c-234 0 -243 -2 -244 -50 -4 -83 -9 -130 -16 -130 -4 0 -8 -10 -8 -22 0 -19 2
-20 10 -8 8 13 10 13 10 -2 0 -9 -4 -20 -10 -23 -13 -8 -13 -62 0 -70 6 -4 8
-11 4 -16 -3 -5 0 -16 6 -24 9 -11 9 -19 2 -28 -15 -18 -32 -97 -21 -97 17 0
4 -79 -17 -102 -11 -13 -19 -33 -18 -45 0 -13 -2 -23 -7 -23 -5 0 -6 -7 -3
-14 3 -8 -4 -25 -15 -37 -25 -27 -27 -49 -5 -49 10 0 14 -6 10 -15 -3 -8 -1
-15 5 -15 5 0 13 10 18 22 8 21 8 21 13 -5 3 -14 1 -24 -3 -21 -5 3 -9 -1 -9
-9 0 -20 -26 -41 -35 -27 -10 16 -19 12 -32 -15 -6 -14 -7 -25 -3 -25 5 0 10
5 12 12 6 17 28 0 28 -22 0 -11 -5 -31 -12 -45 -10 -23 -10 -28 6 -37 17 -9
17 -11 -1 -30 -18 -21 -18 -21 5 -9 12 6 22 16 22 21 0 6 3 10 8 10 4 0 7 -11
7 -25 0 -14 -5 -25 -12 -25 -7 0 -15 -16 -19 -35 -3 -19 -10 -35 -15 -35 -16
0 -10 -30 11 -52 24 -26 26 -104 2 -113 -8 -3 -11 -12 -8 -20 9 -25 -4 -70
-30 -100 -26 -31 -10 -29 -234 -20 -30 1 -104 3 -163 4 -60 0 -106 4 -104 9 3
4 -40 6 -95 4 -55 -2 -107 0 -117 4 -9 4 -29 6 -45 5 -16 -2 -33 3 -37 11 -7
10 -9 10 -9 1 0 -9 -20 -13 -66 -13 -41 0 -63 4 -59 10 4 6 -8 10 -29 10 -19
0 -37 -6 -40 -12 -5 -10 -7 -10 -12 0 -3 6 -10 9 -15 6 -20 -12 -273 -4 -281
9 -5 7 -8 8 -8 1 0 -6 -13 -11 -30 -11 -16 0 -27 4 -24 9 8 13 -10 10 -25 -4
-10 -9 -12 -9 -7 -1 3 6 2 14 -4 18 -5 3 -10 1 -10 -5 0 -17 -682 -3 -692 13
-5 8 -8 8 -8 1 0 -7 -29 -9 -82 -8 -46 1 -110 3 -143 3 -43 1 -56 4 -45 11 20
13 4 13 -20 0 -13 -7 -21 -7 -25 0 -3 5 -11 10 -16 10 -6 0 -7 -6 -3 -12 5 -8
0 -7 -11 2 -14 11 -19 12 -22 3 -4 -10 -10 -10 -25 -2 -13 7 -18 7 -14 1 4 -7
-32 -9 -111 -7 -65 2 -293 7 -508 10 -214 4 -393 9 -397 12 -15 8 -8 -7 10
-25 23 -23 52 -35 52 -21 0 17 203 1 213 -16 5 -9 22 -15 45 -14 l37 1 -39 11
c-35 11 -30 12 60 11 86 0 99 -3 102 -18 3 -14 7 -15 18 -5 8 7 29 9 50 6 44
-7 38 2 -8 13 -18 4 36 6 120 4 83 -1 161 -5 171 -9 10 -3 38 -1 62 4 43 10
64 6 42 -7 -7 -4 7 -7 30 -7 24 1 49 5 56 10 8 5 12 4 9 -1 -4 -5 32 -10 80
-12 61 -2 88 1 94 10 6 11 8 10 8 0 0 -9 7 -11 23 -7 15 5 19 4 12 -3 -6 -6
-44 -13 -85 -15 l-75 -3 76 -2 c57 -1 80 2 89 13 9 11 17 12 32 4 11 -6 18 -7
15 -2 -3 4 17 9 43 10 36 1 53 -3 66 -18 12 -14 30 -19 66 -19 27 0 48 5 48
11 0 5 -5 7 -10 4 -6 -3 -10 0 -10 8 0 12 7 12 40 4 22 -6 40 -15 40 -19 0 -4
12 -8 28 -7 l27 1 -25 9 c-21 7 41 6 105 -1 6 -1 20 2 33 5 17 6 22 3 22 -11
1 -18 1 -18 11 -2 8 15 13 16 29 5 16 -9 24 -9 40 1 26 16 31 15 24 -3 -7 -18
17 -20 34 -3 9 9 12 9 12 0 0 -7 16 -12 40 -12 31 0 40 4 40 18 1 16 1 16 14
0 7 -10 26 -18 42 -18 22 0 25 3 14 10 -22 13 -10 16 40 9 37 -5 40 -6 13 -7
-18 -1 -33 -6 -33 -10 0 -5 82 -9 183 -10 170 -1 260 -4 562 -17 83 -4 113 -2
98 5 -13 5 -23 11 -23 12 0 10 156 4 163 -6 5 -8 10 -6 18 4 9 12 10 11 6 -7
-5 -22 -3 -23 66 -22 62 1 68 2 40 10 -37 11 -40 14 -17 23 8 3 12 2 9 -4 -3
-6 4 -10 17 -10 13 0 30 -6 40 -13 9 -8 50 -14 100 -15 101 -2 93 6 -11 10
-42 2 -76 8 -78 14 -3 8 31 10 109 7 123 -4 151 -9 129 -22 -10 -7 -11 -13 -2
-30 7 -12 16 -19 21 -16 13 8 20 -9 10 -24 -6 -11 -104 -10 -566 8 -529 20
-780 28 -1664 51 -206 5 -472 12 -590 15 -426 11 -672 13 -664 6 5 -5 52 -30
104 -57 52 -27 101 -54 108 -61 6 -6 21 -15 32 -18 11 -3 20 -11 20 -16 0 -20
55 -59 76 -54 18 4 21 -1 23 -46 2 -57 -6 -92 -20 -84 -5 4 -9 1 -9 -6 0 -8
-4 -8 -12 -1 -10 8 -14 3 -15 -19 -1 -19 2 -29 10 -27 18 4 53 -34 49 -54 -2
-9 2 -20 9 -24 8 -4 9 -3 5 4 -4 6 0 25 9 42 9 17 11 30 5 30 -14 0 -13 157 1
166 6 3 16 1 22 -5 14 -14 30 -15 22 -1 -3 6 1 10 9 10 10 0 13 6 10 18 -4 13
-3 13 7 -2 9 -16 9 -21 0 -24 -9 -3 -9 -7 0 -18 13 -16 4 -84 -11 -84 -6 0
-10 6 -11 13 0 6 -5 -1 -10 -18 -16 -48 -17 -59 -9 -80 7 -19 9 -18 19 8 10
26 41 38 41 16 0 -5 -4 -8 -9 -4 -6 3 -15 -3 -21 -14 -8 -16 -6 -24 12 -42 13
-12 18 -19 11 -15 -6 3 -13 0 -16 -6 -7 -21 4 -47 22 -53 15 -5 19 -20 12 -55
-1 -3 -6 2 -11 10 -5 8 -10 10 -10 3 0 -6 -9 -9 -20 -6 -11 3 -20 0 -20 -6 0
-6 5 -11 10 -11 6 0 10 -6 10 -14 0 -8 6 -17 13 -19 6 -3 2 -6 -10 -6 -13 -1
-28 8 -35 19 -11 18 -24 20 -115 20 -57 0 -103 -4 -103 -9 0 -5 -7 -11 -14
-14 -10 -4 -13 -1 -9 9 4 12 0 14 -23 8 -16 -4 -42 -13 -57 -21 -16 -8 -31
-12 -33 -10 -8 7 65 38 94 40 24 2 28 7 32 42 4 33 9 41 29 43 22 3 23 7 19
57 -3 30 -10 61 -18 70 -12 14 -14 14 -30 0 -12 -11 -20 -13 -25 -6 -3 6 -15
11 -27 11 -11 0 -22 8 -25 20 -3 11 -14 20 -24 20 -13 0 -17 -5 -12 -16 5 -14
3 -15 -11 -7 -19 10 -106 -12 -106 -27 0 -5 -9 -6 -20 -3 -11 3 -21 0 -21 -6
-1 -6 -3 -15 -4 -21 -1 -5 -3 -16 -4 -22 -2 -7 -6 -4 -11 7 l-9 20 0 -20 c-1
-17 -3 -17 -11 -5 -6 10 -10 11 -10 3 0 -7 -5 -13 -11 -13 -13 0 -10 41 23
285 15 115 18 160 9 163 -6 2 -11 8 -11 13 0 6 4 8 9 4 13 -7 24 63 36 220 3
39 8 90 10 115 3 25 12 133 21 240 9 107 18 215 21 240 3 25 5 55 5 68 0 19 4
22 22 16 19 -6 20 -5 4 7 -15 12 -16 22 -8 79 5 36 10 72 10 80 0 12 2 12 9 2
13 -22 20 8 14 59 -7 52 0 48 43 -29 19 -31 34 -50 34 -42 0 13 1 13 10 0 20
-31 9 -1 -16 44 -15 26 -24 49 -22 51 2 3 23 -21 47 -53 36 -49 41 -53 37 -28
-6 36 -64 120 -96 140 -39 24 -5 19 52 -9 59 -29 70 -31 42 -10 -18 14 -18 14
6 13 14 0 45 2 70 6 29 4 38 3 25 -2 -18 -8 -16 -10 15 -17 19 -4 38 -12 41
-17 4 -6 9 -6 14 2 4 7 -1 13 -14 17 -27 7 -27 22 -1 20 18 -1 25 -16 21 -41
-2 -9 28 -32 68 -53 30 -16 32 -16 25 2 -9 23 6 18 28 -11 15 -18 23 -22 28
-13 5 7 6 18 3 26 -3 7 -2 21 2 31 16 36 14 50 -8 57 -27 9 -58 6 -73 -6 -11
-9 -24 -2 -24 14 0 5 7 7 14 4 16 -6 32 26 21 43 -3 5 -2 10 4 10 5 0 15 -8
21 -17 9 -15 10 -14 5 7 -6 23 -3 21 28 -12 48 -52 56 -48 13 5 -20 24 -33 47
-29 50 3 4 0 7 -8 7 -21 0 -60 30 -53 41 3 5 17 1 32 -10 35 -24 72 -36 72
-22 0 6 -7 11 -17 11 -9 0 -13 3 -9 8 4 4 12 7 18 7 13 0 34 32 26 40 -3 3
-22 9 -43 12 -26 4 -40 2 -46 -8 -6 -10 -9 -10 -9 -1 0 9 -64 12 -286 12 -281
0 -285 0 -279 -20z m4155 -16 c0 -8 -4 -14 -10 -14 -5 0 -10 9 -10 21 0 11 5
17 10 14 6 -3 10 -13 10 -21z m-4066 -29 c4 -14 11 -25 16 -25 6 0 10 -10 10
-21 0 -16 -5 -20 -20 -16 -11 3 -18 2 -15 -3 8 -13 -18 -18 -42 -9 -16 6 -21
14 -17 26 5 17 5 17 -6 1 -12 -19 -45 -24 -55 -9 -3 6 7 21 22 35 29 27 50 35
37 14 -5 -7 -3 -8 6 -3 8 5 20 -1 33 -16 l19 -24 -14 25 c-11 18 -12 28 -4 37
17 18 23 15 30 -12z m323 -21 c-3 -4 -14 -3 -24 0 -15 6 -15 8 -3 16 16 10 39
-4 27 -16z m142 2 c17 -9 20 -15 11 -21 -7 -4 -21 1 -33 14 -24 24 -14 27 22
7z m-331 -27 c4 -19 -19 -31 -38 -19 -18 11 -4 42 17 38 10 -2 19 -10 21 -19z
m132 -10 c0 -18 -20 -26 -33 -13 -8 8 15 44 25 38 4 -3 8 -14 8 -25z m4585 21
c3 -5 1 -10 -4 -10 -6 0 -11 5 -11 10 0 6 2 10 4 10 3 0 8 -4 11 -10z m-4633
-30 c-4 -30 -16 -39 -27 -20 -9 15 4 50 19 50 8 0 11 -10 8 -30z m92 4 c5 -14
4 -15 -9 -4 -17 14 -19 20 -6 20 5 0 12 -7 15 -16z m66 6 c0 -6 11 -15 25 -20
22 -8 37 -41 18 -39 -13 1 -66 69 -54 69 6 0 11 -5 11 -10z m77 -6 c-3 -3 -12
-4 -19 -1 -8 3 -5 6 6 6 11 1 17 -2 13 -5z m-279 -37 c28 -30 18 -41 -19 -22
-18 10 -26 20 -23 30 8 21 17 19 42 -8z m136 -2 c3 -9 0 -15 -9 -15 -8 0 -15
7 -15 15 0 8 4 15 9 15 5 0 11 -7 15 -15z m4361 -44 c-7 -31 -25 -34 -25 -5 0
15 22 45 28 39 2 -2 1 -17 -3 -34z m-4744 -8 c-10 -17 -10 -16 -11 3 0 23 13
41 18 25 2 -6 -1 -18 -7 -28z m599 -13 c5 0 7 -7 4 -15 -5 -12 -10 -12 -27 -3
-12 6 -23 11 -24 10 -9 -6 -23 0 -19 7 3 5 15 7 26 4 15 -4 20 0 21 13 1 17 2
17 6 2 2 -10 8 -18 13 -18z m4148 -75 c-3 -3 -9 2 -12 12 -6 14 -5 15 5 6 7
-7 10 -15 7 -18z m-13 -25 c3 -5 1 -10 -4 -10 -6 0 -11 5 -11 10 0 6 2 10 4
10 3 0 8 -4 11 -10z m-631 -15 c-4 -8 -7 -15 -9 -15 -2 0 -5 7 -9 15 -3 9 0
15 9 15 9 0 12 -6 9 -15z m-196 -15 c-14 -22 -24 -19 -15 5 4 8 11 15 17 15 6
0 6 -7 -2 -20z m1287 0 c3 -5 1 -10 -4 -10 -6 0 -11 5 -11 10 0 6 2 10 4 10 3
0 8 -4 11 -10z m-460 -49 c-6 -5 -25 10 -25 20 0 5 6 4 14 -3 8 -7 12 -15 11
-17z m-835 -86 c11 -13 10 -14 -4 -9 -9 3 -16 10 -16 15 0 13 6 11 20 -6z
m-3860 -49 c0 -8 -4 -18 -10 -21 -5 -3 -10 3 -10 14 0 12 5 21 10 21 6 0 10
-6 10 -14z m3747 -38 c-3 -8 -6 -5 -6 6 -1 11 2 17 5 13 3 -3 4 -12 1 -19z
m933 -13 c0 -5 -5 -3 -10 5 -5 8 -10 20 -10 25 0 6 5 3 10 -5 5 -8 10 -19 10
-25z m520 -12 c0 -10 9 -33 20 -50 11 -18 15 -33 10 -33 -15 0 -63 77 -55 89
10 17 25 13 25 -6z m-1351 -150 c0 -25 -1 -26 -9 -8 -12 27 -12 35 0 35 6 0
10 -12 9 -27z m1065 -23 c-6 -5 -24 21 -24 34 0 6 6 1 14 -10 8 -10 12 -21 10
-24z m-834 -6 c0 -8 -5 -12 -10 -9 -6 4 -8 11 -5 16 9 14 15 11 15 -7z m816
-101 c-11 -11 -19 6 -11 24 8 17 8 17 12 0 3 -10 2 -21 -1 -24z m-6 -113 c-13
-24 -27 -33 -35 -21 -7 12 25 52 37 45 4 -3 4 -14 -2 -24z m3 -71 c5 -3 0 -9
-11 -11 -15 -4 -18 -1 -14 14 2 10 7 15 11 11 3 -4 10 -11 14 -14z m-3388
-296 c5 -14 -22 -17 -49 -7 -26 10 -18 20 14 19 16 0 32 -6 35 -12z m1085 -33
c11 -7 5 -8 -20 -4 -43 8 -51 14 -19 14 13 0 31 -5 39 -10z m57 -6 c-3 -3 -12
-4 -19 -1 -8 3 -5 6 6 6 11 1 17 -2 13 -5z m251 -9 c8 -7 -68 -4 -103 5 -20 5
-9 7 34 4 35 -2 66 -6 69 -9z m32 5 c0 -5 -4 -10 -10 -10 -5 0 -10 5 -10 10 0
6 5 10 10 10 6 0 10 -4 10 -10z m225 -10 c3 -5 1 -10 -4 -10 -6 0 -11 5 -11
10 0 6 2 10 4 10 3 0 8 -4 11 -10z m35 0 c0 -5 -4 -10 -10 -10 -5 0 -10 5 -10
10 0 6 5 10 10 10 6 0 10 -4 10 -10z m1310 0 c0 -5 -2 -10 -4 -10 -3 0 -8 5
-11 10 -3 6 -1 10 4 10 6 0 11 -4 11 -10z m-356 -60 c30 0 37 3 26 10 -20 13
-10 12 28 -1 21 -7 36 -7 50 0 15 8 23 7 32 -4 7 -8 25 -15 41 -15 26 0 29 -3
29 -32 l0 -31 -152 6 c-83 4 -153 9 -155 11 -3 2 0 12 6 23 14 27 24 57 23 68
-1 6 5 0 14 -12 13 -18 26 -23 58 -23z m-4187 -22 c-3 -8 -6 -5 -6 6 -1 11 2
17 5 13 3 -3 4 -12 1 -19z m4521 -14 c36 -17 43 -44 12 -44 -13 0 -24 10 -31
27 -8 21 -12 24 -19 13 -5 -8 -6 -18 -3 -22 2 -5 -14 -8 -36 -7 -34 3 -41 6
-41 24 0 12 3 25 8 29 10 11 72 0 110 -20z m-3913 -4 c8 7 19 9 25 5 13 -8 13
-75 -1 -75 -5 0 -7 -4 -4 -10 4 -6 -1 -7 -11 -3 -12 4 -15 3 -10 -5 4 -7 3
-12 -2 -12 -6 0 -13 7 -16 16 -3 8 -11 12 -17 8 -9 -5 -10 4 -5 36 8 51 19 73
24 47 3 -14 7 -16 17 -7z m1056 -66 c1 -24 3 -48 4 -54 1 -5 3 -24 4 -40 1
-22 7 -33 24 -39 12 -5 24 -6 27 -2 8 9 34 7 42 -4 5 -6 8 -4 8 5 0 13 1 13
10 0 9 -13 10 -13 10 0 0 13 1 13 10 0 6 -9 10 -10 10 -3 0 8 26 12 78 12 42
1 101 2 129 4 37 1 54 -2 58 -11 9 -25 5 -42 -10 -42 -29 0 -15 -17 15 -18 27
-1 30 3 30 28 0 32 10 43 28 31 8 -5 8 -13 -2 -33 -14 -26 -13 -26 21 -33 19
-3 37 -5 39 -2 2 2 0 17 -5 33 -6 20 -4 33 4 41 16 15 25 -3 25 -48 0 -19 5
-29 15 -29 8 0 15 5 15 10 0 6 5 10 11 10 5 0 7 -4 4 -10 -3 -5 1 -10 9 -10
12 0 16 10 16 34 0 29 3 34 21 33 20 -1 21 -9 8 -56 -3 -8 7 -14 27 -17 27 -3
32 0 36 21 3 13 1 22 -3 19 -5 -3 -9 1 -9 9 0 10 7 13 20 10 14 -4 20 -14 20
-34 0 -16 5 -29 10 -29 6 0 10 14 10 31 0 20 4 29 13 26 6 -2 12 -15 12 -28 0
-20 6 -25 31 -27 27 -3 32 1 36 22 3 14 1 23 -3 20 -5 -3 -9 2 -9 10 0 9 3 16
8 16 11 0 34 -16 33 -24 -5 -34 1 -43 28 -44 l29 -1 7 115 7 114 39 0 39 0 0
-80 c0 -57 4 -80 13 -80 8 0 8 -3 -2 -9 -12 -8 -12 -14 -3 -33 11 -21 12 -21
9 -2 -3 13 1 21 9 21 8 0 14 -5 13 -11 -3 -26 2 -46 11 -46 6 0 10 7 10 16 0
11 6 15 20 11 11 -3 20 -1 20 4 0 5 5 9 10 9 6 0 10 -11 10 -25 0 -22 4 -25
38 -24 23 1 28 3 15 6 -28 5 -30 23 -3 23 15 0 20 7 20 25 0 14 4 25 9 25 5 0
9 -6 8 -12 0 -7 1 -28 1 -45 2 -37 22 -46 23 -10 l0 22 9 -22 c12 -31 30 -29
30 2 0 31 17 33 22 3 2 -18 11 -24 36 -26 29 -3 32 -1 32 22 0 19 -5 26 -18
26 -10 0 -19 7 -19 15 0 11 4 12 11 5 19 -19 38 -12 31 13 -6 21 -5 21 8 4 12
-14 16 -15 21 -5 6 13 4 1 -10 -56 -6 -26 -5 -28 16 -21 15 5 25 2 31 -6 15
-25 20 -1 11 50 -5 28 -5 51 -1 51 5 0 9 -7 9 -16 0 -8 5 -12 10 -9 6 4 10
-12 10 -39 0 -34 4 -46 15 -46 8 0 15 8 15 17 0 15 2 14 14 -3 20 -26 25 -17
28 50 1 32 4 53 6 47 2 -6 7 -9 10 -7 4 2 5 -21 4 -51 l-4 -54 34 3 c31 3 33
6 35 41 2 56 13 59 13 4 0 -35 4 -47 15 -47 8 0 15 5 15 12 0 6 7 3 15 -8 12
-16 14 -17 15 -2 0 9 3 25 6 35 5 15 4 16 -6 3 -9 -13 -11 -12 -7 5 2 11 9 19
15 17 7 -1 13 4 14 10 0 7 4 -7 7 -32 5 -38 10 -46 30 -48 29 -4 53 22 43 46
-5 15 -3 15 10 4 14 -11 17 -10 21 5 3 10 5 4 6 -14 1 -33 15 -51 26 -33 5 8
11 8 20 0 8 -7 19 -9 25 -5 11 7 12 -11 2 -37 -7 -16 -10 -16 -36 -3 -39 20
-126 20 -126 0 0 -8 -8 -16 -17 -16 -53 -4 -112 5 -141 22 -46 26 -112 26
-119 -1 -4 -16 -14 -20 -46 -20 -47 0 -118 20 -111 31 6 11 -54 21 -97 17 -22
-2 -33 -8 -31 -17 5 -22 -111 -10 -146 16 -16 12 -49 24 -75 28 -40 6 -47 4
-56 -14 -9 -17 -21 -21 -60 -21 -54 0 -114 17 -105 31 6 10 -85 12 -110 3 -9
-3 -13 -10 -10 -15 3 -5 -21 -9 -53 -9 -43 0 -71 7 -105 25 -47 25 -82 31
-112 19 -9 -3 -13 -10 -10 -15 7 -12 -62 -11 -108 1 -21 6 -45 18 -53 27 -21
20 -122 32 -110 13 17 -27 -121 -1 -166 31 -18 14 -113 3 -104 -11 9 -15 -26
-27 -97 -35 -50 -5 -68 -3 -68 5 0 8 -9 10 -25 6 -21 -5 -25 -3 -25 18 0 33
-24 88 -35 79 -4 -5 -5 -2 -1 5 10 17 37 15 30 -2 -3 -8 -1 -17 5 -21 6 -3 11
2 11 12 1 16 3 15 20 -6 11 -13 20 -18 20 -11 0 14 107 9 158 -8 17 -6 32 -7
32 -2 0 5 -8 11 -17 13 -14 4 -12 5 5 6 14 1 22 -5 22 -14 0 -13 4 -14 21 -4
17 9 19 13 8 20 -10 6 -11 9 -1 9 8 0 12 20 12 68 0 37 5 73 10 78 6 6 24 9
40 6 28 -4 30 -7 31 -48z m-1039 -83 c-15 -25 -21 -29 -26 -16 -3 9 -2 14 3
11 4 -3 13 6 20 21 6 14 14 23 17 20 3 -2 -4 -19 -14 -36z m4702 4 c-4 -8 -8
-15 -10 -15 -2 0 -4 7 -4 15 0 8 4 15 10 15 5 0 7 -7 4 -15z m-4394 -15 c0 -5
-8 -10 -17 -10 -15 0 -16 2 -3 10 19 12 20 12 20 0z m4370 -6 c0 -8 -4 -12
-10 -9 -5 3 -10 10 -10 16 0 5 5 9 10 9 6 0 10 -7 10 -16z m70 -5 c0 -14 -17
-10 -23 5 -4 10 -1 13 9 9 7 -3 14 -9 14 -14z m-4307 3 c2 7 8 10 11 6 4 -3
-1 -15 -11 -25 -10 -10 -20 -34 -21 -53 -2 -19 -6 -37 -8 -39 -2 -2 -29 0 -59
6 -43 7 -55 7 -59 -4 -6 -15 -36 -18 -36 -3 0 6 6 10 13 10 8 0 7 3 -3 9 -8 6
-18 7 -22 4 -5 -2 -15 1 -23 7 -11 9 -15 9 -15 1 0 -6 -4 -11 -10 -11 -19 0
-10 19 12 26 12 3 28 13 36 20 7 8 22 14 31 14 10 0 24 7 31 15 15 18 81 20
99 3 12 -11 13 -10 7 6 -5 15 -4 17 8 7 11 -9 15 -9 19 1z m97 3 c0 -3 -10
-10 -22 -15 -21 -8 -22 -9 -3 -9 11 -1 30 6 43 14 20 15 24 14 51 -6 39 -28
60 -77 40 -90 -11 -7 -15 0 -17 31 -2 26 -8 40 -17 40 -7 0 -15 -3 -18 -7 -2
-5 -3 -3 -1 3 1 6 -8 9 -19 8 -12 -1 -32 -3 -44 -3 -18 -1 -22 -8 -25 -43 -3
-40 -4 -42 -38 -42 -52 0 -53 33 -2 84 34 34 72 52 72 35z m2057 -77 c-3 -7
-5 -2 -5 12 0 14 2 19 5 13 2 -7 2 -19 0 -25z m2553 3 c0 -26 -4 -29 -36 -33
-35 -4 -54 5 -34 17 6 4 8 10 5 15 -3 5 9 14 27 19 18 5 34 10 36 10 1 1 2
-12 2 -28z m-4585 -1 c0 -7 -6 -15 -12 -17 -8 -3 -13 4 -13 17 0 13 5 20 13
18 6 -3 12 -11 12 -18z m1802 -2 c-3 -8 -6 -5 -6 6 -1 11 2 17 5 13 3 -3 4
-12 1 -19z m308 -8 c-3 -5 0 -10 7 -10 10 0 10 -2 -1 -9 -7 -5 -10 -14 -7 -20
4 -6 2 -11 -3 -11 -6 0 -11 14 -11 30 0 17 5 30 11 30 5 0 7 -4 4 -10z m2128
-8 c-3 -14 -12 -17 -34 -14 -16 2 -27 8 -24 12 3 5 -1 11 -7 13 -7 3 6 6 29 6
35 1 40 -2 36 -17z m-3878 -30 c-8 -9 -25 20 -18 31 3 5 10 2 15 -7 6 -10 7
-20 3 -24z m2584 11 c1 10 5 16 10 12 6 -3 6 -17 1 -35 -8 -28 -7 -30 21 -30
27 0 29 2 30 43 1 23 4 33 6 23 4 -15 7 -16 14 -5 6 10 9 2 9 -23 0 -26 5 -38
14 -38 12 0 25 -28 26 -54 0 -15 -112 0 -152 20 -31 16 -36 23 -32 44 10 44
14 51 24 45 5 -3 10 2 11 12 1 13 3 11 9 -7 6 -18 8 -20 9 -7z m1331 16 c0 10
3 11 13 2 8 -6 16 -8 19 -5 3 3 9 1 13 -5 4 -7 -8 -11 -34 -11 -39 0 -50 8
-34 23 4 4 10 2 15 -5 6 -10 8 -10 8 1z m-4243 -21 c-3 -8 -6 -5 -6 6 -1 11 2
17 5 13 3 -3 4 -12 1 -19z m2253 2 c0 -11 -4 -20 -9 -20 -5 0 -7 9 -4 20 3 11
7 20 9 20 2 0 4 -9 4 -20z m872 -5 c1 -6 -15 -13 -35 -16 -35 -5 -35 -5 -20
17 11 17 20 21 34 15 11 -4 21 -11 21 -16z m1228 21 c0 -3 -4 -8 -10 -11 -5
-3 -10 -1 -10 4 0 6 5 11 10 11 6 0 10 -2 10 -4z m90 -11 c0 -8 -4 -15 -10
-15 -5 0 -10 7 -10 15 0 8 5 15 10 15 6 0 10 -7 10 -15z m-5180 -5 c0 -5 -4
-10 -10 -10 -5 0 -10 5 -10 10 0 6 5 10 10 10 6 0 10 -4 10 -10z m691 -8 c-7
-2 -18 1 -23 6 -8 8 -4 9 13 5 13 -4 18 -8 10 -11z m669 9 c0 -5 -5 -11 -12
-13 -6 -2 -8 -10 -4 -16 10 -17 24 -15 29 6 4 13 5 11 6 -5 1 -26 -16 -30 -44
-9 -16 11 -17 15 -4 29 16 18 29 22 29 8z m-255 -11 c-3 -5 -12 -10 -18 -10
-7 0 -6 4 3 10 19 12 23 12 15 0z m163 -20 c26 0 33 -4 30 -17 -3 -15 -14 -18
-60 -18 -31 0 -54 3 -52 6 2 4 -7 14 -21 23 -40 26 -29 36 23 21 26 -8 62 -15
80 -15z m-245 1 c-5 -20 -49 -41 -85 -41 -10 0 -35 7 -56 16 -33 14 -35 17
-17 24 11 5 34 7 50 4 17 -2 44 0 60 5 46 14 54 13 48 -8z m2947 4 c7 -9 19
-14 26 -11 7 3 16 0 20 -6 5 -7 12 -5 21 7 7 11 13 13 13 6 0 -7 5 -9 10 -6
16 10 12 -5 -11 -36 -16 -23 -28 -29 -57 -29 -68 0 -83 9 -80 46 2 30 4 33 28
28 19 -4 22 -3 10 5 -8 6 -10 11 -4 11 6 0 17 -7 24 -15z m1116 -13 c-22 -5
-30 3 -21 18 5 8 11 7 22 -2 15 -12 14 -13 -1 -16z m-4395 7 c-34 -6 -65 -6
-80 0 -20 7 -7 9 54 9 l80 0 -54 -9z m149 7 c0 -2 -7 -6 -15 -10 -8 -3 -15 -1
-15 4 0 6 7 10 15 10 8 0 15 -2 15 -4z m798 -14 c-19 -4 -24 -27 -9 -37 6 -3
14 2 19 11 5 10 12 12 16 6 3 -5 -1 -16 -10 -23 -13 -11 -6 -17 53 -46 75 -38
119 -39 178 -4 33 20 54 17 98 -13 46 -31 114 -32 169 -2 52 27 67 26 111 -10
56 -47 144 -49 191 -5 18 17 25 18 42 8 108 -62 152 -71 208 -42 30 16 73 64
68 78 -1 5 2 6 8 2 8 -5 7 -11 -2 -22 -10 -12 -8 -18 12 -34 14 -10 33 -21 43
-25 19 -6 22 -20 7 -29 -5 -3 -10 -23 -10 -44 0 -36 -2 -38 -27 -36 -47 5
-593 17 -593 13 0 -1 -3 -85 -7 -185 l-6 -183 54 -1 c52 0 53 -1 24 -12 -29
-12 -30 -13 -28 -77 l1 -65 -14 60 c-8 33 -20 63 -27 67 -7 4 -50 9 -97 10
-47 1 -66 3 -42 5 23 2 42 8 42 12 0 5 12 6 26 3 20 -4 25 -1 22 9 -3 8 2 19
11 26 14 11 14 12 -3 13 -16 0 -17 3 -8 12 15 15 16 32 2 23 -5 -3 -10 0 -11
7 0 10 -2 10 -6 1 -16 -40 -23 3 -23 137 l0 150 -67 0 c-38 0 -198 4 -358 10
-159 5 -343 11 -407 13 l-118 4 0 -38 c0 -45 -9 -71 -21 -63 -5 3 -9 1 -9 -3
0 -13 -51 -8 -60 6 -4 7 -5 33 -2 57 l5 44 -49 0 c-165 -1 -630 24 -636 34 -4
6 -10 7 -14 3 -4 -4 -13 1 -20 11 -19 26 1 31 60 16 61 -16 311 -20 301 -4 -4
6 18 10 57 11 97 1 40 17 -63 18 -199 2 -360 14 -355 27 2 6 -5 15 -17 18 -12
3 -18 8 -15 11 3 4 15 2 26 -4 23 -12 102 -15 117 -3 6 4 15 16 21 27 14 24
36 21 83 -11 64 -43 166 -27 203 32 9 14 34 9 85 -17 21 -11 51 -19 68 -19 36
0 104 30 124 53 19 23 33 21 94 -13 64 -36 131 -40 168 -11 28 21 39 19 96
-22 89 -63 249 -34 188 33 -16 18 -17 20 -2 20 10 0 17 4 17 10 0 5 8 6 18 2
16 -6 16 -7 0 -10z m3412 4 c0 -8 -14 -19 -31 -25 -40 -14 -39 -14 -39 4 0 9
10 20 23 25 32 13 47 12 47 -4z m-4500 -6 c0 -5 -5 -10 -11 -10 -5 0 -7 5 -4
10 3 6 8 10 11 10 2 0 4 -4 4 -10z m247 4 c-3 -3 -12 -4 -19 -1 -8 3 -5 6 6 6
11 1 17 -2 13 -5z m-57 -18 c0 -27 -29 -39 -81 -33 -28 4 -58 12 -67 19 -13
11 -3 14 59 19 41 3 77 6 82 7 4 1 7 -4 7 -12z m808 -16 c44 0 42 -26 -2 -34
-34 -7 -93 10 -123 35 -25 21 -2 28 45 14 26 -8 62 -15 80 -15z m370 16 c-10
-7 -18 -19 -18 -27 0 -12 -2 -12 -9 0 -11 16 7 40 29 40 12 0 12 -2 -2 -13z
m279 -3 c-11 -3 -16 -11 -13 -19 3 -8 1 -14 -3 -14 -5 0 -11 6 -14 14 -6 15 7
25 33 24 9 0 8 -2 -3 -5z m2773 -2 c0 -11 -31 -24 -39 -16 -3 3 1 10 9 15 19
12 30 12 30 1z m-2745 -21 c3 -5 1 -10 -4 -10 -6 0 -11 5 -11 10 0 6 2 10 4
10 3 0 8 -4 11 -10z m253 -8 c-10 -2 -18 -11 -19 -20 0 -11 -2 -13 -6 -4 -7
17 16 44 31 35 7 -5 5 -9 -6 -11z m-619 -8 c2 -2 1 -10 -2 -19 -12 -30 -140
-11 -162 24 -5 9 16 10 77 5 46 -4 85 -8 87 -10z m911 4 c0 -4 -7 -8 -16 -8
-11 0 -14 -6 -9 -20 3 -11 2 -20 -4 -20 -14 0 -19 33 -7 46 12 13 36 14 36 2z
m2517 -10 c-3 -8 -6 -5 -6 6 -1 11 2 17 5 13 3 -3 4 -12 1 -19z m-3147 -9 c0
-20 -20 -29 -61 -29 -35 0 -99 25 -99 38 0 5 36 9 80 8 67 -1 80 -4 80 -17z
m907 15 c-3 -3 -12 -4 -19 -1 -8 3 -5 6 6 6 11 1 17 -2 13 -5z m553 -4 c0 -5
-2 -10 -4 -10 -3 0 -8 5 -11 10 -3 6 -1 10 4 10 6 0 11 -4 11 -10z m1620 -9
c0 -15 -20 -24 -117 -49 -231 -61 -229 -60 -218 -31 3 8 33 22 68 32 153 43
197 53 197 45 0 -5 7 -2 16 6 22 22 54 21 54 -3z m-2842 -11 c34 0 42 -3 42
-19 0 -28 -55 -33 -106 -11 -59 25 -69 45 -18 37 21 -4 58 -7 82 -7z m672 -26
c0 -1 -9 0 -20 3 -11 3 -20 12 -20 19 0 11 5 10 20 -3 11 -10 20 -18 20 -19z
m839 10 c-15 -18 -22 -13 -13 10 3 9 10 13 16 10 5 -3 4 -12 -3 -20z m-1392
10 c-3 -3 -12 -4 -19 -1 -8 3 -5 6 6 6 11 1 17 -2 13 -5z m1123 -4 c0 -5 -2
-10 -4 -10 -3 0 -8 5 -11 10 -3 6 -1 10 4 10 6 0 11 -4 11 -10z m-922 -25 c-5
-35 -100 -33 -148 4 l-24 19 87 -1 c81 -2 87 -3 85 -22z m235 12 c40 1 47 -1
47 -18 0 -16 -7 -19 -55 -19 -62 0 -128 26 -104 41 8 4 25 5 39 1 14 -4 46 -6
73 -5z m1116 -3 c2 -2 1 -11 -3 -20 -5 -12 -14 -15 -39 -11 -97 16 -114 51
-19 41 31 -4 59 -8 61 -10z m31 0 c0 -8 -4 -12 -10 -9 -5 3 -10 10 -10 16 0 5
5 9 10 9 6 0 10 -7 10 -16z m-265 -13 c-2 -17 -29 -29 -68 -30 -34 -1 -100 25
-93 37 3 5 41 8 84 8 63 -1 79 -4 77 -15z m-3612 -6 c-3 -9 -8 -14 -10 -11 -3
3 -2 9 2 15 9 16 15 13 8 -4z m2881 -10 c19 -14 19 -15 0 -36 -10 -12 -27 -24
-37 -28 -15 -6 -16 -9 -4 -25 10 -14 19 -17 33 -11 27 12 38 12 46 1 16 -23
-5 -36 -62 -36 l-57 0 6 32 c5 25 2 37 -12 51 -19 19 -19 20 9 43 34 27 51 29
78 9z m846 -7 c47 -29 120 -29 159 0 l29 21 5 -27 c3 -15 0 -33 -6 -41 -7 -8
-12 -37 -12 -65 0 -46 -2 -51 -22 -50 -13 0 -70 1 -128 2 l-105 2 0 90 c0 87
1 90 23 90 12 0 38 -10 57 -22z m-285 1 c18 -28 124 -41 164 -19 19 10 21 8
21 -24 0 -30 -3 -34 -22 -30 l-23 5 23 -10 c17 -8 22 -19 22 -45 l0 -35 -127
6 c-126 6 -143 11 -143 43 0 12 8 15 35 12 19 -2 35 0 35 6 0 5 25 8 56 7 31
-1 49 2 41 6 -7 5 -35 7 -60 5 -52 -3 -70 10 -81 57 -6 25 -4 27 23 27 16 0
33 -5 36 -11z m-3385 -9 c0 -5 -9 -14 -20 -20 -24 -13 -26 -7 -4 14 18 18 24
20 24 6z m60 -14 c0 -3 -4 -8 -10 -11 -5 -3 -10 -1 -10 4 0 6 5 11 10 11 6 0
10 -2 10 -4z m-384 -83 l36 -57 -22 -18 -22 -18 21 0 c20 0 21 -1 6 -24 -18
-28 -51 -25 -60 5 -4 11 -10 17 -15 14 -4 -3 -6 3 -3 14 3 12 -3 24 -17 34
-12 8 -16 17 -10 19 6 2 12 22 13 46 2 61 27 56 73 -15z m5364 27 c0 -5 -5
-10 -11 -10 -5 0 -7 5 -4 10 3 6 8 10 11 10 2 0 4 -4 4 -10z m-2320 -15 c0
-12 -13 -15 -60 -15 -47 0 -60 3 -60 15 0 12 13 15 60 15 47 0 60 -3 60 -15z
m-2919 -78 c-10 -9 -11 -8 -5 6 3 10 9 15 12 12 3 -3 0 -11 -7 -18z m2869 -47
c0 -25 5 -40 13 -41 10 0 10 -2 0 -6 -7 -2 -13 -16 -13 -29 0 -13 -4 -24 -10
-24 -5 0 -10 10 -10 23 0 13 -5 28 -12 35 -9 9 -9 12 0 12 7 0 12 14 12 35 0
19 5 35 10 35 6 0 10 -18 10 -40z m1910 -5 c0 -25 -4 -45 -10 -45 -5 0 -10 20
-10 45 0 25 5 45 10 45 6 0 10 -20 10 -45z m425 7 c-3 -3 -11 0 -18 7 -9 10
-8 11 6 5 10 -3 15 -9 12 -12z m-3780 -1 c12 -5 -13 -8 -65 -8 -68 0 -76 2
-40 7 63 10 82 10 105 1z m83 -8 c-10 -2 -28 -2 -40 0 -13 2 -5 4 17 4 22 1
32 -1 23 -4z m117 -3 c-16 -4 -43 -8 -60 -8 -29 1 -29 1 5 8 19 4 46 7 60 8
22 0 22 -1 -5 -8z m1165 -23 c8 -1 23 -8 33 -13 15 -8 7 -10 -35 -8 -29 2
-165 7 -301 10 -136 3 -246 9 -243 11 14 15 88 17 299 11 127 -4 239 -9 247
-11z m-1715 -26 c3 -5 1 -12 -5 -16 -5 -3 -10 1 -10 9 0 18 6 21 15 7z m2042
-33 c-3 -7 -5 -2 -5 12 0 14 2 19 5 13 2 -7 2 -19 0 -25z m640 26 c-10 -10
-146 -15 -161 -7 -8 4 27 9 76 10 50 2 88 0 85 -3z m-3384 -49 c-2 -5 -25 -11
-53 -13 -40 -2 -50 0 -50 13 0 13 10 15 53 13 28 -2 51 -7 50 -13z m4407 -74
c0 -22 -4 -43 -10 -46 -6 -4 -10 12 -10 39 0 25 5 46 10 46 6 0 10 -18 10 -39z
m-3545 -21 c3 -5 1 -10 -4 -10 -6 0 -11 5 -11 10 0 6 2 10 4 10 3 0 8 -4 11
-10z m-905 -51 c0 -21 -4 -39 -10 -39 -5 0 -10 21 -10 46 0 27 4 43 10 39 6
-3 10 -24 10 -46z m2540 -9 c0 -27 -4 -50 -10 -50 -5 0 -10 23 -10 50 0 28 5
50 10 50 6 0 10 -22 10 -50z m-740 -55 c0 -17 -7 -29 -22 -35 -20 -8 -18 -9
14 -9 43 -1 59 -18 33 -38 -14 -10 -15 -13 -4 -15 8 0 19 -2 24 -3 6 -2 16 -3
23 -4 6 0 12 -6 12 -12 0 -5 -4 -8 -9 -5 -4 3 -17 -10 -27 -29 -10 -19 -23
-35 -29 -35 -5 0 -3 -4 5 -10 8 -5 12 -10 10 -12 -3 -2 -66 -1 -140 2 -110 4
-126 6 -86 13 27 4 83 8 125 8 73 1 74 2 31 11 -25 5 -76 11 -114 13 -41 3
-73 10 -78 17 -11 18 -10 38 2 38 6 0 10 -8 10 -18 0 -14 9 -18 43 -19 23 -1
33 1 22 4 -11 2 -26 12 -32 21 -11 13 -13 13 -13 1 -1 -20 -15 6 -24 44 l-7
28 86 -2 c47 -1 89 1 92 5 7 6 -61 11 -109 8 -28 -2 -34 10 -22 41 4 12 26 15
95 16 l89 1 0 -25z m215 -6 c11 -16 1 -19 -13 -3 -7 8 -8 14 -3 14 5 0 13 -5
16 -11z m463 -8 c9 -5 3 -8 -17 -9 -17 0 -31 4 -31 9 0 11 30 12 48 0z m-965
-36 c-3 -9 -8 -14 -10 -11 -3 3 -2 9 2 15 9 16 15 13 8 -4z m420 -2 c-7 -2
-21 -2 -30 0 -10 3 -4 5 12 5 17 0 24 -2 18 -5z m261 0 c50 -4 74 -9 67 -16
-5 -5 -7 -16 -4 -23 3 -8 1 -14 -5 -14 -6 0 -8 -9 -5 -20 5 -19 0 -20 -79 -20
l-84 0 -13 38 c-8 20 -16 43 -18 50 -6 14 25 15 141 5z m341 -2 c-12 -11 -183
-27 -173 -16 11 12 69 23 128 24 32 1 50 -3 45 -8z m-516 -16 c7 4 8 -1 4 -11
-4 -12 -3 -15 5 -10 7 4 12 2 12 -3 0 -14 -12 -14 -42 2 -14 7 -23 18 -20 25
3 10 7 10 18 2 7 -7 18 -9 23 -5z m-2027 -31 c-3 -17 -7 -22 -12 -14 -7 11 -7
24 -1 48 1 2 5 1 10 -2 4 -3 6 -17 3 -32z m1905 30 c-3 -3 -12 -4 -19 -1 -8 3
-5 6 6 6 11 1 17 -2 13 -5z m-387 -25 c7 -11 9 -23 6 -27 -3 -3 -6 0 -6 8 0
10 -3 10 -15 0 -20 -16 -29 -7 -20 19 8 27 21 27 35 0z m-166 -1 c-6 -10 -4
-10 8 0 13 10 17 10 22 -3 4 -12 1 -16 -16 -13 -22 3 -38 28 -18 28 6 0 8 -5
4 -12z m-501 -39 c5 -3 -13 -6 -40 -6 l-48 0 35 12 c19 7 37 10 40 6 3 -3 9
-9 13 -12z m-543 -29 c0 -5 -5 -10 -11 -10 -5 0 -7 5 -4 10 3 6 8 10 11 10 2
0 4 -4 4 -10z m567 4 c-3 -3 -12 -4 -19 -1 -8 3 -5 6 6 6 11 1 17 -2 13 -5z
m1326 -5 c37 -1 67 -5 67 -9 0 -4 -21 -6 -47 -5 -27 2 -67 4 -91 4 -27 1 -41
5 -37 11 4 6 14 9 23 6 10 -3 47 -6 85 -7z m-306 -81 c-3 -8 -6 -5 -6 6 -1 11
2 17 5 13 3 -3 4 -12 1 -19z m343 11 c0 -5 4 -7 10 -4 5 3 22 -2 37 -12 15
-10 29 -17 32 -15 3 2 7 -2 9 -8 2 -6 -2 -11 -9 -9 -42 5 -58 -2 -61 -28 -2
-16 -10 -27 -21 -29 -11 -1 -22 -6 -25 -9 -10 -10 497 4 533 14 17 5 22 10 13
10 -22 1 -25 41 -3 41 8 0 15 -6 15 -12 0 -7 5 -5 11 5 8 14 26 17 114 17
l105 0 0 -25 0 -25 -102 0 c-56 0 -99 -2 -96 -5 3 -3 124 -2 269 2 158 5 236
10 194 13 -64 5 -70 7 -73 28 -3 22 -2 23 70 20 67 -3 73 -5 76 -25 3 -22 7
-23 120 -23 134 0 194 8 189 24 -6 18 -39 19 -49 2 -6 -11 -23 -16 -53 -16
-41 0 -45 2 -45 25 0 25 1 25 86 25 l86 0 -4 -25 -5 -25 116 1 c64 1 104 4 89
6 -22 3 -28 10 -28 29 0 24 1 24 95 24 87 0 95 -2 95 -19 0 -15 -8 -21 -37
-24 -21 -2 -1 -4 43 -5 66 -2 83 -5 88 -18 4 -9 5 -18 4 -19 -12 -10 -55 -29
-60 -27 -5 1 -8 -5 -8 -13 0 -8 -5 -15 -10 -15 -6 0 -23 -9 -38 -20 -31 -23
-77 -27 -452 -35 -150 -4 -249 -10 -257 -17 -9 -7 -17 -7 -28 2 -19 15 -23 4
-27 -65 -3 -48 -4 -50 -36 -52 l-32 -3 0 54 c0 52 -1 54 -35 70 -32 16 -69 16
-433 6 -218 -6 -437 -12 -487 -15 -118 -5 -367 -7 -809 -6 -198 0 -362 -2
-366 -4 -4 -3 -160 -7 -346 -9 -187 -3 -356 -8 -377 -12 -27 -5 -37 -3 -37 6
0 11 -103 12 -545 7 -536 -6 -545 -6 -545 13 0 16 7 20 31 20 36 0 72 17 64
31 -4 5 25 9 72 9 43 0 88 3 100 6 19 5 23 2 23 -16 0 -23 1 -23 98 -17 53 4
115 7 136 7 37 0 39 1 20 15 -17 13 -11 14 63 15 45 0 88 3 97 6 11 4 16 1 16
-10 0 -15 12 -16 92 -14 68 2 92 6 90 16 -2 14 44 17 53 2 8 -12 45 -13 45 -1
0 5 -10 7 -23 4 -18 -4 -19 -3 -7 6 23 16 50 14 44 -4 -5 -12 5 -15 56 -15 56
0 62 2 57 19 -5 21 16 31 66 31 24 0 26 -2 15 -20 -7 -10 -10 -21 -8 -24 5 -4
239 10 329 20 31 4 70 7 86 7 17 0 33 5 38 11 5 8 10 7 17 -4 5 -8 10 -10 10
-4 0 10 45 19 160 29 25 2 86 10 136 18 50 7 103 10 118 6 14 -4 26 -4 26 0 0
14 142 31 163 20 10 -6 35 -8 55 -5 20 3 96 8 167 11 72 3 155 8 185 11 30 3
75 7 100 10 50 5 137 11 188 13 17 0 31 4 31 9 -3 16 2 22 16 22 8 0 15 -5 15
-11z m-707 -6 c-7 -2 -21 -2 -30 0 -10 3 -4 5 12 5 17 0 24 -2 18 -5z m-138
-12 c-3 -6 -14 -9 -25 -8 -24 2 -15 17 11 17 11 0 18 -4 14 -9z m-115 -11 c0
-5 -17 -9 -37 -9 l-38 2 35 7 c19 4 36 8 38 9 1 0 2 -3 2 -9z m-1283 -47 c-3
-10 -5 -4 -5 12 0 17 2 24 5 18 2 -7 2 -21 0 -30z m1141 24 c-7 -8 -20 -12
-30 -9 -10 2 -18 -1 -18 -7 0 -16 -27 -14 -33 3 -6 15 12 21 71 25 19 1 21 -1
10 -12z m1272 -27 c0 -25 -4 -30 -25 -30 -20 0 -25 5 -25 23 0 28 7 37 32 37
13 0 18 -8 18 -30z m-1440 10 c-8 -5 -31 -9 -50 -9 -32 1 -33 2 -10 9 14 4 36
8 50 9 20 1 22 -1 10 -9z m-170 -30 c0 -17 -7 -20 -39 -20 -44 0 -66 26 -28
33 52 10 67 7 67 -13z m4015 10 c3 -5 -1 -10 -9 -10 -9 0 -16 5 -16 10 0 6 4
10 9 10 6 0 13 -4 16 -10z m35 0 c0 -5 -4 -10 -10 -10 -5 0 -10 5 -10 10 0 6
5 10 10 10 6 0 10 -4 10 -10z m-4227 -29 c-7 -26 -73 -35 -91 -13 -10 14 -10
18 5 24 10 3 34 7 55 7 31 1 35 -2 31 -18z m3657 7 c0 -8 -13 -13 -34 -13 -26
0 -32 3 -24 13 6 6 21 12 34 12 13 0 24 -6 24 -12z m-4002 -232 c-2 -10 -7
-13 -17 -7 -8 6 -11 16 -7 27 8 21 30 4 24 -20z m4151 -37 c-7 -4 -18 -1 -26
6 -20 21 -16 26 12 13 17 -8 22 -14 14 -19z m-1209 11 c0 -5 -6 -10 -14 -10
-8 0 -18 5 -21 10 -3 6 3 10 14 10 12 0 21 -4 21 -10z m1300 -25 c20 -24 6
-28 -15 -5 -10 11 -13 20 -8 20 6 0 16 -7 23 -15z m-3610 -5 c0 -5 -2 -10 -4
-10 -3 0 -8 5 -11 10 -3 6 -1 10 4 10 6 0 11 -4 11 -10z m1608 -21 c-2 -6 -8
-10 -13 -10 -5 0 -11 4 -13 10 -2 6 4 11 13 11 9 0 15 -5 13 -11z m-138 -3 c0
-3 -4 -8 -10 -11 -5 -3 -10 -1 -10 4 0 6 5 11 10 11 6 0 10 -2 10 -4z m-335
-16 c-3 -5 -12 -10 -18 -10 -7 0 -6 4 3 10 19 12 23 12 15 0z m-1017 -19 c1
-1 2 -8 2 -16 0 -17 -35 -21 -45 -5 -4 6 -11 8 -16 4 -15 -9 -41 4 -34 16 5 8
61 8 93 1z m852 -21 c0 -5 -8 -10 -17 -10 -15 0 -16 2 -3 10 19 12 20 12 20 0z
m270 -10 c0 -5 -2 -10 -4 -10 -3 0 -8 5 -11 10 -3 6 -1 10 4 10 6 0 11 -4 11
-10z m30 -10 c0 -5 -4 -10 -10 -10 -5 0 -10 5 -10 10 0 6 5 10 10 10 6 0 10
-4 10 -10z m1361 -22 c19 -17 30 -29 24 -27 -5 3 -27 13 -47 22 -21 10 -38 22
-38 27 0 20 28 9 61 -22z m-3306 -8 c-3 -5 -14 -10 -23 -9 -14 0 -13 2 3 9 27
11 27 11 20 0z m1865 0 c0 -5 -5 -10 -11 -10 -5 0 -7 5 -4 10 3 6 8 10 11 10
2 0 4 -4 4 -10z m-1972 -35 c-3 -3 -9 2 -12 12 -6 14 -5 15 5 6 7 -7 10 -15 7
-18z m-182 -10 c-11 -8 -25 -15 -30 -15 -6 0 -2 7 8 15 11 8 25 15 30 15 6 0
2 -7 -8 -15z m3611 9 c-3 -3 -12 -4 -19 -1 -8 3 -5 6 6 6 11 1 17 -2 13 -5z
m-702 -64 c8 -13 -15 -13 -35 0 -12 8 -11 10 7 10 12 0 25 -4 28 -10z m95 -10
c12 -8 9 -10 -12 -10 -16 0 -28 5 -28 10 0 13 20 13 40 0z m284 -18 c3 -5 -1
-9 -9 -9 -8 0 -15 4 -15 9 0 4 4 8 9 8 6 0 12 -4 15 -8z m-94 -21 c0 -5 -9 -7
-20 -4 -11 3 -20 7 -20 9 0 2 9 4 20 4 11 0 20 -4 20 -9z m30 -1 c0 -5 -4 -10
-10 -10 -5 0 -10 5 -10 10 0 6 5 10 10 10 6 0 10 -4 10 -10z m-160 -20 c0 -5
-8 -10 -17 -10 -15 0 -16 2 -3 10 19 12 20 12 20 0z m24 -276 c23 -9 20 -34
-4 -34 -11 0 -20 5 -20 10 0 6 -8 10 -17 10 -15 0 -16 2 -3 10 18 11 23 12 44
4z m-254 -176 c0 -10 2 -10 9 0 7 11 9 11 14 -2 4 -11 1 -16 -12 -16 -10 0
-21 7 -25 15 -3 8 -1 15 4 15 6 0 10 -6 10 -12z m-1240 -189 c0 -5 -4 -7 -10
-4 -5 3 -10 2 -10 -4 0 -6 -7 -8 -16 -4 -13 5 -13 7 -2 14 18 12 38 11 38 -2z"/>
<path d="M1165 2590 c-3 -5 -1 -10 4 -10 6 0 11 5 11 10 0 6 -2 10 -4 10 -3 0
-8 -4 -11 -10z"/>
<path d="M1827 2568 c8 -44 10 -45 15 -4 3 25 0 36 -9 36 -9 0 -11 -10 -6 -32z"/>
<path d="M2418 2503 c7 -3 16 -2 19 1 4 3 -2 6 -13 5 -11 0 -14 -3 -6 -6z"/>
<path d="M2758 2493 c7 -3 16 -2 19 1 4 3 -2 6 -13 5 -11 0 -14 -3 -6 -6z"/>
<path d="M2968 2473 c6 -2 18 -2 25 0 6 3 1 5 -13 5 -14 0 -19 -2 -12 -5z"/>
<path d="M3048 2473 c6 -2 18 -2 25 0 6 3 1 5 -13 5 -14 0 -19 -2 -12 -5z"/>
<path d="M3224 2461 c3 -5 19 -11 35 -13 17 -2 28 -1 25 3 -2 4 15 10 38 12
28 2 18 4 -30 5 -40 1 -71 -2 -68 -7z"/>
<path d="M2690 1870 c0 -18 7 -20 55 -20 48 0 55 2 55 20 0 18 -7 20 -55 20
-48 0 -55 -2 -55 -20z"/>
<path d="M1385 1580 c3 -5 8 -10 11 -10 2 0 4 5 4 10 0 6 -5 10 -11 10 -5 0
-7 -4 -4 -10z"/>
<path d="M848 4473 c7 -3 16 -2 19 1 4 3 -2 6 -13 5 -11 0 -14 -3 -6 -6z"/>
<path d="M829 4449 c-6 -3 3 -9 20 -12 17 -4 56 -18 86 -33 30 -14 63 -23 73
-21 15 4 14 5 -2 6 -20 1 -20 1 0 17 18 15 18 15 0 10 -21 -7 -86 11 -86 24 0
10 -77 18 -91 9z"/>
<path d="M972 4443 c-6 -2 -10 -9 -6 -14 8 -14 21 -11 21 6 0 8 -1 15 -1 14
-1 0 -7 -3 -14 -6z"/>
<path d="M874 4345 c-10 -8 -14 -14 -9 -14 6 0 19 6 29 14 11 8 15 15 10 15
-6 0 -19 -7 -30 -15z"/>
<path d="M890 4310 c-8 -5 -12 -12 -9 -15 4 -3 12 1 19 10 14 17 11 19 -10 5z"/>
<path d="M850 4290 c-9 -6 -10 -10 -3 -10 6 0 15 5 18 10 8 12 4 12 -15 0z"/>
<path d="M805 4200 c-5 -14 -8 -32 -6 -40 2 -11 -3 -10 -20 5 -22 19 -22 19 1
-12 14 -18 29 -32 34 -32 5 -1 2 7 -5 16 -12 15 -12 16 6 9 16 -6 18 -5 8 5
-7 7 -13 22 -12 34 0 14 2 16 6 5 9 -23 43 -64 43 -52 0 6 -5 14 -10 17 -6 4
-16 21 -24 38 l-13 32 -8 -25z"/>
<path d="M4845 4170 c-3 -5 -1 -10 4 -10 6 0 11 5 11 10 0 6 -2 10 -4 10 -3 0
-8 -4 -11 -10z"/>
<path d="M720 4161 c0 -6 4 -13 10 -16 6 -3 7 1 4 9 -7 18 -14 21 -14 7z"/>
<path d="M3885 4140 c3 -5 8 -10 11 -10 2 0 4 5 4 10 0 6 -5 10 -11 10 -5 0
-7 -4 -4 -10z"/>
<path d="M397 4106 c-4 -10 -5 -21 -2 -24 9 -9 17 6 13 25 -3 17 -4 17 -11 -1z"/>
<path d="M886 4087 c3 -10 9 -15 12 -12 3 3 0 11 -7 18 -10 9 -11 8 -5 -6z"/>
<path d="M140 3980 c0 -5 -6 -15 -14 -23 -9 -9 -11 -19 -5 -28 6 -9 9 -10 9
-2 0 7 9 21 21 31 17 17 18 20 5 25 -9 4 -16 2 -16 -3z"/>
<path d="M56 3944 c-9 -8 -16 -18 -16 -20 0 -7 38 15 45 26 10 16 -12 12 -29
-6z"/>
<path d="M79 3914 c-8 -9 -19 -29 -26 -43 l-11 -26 -1 34 c-1 33 -1 34 -21 16
-28 -25 -25 -41 10 -54 17 -5 30 -9 31 -8 0 1 2 10 4 20 2 10 11 29 20 43 19
30 15 43 -6 18z"/>
<path d="M80 3849 c0 -5 5 -7 10 -4 6 3 10 8 10 11 0 2 -4 4 -10 4 -5 0 -10
-5 -10 -11z"/>
<path d="M6 3825 c4 -8 10 -15 15 -15 4 0 6 7 3 15 -4 8 -10 15 -15 15 -4 0
-6 -7 -3 -15z"/>
<path d="M59 3828 c-12 -39 -1 -49 19 -18 10 17 10 20 -3 20 -8 0 -15 -1 -16
-2z"/>
<path d="M121 3784 c0 -11 3 -14 6 -6 3 7 2 16 -1 19 -3 4 -6 -2 -5 -13z"/>
<path d="M4267 3590 c7 -27 33 -48 33 -26 0 9 -4 16 -10 16 -5 0 -10 7 -10 15
0 8 -4 15 -9 15 -5 0 -7 -9 -4 -20z"/>
<path d="M870 3226 c0 -8 61 -12 66 -4 3 4 -11 8 -30 8 -20 0 -36 -2 -36 -4z"/>
<path d="M963 3213 c9 -2 25 -2 35 0 9 3 1 5 -18 5 -19 0 -27 -2 -17 -5z"/>
<path d="M1033 3213 c9 -2 25 -2 35 0 9 3 1 5 -18 5 -19 0 -27 -2 -17 -5z"/>
<path d="M2613 3173 c9 -2 23 -2 30 0 6 3 -1 5 -18 5 -16 0 -22 -2 -12 -5z"/>
<path d="M696 3145 c-16 -12 -17 -15 -4 -15 9 0 18 7 22 15 7 18 6 18 -18 0z"/>
<path d="M3153 3153 c9 -2 25 -2 35 0 9 3 1 5 -18 5 -19 0 -27 -2 -17 -5z"/>
<path d="M337 3143 c18 -2 50 -2 70 0 21 2 7 4 -32 4 -38 0 -55 -2 -38 -4z"/>
<path d="M923 3133 c15 -2 37 -2 50 0 12 2 0 4 -28 4 -27 0 -38 -2 -22 -4z"/>
<path d="M1048 3133 c6 -2 18 -2 25 0 6 3 1 5 -13 5 -14 0 -19 -2 -12 -5z"/>
<path d="M3693 3133 c15 -2 37 -2 50 0 12 2 0 4 -28 4 -27 0 -38 -2 -22 -4z"/>
<path d="M4307 3108 c2 -5 59 -7 126 -7 141 2 129 7 -25 11 -58 2 -104 0 -101
-4z"/>
<path d="M4569 3097 c4 -5 32 -7 62 -5 l54 3 -62 5 c-34 3 -58 1 -54 -3z"/>
<path d="M3215 3080 c-3 -5 -1 -10 4 -10 6 0 11 5 11 10 0 6 -2 10 -4 10 -3 0
-8 -4 -11 -10z"/>
<path d="M3698 3053 c6 -2 18 -2 25 0 6 3 1 5 -13 5 -14 0 -19 -2 -12 -5z"/>
<path d="M692 2730 c0 -14 2 -19 5 -12 2 6 2 18 0 25 -3 6 -5 1 -5 -13z"/>
<path d="M700 2580 c-12 -7 -12 -12 4 -29 11 -12 26 -21 35 -22 12 0 11 -3 -4
-9 -19 -8 -19 -9 3 -9 13 -1 22 5 22 14 0 9 -10 15 -22 16 -17 1 -19 2 -6 6
14 4 16 8 8 24 -12 21 -18 23 -40 9z"/>
</g>
</svg>
